<?xml version="1.0" encoding="utf-8"?>
<!-- Generator: Adobe Illustrator 25.0.0, SVG Export Plug-In . SVG Version: 6.00 Build 0)  -->
<svg version="1.1" id="圖層_1" xmlns="http://www.w3.org/2000/svg" xmlns:xlink="http://www.w3.org/1999/xlink" x="0px" y="0px"
	 viewBox="0 0 1366 600" style="enable-background:new 0 0 1366 600;" xml:space="preserve">
<style type="text/css">
	.st0{fill:#F1F1F1;}
</style>
<g id="圖層_2_1_">
	<g id="首頁">
		<path class="st0" d="M1275.1,35.2c-65.8-3.2-126.1-27.4-212.9-28c-90.8-0.6-153.5,16.5-217.7,21.5C758.4,35.6,616,8.8,501,9.4
			C389.2,10,319.8,44.4,188.5,32.6C62.8,21.3,0,27.3,0,27.3v555.9c0,0,62.8-6.2,188.5,6.3c131.3,13.1,200.7-25,312.5-25.7
			c115-0.7,257.4,29,343.4,21.5c64.2-5.6,126.9-24.6,217.7-23.9c86.9,0.6,147.1,27.4,212.9,31.1c38.5,2.1,90.9-9.3,90.9-9.3V27.3
			C1366,27.3,1313.6,37.2,1275.1,35.2z"/>
	</g>
</g>
</svg>
