<?xml version="1.0" encoding="utf-8"?>
<!-- Generator: Adobe Illustrator 25.0.0, SVG Export Plug-In . SVG Version: 6.00 Build 0)  -->
<svg version="1.1" id="圖層_1" xmlns="http://www.w3.org/2000/svg" xmlns:xlink="http://www.w3.org/1999/xlink" x="0px" y="0px"
	 viewBox="0 0 70.4 53.7" style="enable-background:new 0 0 70.4 53.7;" xml:space="preserve">
<style type="text/css">
	.st0{fill:#1152A0;}
</style>
<path class="st0" d="M70,2.4L70,2.4c-1-1-2.3-1.7-3.6-2l0,0l0,0c-1.7-0.4-3.4-0.4-4.9,0.1c-1.6,0.4-3,1.3-4.2,2.4
	c-0.4,0.5-0.8,1-1.1,1.6c-1-1.5-2.6-2.8-4.2-3.5c-2.1-1-4.7-1-7,0.1c-2.3,1.2-4,3-5,5.4c-0.3,0.6,0,1.2,0.6,1.5c0.3,0.1,0.7,0.2,1,0
	c2.8-1.3,5.1-1.4,6.9-0.4c1,0.6,1.9,1.5,2.4,2.5c0.6,1.4,1,2.8,1,4.1c0.1,4.3-1.8,8.3-5.3,10.9c-7.7,6.1-14.3,1.6-20.7-2.8l-2-1.4
	c-3.1-2.1-7-4.6-11.3-4.9c-2.1-0.1-4.2,0.4-6.1,1.4c-1.1,0.6-2.2,1.4-3.2,2.2C3,19.8,2.9,20,2.8,20.1l-0.1,0.1
	c-0.9,0.8-1.9,1.6-2.3,2.6c-0.4,0.9,0.1,2.1,0.5,3C1,25.9,1,26.1,1.1,26.2c0.4,1,0.8,2,1.3,3c1,2.1,2.3,4,3.6,5.7
	c1.4,1.6,2.9,3.2,4.9,4.7c0.9,0.7,1.7,1.3,2.8,1.9c0.2,0.1,0.5,0.3,1.1,0.5c0.4,0.2,1.5,0.6,1.6,0.8c1.9,6.3,7.8,10.6,14.3,10.6
	c0.6,0,1.1,0,1.7-0.1c0.3,0,0.6-0.2,0.7-0.3c0.2-0.2,0.3-0.5,0.3-0.8c0-0.3-0.1-0.6-0.3-0.8c-1.4-1.6-2.7-3.5-3.5-5.5
	c7.5-0.1,14.6-3,20-8.1h0.1l0.1-0.1c5.8-5.4,9.2-13.1,9.4-21.1c0.1-2.8,1.2-5.5,3-7.7C64,6.6,66.5,5,69.3,4.4c0.3,0,0.4-0.2,0.5-0.3
	c0.3-0.2,0.4-0.5,0.5-0.8C70.3,3,70.2,2.6,70,2.4z M27.8,39.5c2.2,0.8,4.6,1.3,7.3,1.5c0.3,0,0.5,0,0.7,0.1c0.8,0.1,1.5,0.1,2.5,0.1
	c0.4,0,0.5,0.1,0.6,0.1c0,0-0.1,0.1-0.2,0.1c-1.4,0.6-2.3,0.9-3.7,1.3c-2.3,0.6-4.5,0.8-6.7,0.5l-0.1-0.3c-0.2-0.7-0.3-1.4-0.4-2.2
	C28,40.6,27.9,40,27.8,39.5z M43,38.5c-3.9,1.2-7.9,0.2-11.7-0.8l0,0c-1-0.3-2.1-0.6-3.2-0.8c-0.9-0.2-1.5-0.1-2,0.3
	c-0.6,0.5-0.8,1.3-0.7,2.6c0.1,0.9,0.3,1.7,0.4,2.4c0.1,0.4,0.2,0.7,0.2,0.9c0.5,1.7,1.3,3.5,2.4,5.2c0.1,0.1,0.3,0.5,0.4,0.9
	c0.3,0.6,0.6,1.3,1,1.9c-6.7-0.5-10.6-7-11.9-12.4c-0.7-4.3-2.2-8.4-4.3-12c-1.5-2.5-3.5-4-6.2-4.8c-0.1,0-0.3-0.1-0.5-0.1
	c-0.6-0.1-1.3-0.3-2-0.3c6.9-5.9,12.9-1.7,19.3,2.7c7.1,4.9,14.5,10,23.6,2.8c4-3.1,6.3-7.9,6.2-12.9c0-1.8-0.4-3.4-1.2-5
	c-0.8-1.5-1.9-2.7-3.4-3.6c-1.8-0.9-3.8-1.2-5.8-0.8c0.6-0.6,1.3-1.1,2.2-1.6c1.6-0.7,3.5-0.8,5.1-0.1c2,0.9,3.6,2.5,4.5,4.5
	c0.2,0.4,0.5,0.5,0.7,0.6l0.1,0c0.6,0.1,1.3-0.2,1.4-0.8l0.1-0.3l0-0.2c0.2-0.9,0.6-1.8,1.3-2.3c1-0.8,2.1-1.4,3.2-1.6
	c1.1-0.4,2.3-0.4,3.5-0.1c0.2,0,0.5,0.1,0.7,0.2c-2.3,0.9-4.4,2.5-6.1,4.5c-2.2,2.6-3.4,5.7-3.5,9.1c0,1.2-0.1,2.5-0.3,3.7
	c-0.6,3.8-2,7.4-4,10.6C49.8,35,46.8,37.4,43,38.5z M15.9,40.2c-3-1.6-5.8-4-8.1-6.8c-1-1.4-2-2.9-3-4.6c-0.1-0.3-1-2.5-1.8-4.4
	c2.2,0,4,0.1,5.8,1.3c1.4,1,2.6,2.4,3.8,4.6c0.6,1.1,1,2.1,1.4,3.1l0.3,0.6C15,36.1,15.6,38.2,15.9,40.2z"/>
</svg>
