<?xml version="1.0" encoding="utf-8"?>
<!-- Generator: Adobe Illustrator 25.0.0, SVG Export Plug-In . SVG Version: 6.00 Build 0)  -->
<svg version="1.1" id="圖層_1" xmlns="http://www.w3.org/2000/svg" xmlns:xlink="http://www.w3.org/1999/xlink" x="0px" y="0px"
	 viewBox="0 0 70.4 53.7" style="enable-background:new 0 0 70.4 53.7;" xml:space="preserve">
<style type="text/css">
	.st0{fill:#1152A0;stroke:#1152A0;stroke-width:0.5;}
</style>
<g id="圖層_2_1_">
	<g id="探索之旅">
		<path id="Path_128" class="st0" d="M25.7,39.4 M25.7,39.7c-0.1-1.6,0.3-3,2.3-2.5c5,1.1,10,3.2,15.1,1.6c4.2-1.2,7.2-3.9,9.6-7.5
			c2.1-3.2,3.5-6.9,4.1-10.7c0.2-1.3,0.3-2.6,0.3-3.8c0.1-3.3,1.3-6.4,3.4-8.9c1.8-2.1,4.1-3.8,6.7-4.7c-0.5-0.3-1-0.5-1.5-0.6
			c-1.2-0.3-2.5-0.3-3.7,0.1c-1.2,0.3-2.3,0.9-3.3,1.7C58,5,57.5,5.9,57.3,6.9v0.2l-0.1,0.2c-0.1,0.4-0.5,0.7-1,0.6c0,0,0,0,0,0
			c-0.2-0.1-0.4-0.2-0.6-0.5c-0.9-2.1-2.6-3.7-4.6-4.6c-1.7-0.7-3.7-0.7-5.4,0.1c-1.2,0.6-2.2,1.4-3,2.5c2.2-0.7,4.5-0.6,6.6,0.5
			c1.4,0.8,2.5,2,3.2,3.4c0.8,1.5,1.2,3.1,1.2,4.8c0.1,4.9-2.2,9.6-6.1,12.6c-8.9,7.1-16.1,2.1-23.2-2.8c-6.7-4.6-13.3-9.1-20.8-1.6
			c0.8-0.8,2.7-0.2,3.7,0c2.7,0.7,4.6,2.2,6,4.6c2.2,3.7,3.6,7.7,4.3,11.9C19,45,23.4,51.4,30.4,51.5c-0.7-0.9-1.6-3.2-1.8-3.4
			c-1-1.6-1.8-3.3-2.3-5.1C26.2,42.3,25.8,41,25.7,39.7z M38.4,40.8c-1.3,0-2-0.1-3.2-0.2c-2.7-0.2-5.4-0.7-7.9-1.7
			c0.1,0,0.3,1.5,0.3,1.7c0.1,1.1,0.3,1.9,0.5,2.9c2.4,0.3,4.8,0.1,7.1-0.5c1.4-0.4,2.3-0.7,3.7-1.3C39.5,41.5,39.7,40.8,38.4,40.8z
			 M12.9,30.1c-1-1.8-2.2-3.5-3.9-4.7C6.9,24,4.8,24,2.5,24c0,0,1.8,4.5,2,4.9c0.9,1.6,1.9,3.2,3,4.7c2.4,3,5.4,5.5,8.8,7.2
			c-0.3-2.4-0.9-4.7-1.7-6.9C14.1,32.7,13.6,31.4,12.9,30.1z M29,45.6c0.9,2.2,2.2,4.3,3.8,6.1c0.3,0.3,0.3,0.8,0,1.1
			c-0.1,0.1-0.3,0.2-0.5,0.2c-7,0.8-13.5-3.5-15.6-10.3c-0.1-0.4-2.4-1.2-2.8-1.5c-1-0.6-1.9-1.2-2.8-1.9c-1.8-1.4-3.4-2.9-4.8-4.6
			c-1.4-1.7-2.6-3.6-3.6-5.6c-0.5-1-0.9-2-1.3-3c-0.3-0.8-1.1-2.3-0.7-3.2c0.5-1.1,1.8-2.1,2.7-2.9c1-0.8,2-1.6,3.1-2.2
			c1.8-1,3.8-1.5,5.9-1.4c4.1,0.2,7.8,2.6,11.1,4.8c0.6,0.4,1.2,0.8,1.8,1.2c6.6,4.5,13.3,9.2,21.3,2.9c3.5-2.7,5.5-6.8,5.4-11.2
			c0-1.4-0.4-2.9-1-4.2c-0.5-1.1-1.4-2.1-2.5-2.7c-1.8-1-4.2-1-7.2,0.4c-0.2,0.1-0.5,0.1-0.7,0c-0.4-0.2-0.6-0.6-0.4-1.1
			c0.9-2.3,2.6-4.1,4.8-5.2c2.1-1,4.6-1.1,6.7-0.1c1.8,0.8,3.4,2.2,4.4,3.9c0.4-0.7,0.9-1.4,1.4-2c1.1-1.1,2.5-1.9,4-2.3
			c1.5-0.5,3.1-0.5,4.7-0.1h0.1c1.3,0.3,2.5,1,3.4,1.9C70,3,70,3.5,69.6,3.8C69.5,3.9,69.4,4,69.3,4c-2.9,0.7-5.5,2.3-7.4,4.7
			c-1.9,2.2-3,5-3.1,7.9c-0.2,7.9-3.5,15.5-9.3,20.9h-0.1C43.9,42.7,36.6,45.6,29,45.6z"/>
	</g>
</g>
</svg>
