<svg xmlns="http://www.w3.org/2000/svg" viewBox="0 0 51.46 50.58"><defs><style>.cls-1{fill:#1152a0;}</style></defs><g id="圖層_2" data-name="圖層 2"><g id="首頁"><g id="Group_94" data-name="Group 94"><path id="Path_112" data-name="Path 112" class="cls-1" d="M47.87,11.14H45.74V4.4A4.41,4.41,0,0,0,41.34,0H10.12A4.4,4.4,0,0,0,5.73,4.4v6.74H3.59A3.6,3.6,0,0,0,0,14.73v6.66H2.38V14.73a1.21,1.21,0,0,1,1.21-1.2H5.73V42.68a3.11,3.11,0,0,0,2.15,3v1.84A3.11,3.11,0,0,0,11,50.58h5.13a3.11,3.11,0,0,0,3.11-3.11V45.79h13v1.68a3.11,3.11,0,0,0,3.11,3.11h5.13a3.11,3.11,0,0,0,3.11-3.11V45.63a3.1,3.1,0,0,0,2.15-3V13.52h2.13a1.21,1.21,0,0,1,1.21,1.21v6.66h2.38V14.73A3.59,3.59,0,0,0,47.87,11.14ZM8.11,10H24.54V27.88H8.11Zm8.74,37.51a.74.74,0,0,1-.74.73H11a.73.73,0,0,1-.73-.73V45.79h6.59Zm24.36,0a.74.74,0,0,1-.74.73H35.35a.73.73,0,0,1-.73-.73V45.79h6.59Zm2.15-4.8a.74.74,0,0,1-.74.73H8.84a.73.73,0,0,1-.73-.73V30.25H43.36Zm0-14.8H26.92V10H43.36Zm0-20.3H8.11V4.39a2,2,0,0,1,2-2H41.34a2,2,0,0,1,2,2Z"/><path id="Path_113" data-name="Path 113" class="cls-1" d="M14.8,40.58a4.17,4.17,0,1,0-4.17-4.16A4.16,4.16,0,0,0,14.8,40.58Zm0-5.95A1.79,1.79,0,1,1,13,36.42,1.79,1.79,0,0,1,14.8,34.63Z"/><path id="Path_114" data-name="Path 114" class="cls-1" d="M36.67,40.58a4.17,4.17,0,1,0-4.17-4.16A4.16,4.16,0,0,0,36.67,40.58Zm0-5.95a1.79,1.79,0,1,1-1.79,1.79A1.79,1.79,0,0,1,36.67,34.63Z"/></g></g></g></svg>