<?xml version="1.0" encoding="utf-8"?>
<!-- Generator: Adobe Illustrator 25.0.0, SVG Export Plug-In . SVG Version: 6.00 Build 0)  -->
<svg version="1.1" id="圖層_1" xmlns="http://www.w3.org/2000/svg" xmlns:xlink="http://www.w3.org/1999/xlink" x="0px" y="0px"
	 viewBox="0 0 67.8 56.9" style="enable-background:new 0 0 67.8 56.9;" xml:space="preserve">
<style type="text/css">
	.st0{fill:#1152A0;}
</style>
<g id="圖層_2_1_">
	<g id="FAQ">
		<g id="Group_88">
			<path id="Path_99" class="st0" d="M5.9,35.2c-0.2-0.6-0.4-1.2-0.5-1.8c-0.1-2.4-0.1-4.7,0-7c0-1.7,0.7-2.3,2.4-2.4
				c1.2,0,36.7,0,53.3,0c0.5,0,1,0,1.6,0c1-0.1,1.9,0.7,2,1.8c0,0,0,0,0,0c0,0.1,0,0.1,0,0.2c0.1,2.5,0,5.1,0,7.6
				c0,1.3-0.9,1.8-2,2.1c-1.9,0.4-3.3,2-3.6,3.9c-0.5,2.5,1,4.9,3.4,5.7c2.1,0.7,2.2,0.8,2.2,3.1c0,2,0,3.9,0,5.9
				c0,2.2-0.6,2.8-2.8,2.8H8.4c-2.5,0-3-0.5-3-3c0-1.8,0-3.7,0-5.5c0-2.5,0-2.5,2.4-3.3c2.6-0.9,4-3.8,3.1-6.4
				c-0.5-1.4-1.5-2.4-2.9-3C7.4,35.5,6.8,35.4,5.9,35.2z M7.6,33.2c4.2,2.2,5.6,3.9,5.6,7.1c0,3.9-2.2,6.1-5.6,7.3v7.2
				c13.8,0,53.1,0.2,54.9,0v-7.1c-3.3-1.2-5.6-3.3-5.6-7c-0.1-3.9,2.2-6.1,5.6-7.3v-7.1c-3.6,0-53.3-0.2-54.9,0.3L7.6,33.2z"/>
			<path id="Path_100" class="st0" d="M15.6,23.3l-1.3-1.4C14.9,21.3,36.6,7.3,47,0.7c1.8-1.2,2.7-0.9,3.8,0.9
				C52,3.3,53.1,5,54.1,6.8c1,1.6,1,1.9-0.2,3.4c-2.3,2.9-1.4,6.9,2,8c1,0.3,2,0.3,3.1,0.1c2.2-0.4,2.3-0.4,3.5,1.5
				c0.3,0.4,0.5,0.9,0.8,1.5l-1.2,1.2L60,20.4c-3.5,0.7-6.6,0.1-8.6-3.4c-1.8-3.1-1.1-6.1,1.2-8.7l-3.9-6.1L15.6,23.3z"/>
			<path id="Path_101" class="st0" d="M3.6,28.4L4.6,30l-2.2,1.8l4.2,6.7C6,39,5.2,39.3,4.8,39.6c-1.6-2.2-3.1-4.5-4.4-6.8
				c-0.6-0.8-0.5-2,0.3-2.6c0,0,0,0,0,0L0.9,30C1.7,29.5,2.5,29,3.6,28.4z"/>
			<g id="Group_86">
				<path id="Rectangle_92" class="st0" d="M49,29.1L49,29.1c0.7,0,1.3,0.6,1.3,1.3V32c0,0.7-0.6,1.3-1.3,1.4c0,0,0,0,0,0l0,0
					c-0.7,0-1.3-0.6-1.4-1.3c0,0,0-0.1,0-0.1v-1.5C47.6,29.7,48.2,29.1,49,29.1C49,29.1,49,29.1,49,29.1z"/>
				<path id="Rectangle_93" class="st0" d="M49,35.4L49,35.4c0.7,0,1.3,0.6,1.3,1.3v1.6c0,0.7-0.6,1.3-1.3,1.3l0,0
					c-0.7,0-1.3-0.6-1.3-1.3v-1.6C47.7,36,48.3,35.4,49,35.4z"/>
				<path id="Rectangle_94" class="st0" d="M49,42L49,42c0.7,0,1.3,0.6,1.3,1.3v1.6c0,0.7-0.6,1.3-1.3,1.3l0,0
					c-0.7,0-1.3-0.6-1.3-1.3v-1.6C47.7,42.6,48.3,42,49,42z"/>
				<path id="Rectangle_95" class="st0" d="M49,48L49,48c0.7,0,1.3,0.6,1.3,1.3v1.6c0,0.7-0.6,1.3-1.3,1.3c0,0,0,0,0,0l0,0
					c-0.7,0-1.3-0.6-1.3-1.3v-1.6C47.7,48.6,48.3,48,49,48C49,48,49,48,49,48z"/>
				<path id="Path_102" class="st0" d="M50.3,25.9c0,0.7-0.5,1.2-1.2,1.2h-0.3c-0.7,0-1.2-0.5-1.2-1.2H50.3z"/>
				<path id="Path_103" class="st0" d="M47.6,54.9c0-0.7,0.5-1.2,1.2-1.2h0.3c0.7,0,1.2,0.5,1.2,1.2H47.6z"/>
			</g>
			<g id="Group_87">
				<path id="Rectangle_96" class="st0" d="M40.8,10.6L40.8,10.6c0.6-0.4,1.4-0.1,1.8,0.5l0.8,1.4c0.4,0.6,0.1,1.4-0.5,1.8l0,0
					c-0.6,0.4-1.4,0.2-1.8-0.5c0,0,0,0,0,0l-0.8-1.4C39.9,11.8,40.1,11,40.8,10.6z"/>
				<path id="Rectangle_97" class="st0" d="M43.9,16L43.9,16c0.6-0.4,1.4-0.2,1.8,0.5c0,0,0,0,0,0l0.8,1.4c0.4,0.6,0.2,1.4-0.5,1.8
					c0,0,0,0,0,0l0,0c-0.6,0.4-1.4,0.2-1.8-0.5c0,0,0,0,0,0l-0.8-1.4C43,17.2,43.2,16.4,43.9,16C43.9,16,43.9,16,43.9,16z"/>
				<path id="Path_104" class="st0" d="M40.3,7.2c0.3,0.6,0.1,1.3-0.4,1.6c0,0,0,0,0,0l0,0l-0.2,0.1c-0.6,0.3-1.3,0.1-1.6-0.4
					c0,0,0,0,0,0L40.3,7.2z"/>
			</g>
		</g>
	</g>
</g>
</svg>
