<?xml version="1.0" encoding="utf-8"?>
<!-- Generator: Adobe Illustrator 25.0.0, SVG Export Plug-In . SVG Version: 6.00 Build 0)  -->
<svg version="1.1" id="圖層_1" xmlns="http://www.w3.org/2000/svg" xmlns:xlink="http://www.w3.org/1999/xlink" x="0px" y="0px"
	 viewBox="0 0 72.2 37.9" style="enable-background:new 0 0 72.2 37.9;" xml:space="preserve">
<style type="text/css">
	.st0{fill:#BEBEBE;}
</style>
<g id="圖層_2_1_">
	<g id="FAQ">
		<path id="Path_111" class="st0" d="M7.2,12.6c2.7-0.7,8.5-1.7,10.1-2c2.5-2.4,5.2-4.6,8.1-6.5c2-1.3,4.2-2,6.5-2.8
			c2.6-0.9,5.3-0.9,8.1-0.9c3.3,0,6-0.1,9-0.1c7.1,0,11.8,5.6,14,8.3c0.3,0.4,0.6,0.8,0.8,1c1.7,0,5.6,0.2,5.8,0.2h0.7l0.3,0.7
			c1.1,2.5,1.6,5.2,1.6,7.9c0,4.4,0,14-5.9,14h-3.4c-0.7,3.6-4.2,6-7.8,5.3c-2.8-0.5-4.9-2.8-5.4-5.6v0.2H24.8
			c-0.7,3.6-4.2,6-7.8,5.4c-2.7-0.5-4.9-2.6-5.4-5.4c-1.2-0.1-3.3-0.1-5.8-0.1c-4.4,0-4.8-2-5.3-5c-0.1-0.7-0.3-4.5-0.5-5.4v-0.1
			v-0.1C0,17.3,3.7,13.5,7.2,12.6z M56.3,35.5c2.4,0,4.3-2,4.3-4.3c0-2.4-2-4.3-4.3-4.3c-2.4,0-4.3,1.9-4.3,4.3
			C52,33.6,53.9,35.5,56.3,35.5L56.3,35.5L56.3,35.5z M18.2,35.5c2.4,0,4.3-1.9,4.3-4.3c0-2.4-1.9-4.3-4.3-4.3
			c-2.4,0-4.3,1.9-4.3,4.3l0,0l0,0C13.9,33.5,15.8,35.5,18.2,35.5L18.2,35.5z M2.9,26.8c0.5,2.9,0.5,3,3,3s4.6,0.1,5.8,0.1
			c0.7-3.6,4.2-6,7.9-5.3c2.7,0.5,4.8,2.6,5.3,5.3h24.9v0.2c0.5-3.7,3.9-6.2,7.6-5.6c2.9,0.4,5.1,2.6,5.6,5.5h3.3
			c3.3,0,3.6-6.7,3.6-11.6c0-2.1-0.4-4.2-1.1-6.2c-1.4-0.1-4.2-0.1-5.3-0.1c-0.8,0-1.3-0.6-2.3-1.8C59.2,7.8,55,2.8,49,2.8
			c-1.2,0-10.6,0-12,0c-5.8,0-12.5,4.7-15.9,7.7h15.8V6.2h2.4v4.3h8.2c4.5,0,5.3-3.2,5.4-3.6l2.3,0.4c-0.3,1.9-2.4,5.5-7.8,5.5h-29
			L18,12.9c-0.1,0-7.3,1.3-10.3,2c-1.9,0.5-3.6,2-4.6,3.7C1.9,20.9,2.4,24.3,2.9,26.8L2.9,26.8z"/>
	</g>
</g>
</svg>
