<svg xmlns="http://www.w3.org/2000/svg" viewBox="0 0 57 40.11"><defs><style>.cls-1{fill:#1152a0;}</style></defs><g id="圖層_2" data-name="圖層 2"><g id="首頁"><g id="Group_96" data-name="Group 96"><path id="Path_118" data-name="Path 118" class="cls-1" d="M57,11.93V9.6H51.27l-2.27,2L45.59,3.85A5.78,5.78,0,0,0,39.79,0H17.21a5.78,5.78,0,0,0-5.79,3.8L8,11.59l-2.27-2H0v2.33H4.85l1.78,1.56L4.32,15.44a7.07,7.07,0,0,0-2.51,5.4V29.7a4.28,4.28,0,0,0,2.12,3.71v3.77a2.93,2.93,0,0,0,2.93,2.93h4.73a2.93,2.93,0,0,0,2.93-2.93V34H42.68v3.16a2.94,2.94,0,0,0,2.94,2.93h4.72a2.93,2.93,0,0,0,2.93-2.93V33.29A4.29,4.29,0,0,0,55.2,29.7V20.84a7,7,0,0,0-2.52-5.4l-2.31-1.95,1.78-1.55ZM13.57,4.7a3.51,3.51,0,0,1,3.64-2.36H39.79a3.51,3.51,0,0,1,3.65,2.4l3.72,8.45-2.67,2.36h-32L9.84,13.19ZM12.19,37.18a.61.61,0,0,1-.6.6H6.87a.6.6,0,0,1-.6-.6V34h5.92Zm38.75,0a.6.6,0,0,1-.6.6H45.62a.61.61,0,0,1-.6-.6V34H51Zm.24-20a4.72,4.72,0,0,1,1.68,3.62V29.7a2,2,0,0,1-2,2H6.12a2,2,0,0,1-2-2V20.84a4.73,4.73,0,0,1,1.68-3.62L8.41,15l.68.6,2.54,2.25H45.37l2.54-2.25.68-.6Z"/><path id="Path_119" data-name="Path 119" class="cls-1" d="M20.19,24.82a1.18,1.18,0,0,0-.29-1.28L16.36,20.2a1.17,1.17,0,1,0-1.65,1.65s0,0,0,0l1.41,1.33H11a3.72,3.72,0,0,1-3.32-2.55,1.17,1.17,0,0,0-2.22.73c.06.17,1.39,4.15,5.54,4.15H19.1A1.17,1.17,0,0,0,20.19,24.82Z"/><path id="Path_120" data-name="Path 120" class="cls-1" d="M46,23.23H40.83l1.41-1.34a1.17,1.17,0,1,0-1.55-1.74l0,.05L37.1,23.54a1.17,1.17,0,0,0-.05,1.65,1.19,1.19,0,0,0,.85.37H46c4.15,0,5.48-4,5.54-4.15a1.17,1.17,0,0,0-2.22-.73A3.72,3.72,0,0,1,46,23.23Z"/></g></g></g></svg>