<svg xmlns="http://www.w3.org/2000/svg" viewBox="0 0 161.86 141.21"><defs><style>.cls-1{fill:#fff;}</style></defs><g id="圖層_2" data-name="圖層 2"><g id="館內導覽"><g id="Group_110" data-name="Group 110"><path id="Path_129" data-name="Path 129" class="cls-1" d="M83.47,141a1.66,1.66,0,0,1-1.66-1.66h0V4.8L58.25,13.69V139.32A1.66,1.66,0,0,1,56.59,141h0a1.66,1.66,0,0,1-1.66-1.66V11.4L85.13,0V139.32A1.66,1.66,0,0,1,83.47,141Z"/><path id="Path_130" data-name="Path 130" class="cls-1" d="M114.91,141a1.66,1.66,0,0,1-1.66-1.66h0V16.4L84.56,3.4a1.66,1.66,0,0,1-.83-2.2h0a1.66,1.66,0,0,1,2.2-.83h0l30.64,13.88V139.31a1.65,1.65,0,0,1-1.65,1.67Z"/><path id="Path_131" data-name="Path 131" class="cls-1" d="M9.68,140A1.66,1.66,0,0,1,8,138.31V65.14H56.59a1.66,1.66,0,0,1,1.66,1.66h0a1.66,1.66,0,0,1-1.66,1.66H11.34v69.85A1.66,1.66,0,0,1,9.68,140Z"/><path id="Path_132" data-name="Path 132" class="cls-1" d="M127.33,141a1.65,1.65,0,0,1-1.65-1.66V52.23H114.91a1.66,1.66,0,1,1,0-3.31H129v90.4A1.66,1.66,0,0,1,127.33,141Z"/><path id="Path_133" data-name="Path 133" class="cls-1" d="M151.42,138.7a1.67,1.67,0,0,1-1.66-1.66V65.93L128,52a1.66,1.66,0,1,1,1.8-2.79h0l23.33,14.94V137a1.66,1.66,0,0,1-1.66,1.66Z"/><path id="Path_134" data-name="Path 134" class="cls-1" d="M159.79,141.21H2.07a2.08,2.08,0,0,1,0-4.15H159.79a2.08,2.08,0,0,1,0,4.15Z"/><path id="Rectangle_116" data-name="Rectangle 116" class="cls-1" d="M65.27,17.86h0a2.41,2.41,0,0,1,2.41,2.41v4.82a2.41,2.41,0,0,1-2.41,2.41h0a2.41,2.41,0,0,1-2.41-2.41V20.27A2.41,2.41,0,0,1,65.27,17.86Z"/><path id="Rectangle_117" data-name="Rectangle 117" class="cls-1" d="M65.27,35.36h0a2.41,2.41,0,0,1,2.41,2.41v4.82A2.4,2.4,0,0,1,65.27,45h0a2.4,2.4,0,0,1-2.41-2.4V37.77A2.41,2.41,0,0,1,65.27,35.36Z"/><path id="Rectangle_118" data-name="Rectangle 118" class="cls-1" d="M65.27,52.85h0a2.41,2.41,0,0,1,2.41,2.41v4.82a2.41,2.41,0,0,1-2.41,2.41h0a2.41,2.41,0,0,1-2.41-2.41V55.26A2.41,2.41,0,0,1,65.27,52.85Z"/><path id="Rectangle_119" data-name="Rectangle 119" class="cls-1" d="M65.27,70.35h0a2.41,2.41,0,0,1,2.41,2.41v4.82A2.41,2.41,0,0,1,65.27,80h0a2.41,2.41,0,0,1-2.41-2.41V72.76A2.41,2.41,0,0,1,65.27,70.35Z"/><path id="Rectangle_120" data-name="Rectangle 120" class="cls-1" d="M65.27,87.25h0a2.41,2.41,0,0,1,2.41,2.41v4.81a2.4,2.4,0,0,1-2.41,2.41h0a2.4,2.4,0,0,1-2.41-2.41V89.66A2.41,2.41,0,0,1,65.27,87.25Z"/><path id="Rectangle_121" data-name="Rectangle 121" class="cls-1" d="M65.27,104.74h0a2.41,2.41,0,0,1,2.41,2.41V112a2.41,2.41,0,0,1-2.41,2.41h0A2.41,2.41,0,0,1,62.86,112v-4.82A2.41,2.41,0,0,1,65.27,104.74Z"/><path id="Rectangle_122" data-name="Rectangle 122" class="cls-1" d="M65.27,122.24h0a2.41,2.41,0,0,1,2.41,2.41v4.82a2.41,2.41,0,0,1-2.41,2.41h0a2.41,2.41,0,0,1-2.41-2.41v-4.82A2.41,2.41,0,0,1,65.27,122.24Z"/><path id="Rectangle_123" data-name="Rectangle 123" class="cls-1" d="M75.68,14.75h0a2.41,2.41,0,0,1,2.41,2.41V22a2.41,2.41,0,0,1-2.41,2.41h0A2.41,2.41,0,0,1,73.27,22V17.16A2.41,2.41,0,0,1,75.68,14.75Z"/><path id="Rectangle_124" data-name="Rectangle 124" class="cls-1" d="M75.68,32.25h0a2.41,2.41,0,0,1,2.41,2.41v4.81a2.41,2.41,0,0,1-2.41,2.41h0a2.41,2.41,0,0,1-2.41-2.41V34.66A2.41,2.41,0,0,1,75.68,32.25Z"/><path id="Rectangle_125" data-name="Rectangle 125" class="cls-1" d="M75.68,49.74h0a2.41,2.41,0,0,1,2.41,2.41V57a2.41,2.41,0,0,1-2.41,2.41h0A2.41,2.41,0,0,1,73.27,57V52.15A2.41,2.41,0,0,1,75.68,49.74Z"/><path id="Rectangle_126" data-name="Rectangle 126" class="cls-1" d="M75.68,67.24h0a2.41,2.41,0,0,1,2.41,2.41v4.82a2.41,2.41,0,0,1-2.41,2.41h0a2.41,2.41,0,0,1-2.41-2.41V69.65A2.41,2.41,0,0,1,75.68,67.24Z"/><path id="Rectangle_127" data-name="Rectangle 127" class="cls-1" d="M75.68,84.14h0a2.4,2.4,0,0,1,2.41,2.4v4.82a2.41,2.41,0,0,1-2.41,2.41h0a2.41,2.41,0,0,1-2.41-2.41V86.54A2.4,2.4,0,0,1,75.68,84.14Z"/><path id="Rectangle_128" data-name="Rectangle 128" class="cls-1" d="M75.68,101.63h0A2.41,2.41,0,0,1,78.09,104v4.82a2.41,2.41,0,0,1-2.41,2.41h0a2.41,2.41,0,0,1-2.41-2.41V104A2.41,2.41,0,0,1,75.68,101.63Z"/><path id="Rectangle_129" data-name="Rectangle 129" class="cls-1" d="M75.68,119.13h0a2.41,2.41,0,0,1,2.41,2.41v4.81a2.4,2.4,0,0,1-2.41,2.41h0a2.4,2.4,0,0,1-2.41-2.41v-4.81A2.41,2.41,0,0,1,75.68,119.13Z"/><path id="Rectangle_130" data-name="Rectangle 130" class="cls-1" d="M91.77,13.09h0a2.41,2.41,0,0,1,2.41,2.41v4.82a2.41,2.41,0,0,1-2.41,2.41h0a2.41,2.41,0,0,1-2.41-2.41V15.5A2.41,2.41,0,0,1,91.77,13.09Z"/><path id="Rectangle_131" data-name="Rectangle 131" class="cls-1" d="M91.77,30.59h0A2.41,2.41,0,0,1,94.18,33v4.82a2.4,2.4,0,0,1-2.41,2.4h0a2.4,2.4,0,0,1-2.41-2.4V33A2.41,2.41,0,0,1,91.77,30.59Z"/><path id="Rectangle_132" data-name="Rectangle 132" class="cls-1" d="M91.77,48.08h0a2.41,2.41,0,0,1,2.41,2.41v4.82a2.41,2.41,0,0,1-2.41,2.41h0a2.41,2.41,0,0,1-2.41-2.41V50.49A2.41,2.41,0,0,1,91.77,48.08Z"/><path id="Rectangle_133" data-name="Rectangle 133" class="cls-1" d="M91.77,65.58h0A2.41,2.41,0,0,1,94.18,68v4.82a2.41,2.41,0,0,1-2.41,2.41h0a2.41,2.41,0,0,1-2.41-2.41V68A2.41,2.41,0,0,1,91.77,65.58Z"/><path id="Rectangle_134" data-name="Rectangle 134" class="cls-1" d="M91.77,82.48h0a2.41,2.41,0,0,1,2.41,2.41V89.7a2.4,2.4,0,0,1-2.41,2.41h0a2.4,2.4,0,0,1-2.41-2.41V84.89A2.41,2.41,0,0,1,91.77,82.48Z"/><path id="Rectangle_135" data-name="Rectangle 135" class="cls-1" d="M91.77,100h0a2.41,2.41,0,0,1,2.41,2.41v4.82a2.41,2.41,0,0,1-2.41,2.41h0a2.41,2.41,0,0,1-2.41-2.41v-4.82A2.41,2.41,0,0,1,91.77,100Z"/><path id="Rectangle_136" data-name="Rectangle 136" class="cls-1" d="M91.77,117.47h0a2.41,2.41,0,0,1,2.41,2.41v4.82a2.41,2.41,0,0,1-2.41,2.41h0a2.41,2.41,0,0,1-2.41-2.41v-4.82A2.41,2.41,0,0,1,91.77,117.47Z"/><path id="Rectangle_137" data-name="Rectangle 137" class="cls-1" d="M99.18,15.53h0a2.41,2.41,0,0,1,2.41,2.41v4.82a2.4,2.4,0,0,1-2.41,2.4h0a2.4,2.4,0,0,1-2.41-2.4V17.94A2.41,2.41,0,0,1,99.18,15.53Z"/><path id="Rectangle_138" data-name="Rectangle 138" class="cls-1" d="M99.18,33h0a2.41,2.41,0,0,1,2.41,2.41v4.82a2.41,2.41,0,0,1-2.41,2.41h0a2.41,2.41,0,0,1-2.41-2.41V35.43A2.41,2.41,0,0,1,99.18,33Z"/><path id="Rectangle_139" data-name="Rectangle 139" class="cls-1" d="M99.18,50.52h0a2.41,2.41,0,0,1,2.41,2.41v4.82a2.41,2.41,0,0,1-2.41,2.41h0a2.41,2.41,0,0,1-2.41-2.41V52.93A2.41,2.41,0,0,1,99.18,50.52Z"/><path id="Rectangle_140" data-name="Rectangle 140" class="cls-1" d="M99.18,68h0a2.41,2.41,0,0,1,2.41,2.41v4.81a2.41,2.41,0,0,1-2.41,2.41h0a2.41,2.41,0,0,1-2.41-2.41V70.43A2.41,2.41,0,0,1,99.18,68Z"/><path id="Rectangle_141" data-name="Rectangle 141" class="cls-1" d="M99.18,84.91h0a2.41,2.41,0,0,1,2.41,2.41v4.82a2.41,2.41,0,0,1-2.41,2.41h0a2.41,2.41,0,0,1-2.41-2.41V87.32A2.41,2.41,0,0,1,99.18,84.91Z"/><path id="Rectangle_142" data-name="Rectangle 142" class="cls-1" d="M99.18,102.41h0a2.41,2.41,0,0,1,2.41,2.41v4.82a2.4,2.4,0,0,1-2.41,2.4h0a2.4,2.4,0,0,1-2.41-2.4v-4.82A2.41,2.41,0,0,1,99.18,102.41Z"/><path id="Rectangle_143" data-name="Rectangle 143" class="cls-1" d="M99.18,119.91h0a2.4,2.4,0,0,1,2.41,2.4v4.82a2.41,2.41,0,0,1-2.41,2.41h0a2.41,2.41,0,0,1-2.41-2.41v-4.82A2.4,2.4,0,0,1,99.18,119.91Z"/><path id="Rectangle_144" data-name="Rectangle 144" class="cls-1" d="M107,18.4h0a2.41,2.41,0,0,1,2.41,2.41v4.82A2.41,2.41,0,0,1,107,28h0a2.41,2.41,0,0,1-2.41-2.41V20.81A2.41,2.41,0,0,1,107,18.4Z"/><path id="Rectangle_145" data-name="Rectangle 145" class="cls-1" d="M107,35.9h0a2.41,2.41,0,0,1,2.41,2.41v4.82A2.41,2.41,0,0,1,107,45.54h0a2.41,2.41,0,0,1-2.41-2.41V38.31A2.41,2.41,0,0,1,107,35.9Z"/><path id="Rectangle_146" data-name="Rectangle 146" class="cls-1" d="M107,53.4h0a2.4,2.4,0,0,1,2.41,2.4v4.82A2.41,2.41,0,0,1,107,63h0a2.41,2.41,0,0,1-2.41-2.41V55.8A2.4,2.4,0,0,1,107,53.4Z"/><path id="Rectangle_147" data-name="Rectangle 147" class="cls-1" d="M107,70.89h0a2.41,2.41,0,0,1,2.41,2.41v4.82A2.41,2.41,0,0,1,107,80.53h0a2.41,2.41,0,0,1-2.41-2.41V73.3A2.41,2.41,0,0,1,107,70.89Z"/><path id="Rectangle_148" data-name="Rectangle 148" class="cls-1" d="M107,87.79h0a2.41,2.41,0,0,1,2.41,2.41V95a2.4,2.4,0,0,1-2.41,2.4h0a2.4,2.4,0,0,1-2.41-2.4V90.2A2.41,2.41,0,0,1,107,87.79Z"/><path id="Rectangle_149" data-name="Rectangle 149" class="cls-1" d="M107,105.28h0a2.41,2.41,0,0,1,2.41,2.41v4.82a2.41,2.41,0,0,1-2.41,2.41h0a2.41,2.41,0,0,1-2.41-2.41v-4.82A2.41,2.41,0,0,1,107,105.28Z"/><path id="Rectangle_150" data-name="Rectangle 150" class="cls-1" d="M107,122.78h0a2.41,2.41,0,0,1,2.41,2.41V130a2.41,2.41,0,0,1-2.41,2.41h0a2.41,2.41,0,0,1-2.41-2.41v-4.82A2.41,2.41,0,0,1,107,122.78Z"/><rect id="Rectangle_151" data-name="Rectangle 151" class="cls-1" x="15.01" y="74.15" width="9.64" height="4.56" rx="2.11"/><rect id="Rectangle_152" data-name="Rectangle 152" class="cls-1" x="28.32" y="74.15" width="9.64" height="4.56" rx="2.11"/><rect id="Rectangle_153" data-name="Rectangle 153" class="cls-1" x="41.62" y="74.15" width="9.64" height="4.56" rx="2.11"/><rect id="Rectangle_154" data-name="Rectangle 154" class="cls-1" x="15.01" y="85.01" width="9.64" height="4.56" rx="2.11"/><rect id="Rectangle_155" data-name="Rectangle 155" class="cls-1" x="28.32" y="85.01" width="9.64" height="4.56" rx="2.11"/><rect id="Rectangle_156" data-name="Rectangle 156" class="cls-1" x="41.62" y="85.01" width="9.64" height="4.56" rx="2.11"/><rect id="Rectangle_157" data-name="Rectangle 157" class="cls-1" x="15.01" y="95.87" width="9.64" height="4.56" rx="2.11"/><rect id="Rectangle_158" data-name="Rectangle 158" class="cls-1" x="28.32" y="95.87" width="9.64" height="4.56" rx="2.11"/><rect id="Rectangle_159" data-name="Rectangle 159" class="cls-1" x="41.62" y="95.87" width="9.64" height="4.56" rx="2.11"/><rect id="Rectangle_160" data-name="Rectangle 160" class="cls-1" x="15.01" y="106.73" width="9.64" height="4.56" rx="2.11"/><rect id="Rectangle_161" data-name="Rectangle 161" class="cls-1" x="28.32" y="106.73" width="9.64" height="4.56" rx="2.11"/><rect id="Rectangle_162" data-name="Rectangle 162" class="cls-1" x="41.62" y="106.73" width="9.64" height="4.56" rx="2.11"/><rect id="Rectangle_163" data-name="Rectangle 163" class="cls-1" x="15.01" y="117.01" width="9.64" height="4.56" rx="2.11"/><rect id="Rectangle_164" data-name="Rectangle 164" class="cls-1" x="28.32" y="117.01" width="9.64" height="4.56" rx="2.11"/><rect id="Rectangle_165" data-name="Rectangle 165" class="cls-1" x="41.62" y="117.01" width="9.64" height="4.56" rx="2.11"/><rect id="Rectangle_166" data-name="Rectangle 166" class="cls-1" x="15.01" y="127.87" width="9.64" height="4.56" rx="2.11"/><rect id="Rectangle_167" data-name="Rectangle 167" class="cls-1" x="28.32" y="127.87" width="9.64" height="4.56" rx="2.11"/><rect id="Rectangle_168" data-name="Rectangle 168" class="cls-1" x="41.62" y="127.87" width="9.64" height="4.56" rx="2.11"/><path id="Rectangle_169" data-name="Rectangle 169" class="cls-1" d="M136.08,63.2h0a2.41,2.41,0,0,1,2.41,2.41v4.82a2.4,2.4,0,0,1-2.41,2.4h0a2.4,2.4,0,0,1-2.41-2.4V65.61A2.41,2.41,0,0,1,136.08,63.2Z"/><path id="Rectangle_170" data-name="Rectangle 170" class="cls-1" d="M136.08,75.17h0a2.41,2.41,0,0,1,2.41,2.41V82.4a2.4,2.4,0,0,1-2.41,2.4h0a2.4,2.4,0,0,1-2.41-2.4V77.58A2.41,2.41,0,0,1,136.08,75.17Z"/><path id="Rectangle_171" data-name="Rectangle 171" class="cls-1" d="M136.08,86.08h0a2.41,2.41,0,0,1,2.41,2.41v4.82a2.41,2.41,0,0,1-2.41,2.41h0a2.41,2.41,0,0,1-2.41-2.41V88.49A2.41,2.41,0,0,1,136.08,86.08Z"/><path id="Rectangle_172" data-name="Rectangle 172" class="cls-1" d="M136.08,98.05h0a2.41,2.41,0,0,1,2.41,2.41v4.82a2.41,2.41,0,0,1-2.41,2.41h0a2.41,2.41,0,0,1-2.41-2.41v-4.82A2.41,2.41,0,0,1,136.08,98.05Z"/><path id="Rectangle_173" data-name="Rectangle 173" class="cls-1" d="M136.08,109.1h0a2.41,2.41,0,0,1,2.41,2.41v4.82a2.41,2.41,0,0,1-2.41,2.41h0a2.41,2.41,0,0,1-2.41-2.41v-4.82A2.41,2.41,0,0,1,136.08,109.1Z"/><path id="Rectangle_174" data-name="Rectangle 174" class="cls-1" d="M136.08,121.07h0a2.41,2.41,0,0,1,2.41,2.41v4.82a2.41,2.41,0,0,1-2.41,2.41h0a2.41,2.41,0,0,1-2.41-2.41v-4.82A2.41,2.41,0,0,1,136.08,121.07Z"/><path id="Rectangle_175" data-name="Rectangle 175" class="cls-1" d="M144.07,67h0a2.4,2.4,0,0,1,2.41,2.4v4.82a2.41,2.41,0,0,1-2.41,2.41h0a2.41,2.41,0,0,1-2.41-2.41V69.4A2.4,2.4,0,0,1,144.07,67Z"/><path id="Rectangle_176" data-name="Rectangle 176" class="cls-1" d="M144.07,79h0a2.4,2.4,0,0,1,2.41,2.4v4.82a2.41,2.41,0,0,1-2.41,2.41h0a2.41,2.41,0,0,1-2.41-2.41V81.37A2.4,2.4,0,0,1,144.07,79Z"/><path id="Rectangle_177" data-name="Rectangle 177" class="cls-1" d="M144.07,89.88h0a2.41,2.41,0,0,1,2.41,2.41V97.1a2.41,2.41,0,0,1-2.41,2.41h0a2.41,2.41,0,0,1-2.41-2.41V92.29A2.41,2.41,0,0,1,144.07,89.88Z"/><path id="Rectangle_178" data-name="Rectangle 178" class="cls-1" d="M144.07,101.85h0a2.41,2.41,0,0,1,2.41,2.41v4.81a2.41,2.41,0,0,1-2.41,2.41h0a2.41,2.41,0,0,1-2.41-2.41v-4.81A2.41,2.41,0,0,1,144.07,101.85Z"/><path id="Rectangle_179" data-name="Rectangle 179" class="cls-1" d="M144.07,112.9h0a2.41,2.41,0,0,1,2.41,2.41v4.82a2.41,2.41,0,0,1-2.41,2.41h0a2.41,2.41,0,0,1-2.41-2.41v-4.82A2.41,2.41,0,0,1,144.07,112.9Z"/><path id="Rectangle_180" data-name="Rectangle 180" class="cls-1" d="M144.07,124.87h0a2.41,2.41,0,0,1,2.41,2.41v4.82a2.41,2.41,0,0,1-2.41,2.41h0a2.41,2.41,0,0,1-2.41-2.41v-4.82A2.41,2.41,0,0,1,144.07,124.87Z"/></g></g></g></svg>