<svg xmlns="http://www.w3.org/2000/svg" viewBox="0 0 53.25 59.99"><defs><style>.cls-1{fill:#bebebe;fill-rule:evenodd;}</style></defs><g id="圖層_2" data-name="圖層 2"><g id="探索之旅"><g id="Group_107" data-name="Group 107"><path id="Path_123" data-name="Path 123" class="cls-1" d="M14.77,53.45A26.41,26.41,0,0,1,11.2,8.16l-.1,2.31a24.61,24.61,0,0,0,3.71,41Zm17.42,2.19a27,27,0,0,1-11.43-.07l0-1.82a25.21,25.21,0,0,0,11.3.08ZM40.81,7.33a26.43,26.43,0,0,1-2.16,46c0-.69,0-1.35-.08-2a24.62,24.62,0,0,0,3.17-41.24q-.43-1.5-.93-2.82ZM26.63,3.26a27.28,27.28,0,0,1,5.17.5l0,1.81A25.31,25.31,0,0,0,26.63,5c-.69,0-1.36,0-2,.09l-.18-1.78c.72-.06,1.46-.09,2.21-.09Z"/><path id="Path_124" data-name="Path 124" class="cls-1" d="M23.8,3.18c0-.2-.13-.66-.36-.75-.06,0-.26-.1-.32-.05s-.07.63-.07.77V21.87a2.14,2.14,0,0,1-.62,1.48,2.17,2.17,0,0,1-3.07,0h0a2.1,2.1,0,0,1-.62-1.48V2.66a.29.29,0,0,0-.21-.3.75.75,0,0,0-.26,0,.9.9,0,0,0-.28,0,.32.32,0,0,0-.24.28V21.87a2.11,2.11,0,0,1-.61,1.48,2.19,2.19,0,0,1-1.54.64h-.08a2.17,2.17,0,0,1-1.46-.63,2.11,2.11,0,0,1-.62-1.45V3.15a2.43,2.43,0,0,0,0-.66c0-.06-.18-.08-.25-.08-.37,0-.46.5-.51.76L11.4,21.44a.13.13,0,0,1,0,.06c-.26,1.84.49,2.61,1.81,3.74A13.56,13.56,0,0,1,15,27a10.81,10.81,0,0,1,1.42,2.23,4.55,4.55,0,0,1,.52,2.05L15.83,55.28v.1a2.47,2.47,0,0,0,1,2.51,2.12,2.12,0,0,0,1,.26,2.24,2.24,0,0,0,1.05-.26,2.42,2.42,0,0,0,1.15-2.46v0L19.6,31.22a4.85,4.85,0,0,1,.5-2,10.14,10.14,0,0,1,1.33-2.15,13.27,13.27,0,0,1,1.85-1.82c1.31-1.12,2.07-1.89,1.81-3.72a.28.28,0,0,1,0-.09ZM27,21.29a4.71,4.71,0,0,1-.83,3.76,11.3,11.3,0,0,1-1.6,1.57A11.8,11.8,0,0,0,23,28.18,8.52,8.52,0,0,0,21.86,30a3.2,3.2,0,0,0-.35,1.25L22,55.31a4.16,4.16,0,0,1-2.14,4.2,4.31,4.31,0,0,1-2,.48,4,4,0,0,1-2-.5,4.18,4.18,0,0,1-2-4.26v0l1.07-24a3,3,0,0,0-.36-1.23,8.78,8.78,0,0,0-1.16-1.84,12.66,12.66,0,0,0-1.54-1.48,11.23,11.23,0,0,1-1.6-1.56A4.72,4.72,0,0,1,9.5,21.3L10.78,3s0-.06,0-.09A2.63,2.63,0,0,1,12.33.73a2.32,2.32,0,0,1,1-.14A2.53,2.53,0,0,1,14.2.8a1.77,1.77,0,0,1,1.15,1.39V21.9a.34.34,0,0,0,.09.19.21.21,0,0,0,.13.07h0a.21.21,0,0,0,.15-.07.28.28,0,0,0,.08-.21V2.65a2.09,2.09,0,0,1,1.52-2,3.11,3.11,0,0,1,.91-.16,2.62,2.62,0,0,1,.92.16,2.06,2.06,0,0,1,1.48,2V21.88a.3.3,0,0,0,.08.21.21.21,0,0,0,.3,0h0a.27.27,0,0,0,.09-.21V2.21a.55.55,0,0,1,0-.18A1.85,1.85,0,0,1,22.29.8a2.79,2.79,0,0,1,.86-.22,2.48,2.48,0,0,1,1,.15A2.61,2.61,0,0,1,25.7,3s0,0,0,.07Z"/><path id="Path_125" data-name="Path 125" class="cls-1" d="M32.39,1.88c-.13,0-.29,0-.44,0,0,.14,0,.29,0,.43v0L32.64,56v.08A1.76,1.76,0,0,0,33.55,58a2.3,2.3,0,0,0,1.06.2,2.75,2.75,0,0,0,1.13-.3,2.36,2.36,0,0,0,1.16-2.47.49.49,0,0,1,0-.12A76.7,76.7,0,0,0,36,46.7a71.65,71.65,0,0,1-1-11.13.92.92,0,0,1,.83-.9h0c1.53-.16,2.83-2.38,3.42-3.55a28.13,28.13,0,0,0,2.54-9.77,26.94,26.94,0,0,0-1.17-11.1c-1.39-3.91-4-7.08-8.18-8.37M32.66.06l.19,0c4.88,1.45,7.92,5,9.53,9.56A28.79,28.79,0,0,1,43.65,21.5a29.94,29.94,0,0,1-2.73,10.42c-.83,1.63-2.2,3.7-4.08,4.37a76.84,76.84,0,0,0,1,10.16,77.92,77.92,0,0,1,.95,8.76,4.08,4.08,0,0,1-2.13,4.24,4.58,4.58,0,0,1-2,.54,4.37,4.37,0,0,1-2-.39,3.5,3.5,0,0,1-2-3.59L30.06,2.32a2.21,2.21,0,0,1,.57-1.9,2.73,2.73,0,0,1,2-.36Z"/><path id="Path_126" data-name="Path 126" class="cls-1" d="M36.87,10.52a1,1,0,0,1,.51-1.29,1,1,0,0,1,1.29.51v0a24.75,24.75,0,0,1,1.78,8.44,30.42,30.42,0,0,1-1,9.16,1,1,0,0,1-1.9-.51,28.48,28.48,0,0,0,1-8.57,23.07,23.07,0,0,0-1.63-7.78"/></g></g></g></svg>