<?xml version="1.0" encoding="utf-8"?>
<!-- Generator: Adobe Illustrator 25.0.0, SVG Export Plug-In . SVG Version: 6.00 Build 0)  -->
<svg version="1.1" id="圖層_1" xmlns="http://www.w3.org/2000/svg" xmlns:xlink="http://www.w3.org/1999/xlink" x="0px" y="0px"
	 viewBox="0 0 53.5 60.3" style="enable-background:new 0 0 53.5 60.3;" xml:space="preserve">
<style type="text/css">
	.st0{fill:#1152A0;}
</style>
<g>
	<path class="st0" d="M53,24.4C51.6,17.7,47.7,11.9,42,8c-1.9-4-4.9-6.7-8.9-7.9l0,0l-0.2,0c-0.7-0.1-1.5,0-2.1,0.4l0,0
		c-0.5,0.5-0.7,1.3-0.6,2l0,1c-1-0.1-2.1-0.2-3.1-0.2l0,0h-0.3c-0.2,0-0.4,0-0.6,0c-0.1,0-0.2,0-0.2,0l0-0.1c0-1-0.7-2-1.6-2.4
		c-0.3-0.1-0.7-0.2-1.1-0.2c-0.3,0-0.6,0.1-0.9,0.2c-0.6,0.2-1.1,0.7-1.3,1.3c0,0.1,0,0.1,0,0.2v19.7c0,0,0,0.1-0.1,0.1
		c0,0,0,0-0.1,0c0,0,0,0-0.1,0c0,0,0-0.1,0-0.1V2.8c0-1-0.6-1.8-1.6-2.1c-0.3-0.1-0.6-0.2-1-0.2c-0.3,0-0.6,0.1-0.9,0.2
		c-0.9,0.3-1.6,1.1-1.6,2.1v19.2c0,0,0,0.1,0,0.1c0,0,0,0,0,0c0,0,0,0-0.1,0c0,0-0.1-0.1-0.1-0.1l0-19.7c-0.1-0.7-0.6-1.3-1.2-1.5
		c-0.3-0.1-0.6-0.2-0.9-0.2c-0.4,0-0.7,0-1.1,0.2c-0.9,0.4-1.5,1.3-1.6,2.3l0,0.1l-0.4,5.7c-3.2,2.5-5.9,5.7-7.7,9.3
		c-3.1,6.2-3.6,13.3-1.4,19.9C3.5,44.6,8,50,14.1,53.3L14,55.4c-0.3,1.8,0.5,3.5,2.1,4.4c0.6,0.3,1.3,0.5,2,0.5c0,0,0.1,0,0.1,0
		c0.7,0,1.4-0.2,2-0.5c1.3-0.7,2.2-2.1,2.2-3.7c2.8,0.5,5.6,0.5,8.4,0.1c-0.2,1.5,0.7,3,2.1,3.7c0.6,0.3,1.2,0.4,1.9,0.4
		c0.1,0,0.1,0,0.2,0c0.7,0,1.4-0.2,2.1-0.6c1.6-0.8,2.5-2.6,2.2-4.4c0-0.5-0.1-1.1-0.1-1.8c4.3-2.2,7.9-5.5,10.5-9.6
		C53.2,38.2,54.4,31.2,53,24.4z M43.2,11.5c2.2,1.9,4,4.2,5.4,6.7c6.4,11.8,2,26.7-9.8,33.2c-0.2-1.6-0.4-3.2-0.6-4.7
		c-0.6-3.3-0.9-6.7-1-10.1c1.9-0.7,3.2-2.8,4.1-4.4c1.5-3.3,2.5-6.8,2.7-10.5C44.3,18.2,44.1,14.8,43.2,11.5z M33.8,58.1
		c-0.6-0.3-1-1.1-0.8-1.8L32.3,2.5V2.2h0.3c3.8,1.2,6.6,4,8.1,8.3c1.2,3.6,1.6,7.3,1.2,11.1c-0.2,3.4-1.1,6.7-2.5,9.7
		c-0.6,1.2-1.9,3.3-3.3,3.5c-0.5,0.1-0.9,0.5-0.9,1c0,3.7,0.4,7.5,1,11.1c0.5,2.8,0.8,5.7,0.9,8.6c0,0,0,0.1,0,0.2
		c0.2,0.9-0.3,1.9-1.1,2.3c-0.3,0.2-0.7,0.3-1.1,0.3C34.5,58.3,34.1,58.2,33.8,58.1z M16.2,55.6l1.1-24.1c0-0.7-0.2-1.5-0.5-2.1
		c-0.4-0.8-0.9-1.6-1.4-2.3c-0.5-0.6-1.2-1.2-1.8-1.8c-1.3-1.1-2-1.8-1.8-3.6c0,0,0-0.1,0-0.1L13,3.4c0.1-0.3,0.2-0.6,0.4-0.6
		c0,0,0.1,0,0.1,0c0,0.2,0,0.4,0,0.6v18.8c0,0.6,0.2,1.1,0.7,1.5c0.4,0.4,1,0.6,1.5,0.7h0.1c0.6,0,1.2-0.2,1.6-0.7
		c0.4-0.4,0.6-1,0.6-1.6l0-19.2c0-0.1,0.1-0.2,0.1-0.2c0.1,0,0.2,0,0.2,0l0,0l0,0c0.1,0,0.1,0,0.2,0c0.1,0,0.1,0.1,0.1,0.2V22
		c0,0.6,0.2,1.1,0.7,1.6l0,0c0.4,0.4,1,0.7,1.6,0.7c0,0,0,0,0,0c0.6,0,1.2-0.2,1.6-0.7c0.4-0.4,0.6-1,0.7-1.6V3.3c0-0.2,0-0.5,0-0.7
		c0,0,0.1,0,0.1,0c0,0,0.1,0,0.1,0c0.1,0.1,0.3,0.4,0.3,0.6l1.3,18.2c0,0,0,0.1,0,0.1c0.3,1.8-0.5,2.5-1.8,3.6
		c-0.7,0.5-1.3,1.2-1.9,1.8c-0.5,0.7-1,1.4-1.3,2.2c-0.3,0.6-0.5,1.3-0.5,2.1l0.4,24.2l0,0c0.1,0.9-0.3,1.8-1.1,2.3
		c-0.3,0.2-0.6,0.2-1,0.2c-0.3,0-0.7-0.1-0.9-0.2C16.4,57.4,16,56.5,16.2,55.6z M10.4,25.4c0.5,0.6,1,1.1,1.6,1.6
		c0.5,0.4,1.1,0.9,1.5,1.5c0.5,0.6,0.8,1.2,1.1,1.8c0.2,0.4,0.3,0.8,0.3,1.2L14.2,51c-2.6-1.6-4.9-3.5-6.7-5.8
		C-0.7,35,0.6,20.3,10.3,11.7l-0.7,9.8C9.3,22.8,9.6,24.2,10.4,25.4z M22.2,30.2c0.3-0.6,0.7-1.2,1.1-1.8c0.5-0.6,1-1.1,1.6-1.5
		c0.6-0.5,1.1-1,1.6-1.6c0.8-1.1,1.1-2.5,0.9-3.8L26.2,5.3c0.2,0,0.4,0,0.7,0c1.1,0,2.2,0.1,3.3,0.3l0.5,48.6
		c-2.8,0.4-5.6,0.4-8.4-0.1l-0.5-22.6C21.9,31,22,30.6,22.2,30.2z"/>
	<path class="st0" d="M37,10.9L37,10.9c1,2.4,1.5,4.9,1.6,7.5c0.1,2.9-0.2,5.7-1,8.6c0,0.5,0.2,0.9,0.6,1.1c0.2,0.1,0.3,0.1,0.5,0.1
		c0.4,0,0.8-0.2,1-0.7c0.8-3,1.1-6.1,1-9.2c-0.1-2.9-0.7-5.8-1.8-8.5c-0.2-0.6-0.9-0.8-1.5-0.6c-0.6,0.3-0.8,0.9-0.6,1.5L37,10.9z"
		/>
</g>
</svg>
