<?xml version="1.0" encoding="utf-8"?>
<!-- Generator: Adobe Illustrator 25.0.0, SVG Export Plug-In . SVG Version: 6.00 Build 0)  -->
<svg version="1.1" id="圖層_1" xmlns="http://www.w3.org/2000/svg" xmlns:xlink="http://www.w3.org/1999/xlink" x="0px" y="0px"
	 viewBox="0 0 55.5 40" style="enable-background:new 0 0 55.5 40;" xml:space="preserve">
<style type="text/css">
	.st0{fill:#1152A0;}
</style>
<path class="st0" d="M48.9,0.2H6.7c-3.6,0-6.5,2.8-6.5,6.5v26.7c0,3.6,2.9,6.4,6.5,6.4h42.2c3.6,0,6.4-2.9,6.4-6.4V6.7
	C55.3,3.1,52.5,0.2,48.9,0.2z M6.7,2.8h42.2c0.3,0,0.5,0,0.8,0.1L27.6,22.4L6,2.8C6.2,2.8,6.5,2.8,6.7,2.8z M52.8,33.4
	c0,2.2-1.8,3.9-3.9,3.9H6.7c-2.2,0-4-1.8-4-3.9V6.7c0-1,0.4-1.9,1-2.6l23.9,21.7L51.9,4.2c0.6,0.7,0.9,1.6,0.9,2.5V33.4z"/>
</svg>
