<?xml version="1.0" encoding="utf-8"?>
<!-- Generator: Adobe Illustrator 25.0.0, SVG Export Plug-In . SVG Version: 6.00 Build 0)  -->
<svg version="1.1" id="圖層_1" xmlns="http://www.w3.org/2000/svg" xmlns:xlink="http://www.w3.org/1999/xlink" x="0px" y="0px"
	 viewBox="0 0 1366 200" style="enable-background:new 0 0 1366 200;" xml:space="preserve">
<style type="text/css">
	.st0{fill:none;}
	.st1{fill:#1059B1;}
	.st2{fill:#0B427B;}
</style>
<rect x="-0.5" y="0.5" class="st0" width="1366" height="284.5"/>
<path id="Path_191" class="st1" d="M-131.2,36.2c0-3.5,78.4-3.7,82.5-3.6c47.7,0.5,95,8,142.6,10.6c71.7,3.9,140.3-12.4,210.9-21.5
	c69.7-9,140.3-12.9,210.4-6.7C604.9,22.8,694.6,38,785,34.2c83.5-3.5,163.9-27.4,247.9-26.7c95.2,0.8,161.3,32.1,233.4,36.3
	C1308.5,46.2,1366,33,1366,33v266.7H-131.2C-131.2,299.7-131.2,36.2-131.2,36.2z"/>
<path id="Path_142" class="st2" d="M0,67.2c0-2.3,56.8-1.1,59.5-1c46.1,1.5,94.3,6.6,141.2,7.3c48,0.7,94.7-5.8,142.1-13.2
	C427.7,47,514,45.6,599.6,50.7c58,3.4,115.1,15.4,173.2,17c78.3,2.1,152.6-23.2,229.8-27.5c47.7-2.6,95.4,3.8,141.7,15.2
	c42.8,10.6,83.4,29.6,127.8,32.3c38.5,2.4,93.8-23.7,93.8-23.7v266.7H0C0,330.7,0,67.2,0,67.2z"/>
</svg>
