<svg xmlns="http://www.w3.org/2000/svg" viewBox="0 0 59.38 61.44"><defs><style>.cls-1{fill:#08448f;}</style></defs><g id="圖層_2" data-name="圖層 2"><g id="首頁"><g id="Group_131" data-name="Group 131"><path id="Path_189" data-name="Path 189" class="cls-1" d="M30.44,44.88c1.12.91,2.26,1.82,3.38,2.76C37.75,50.92,42.08,52,47,50.11a5.32,5.32,0,0,0,1-.6,2.11,2.11,0,0,0,.39-.45c.24-8.36-4.7-12.4-10.7-13.19a89.74,89.74,0,0,1-20.63-5.28c-5.67-2.19-10.9-5.1-15-9.73A34.65,34.65,0,0,1,0,18c2.15-4.16,5.34-7.07,8.73-9.69a27.45,27.45,0,0,1,23.2-5.56,7,7,0,0,0,4.3-.61C44.56-2.17,51.82.57,57.45,5.81a13.81,13.81,0,0,1,1.93,2.8c-1,2.39-2.54,2.07-4.05,1.9-3.48-.37-3.84-.3-5.71.91,2.12,3.61,4.52,7.07,6.28,10.83,3.16,6.75,4,13.87,1.67,21.08-2.69,8.28-8.75,13.25-16.73,16a51.76,51.76,0,0,1-8.16,1.93,6.27,6.27,0,0,1-7.34-4.16C23.79,53.17,26,47.32,30.44,44.88ZM33,8a4.22,4.22,0,0,0-.14,1.11c1.72,7-.72,12.76-5.64,17.69a23.81,23.81,0,0,0-1.7,2.29c4.94,1,9.32,1.87,13.71,2.64a15.51,15.51,0,0,1,12,8.89c.36.75.8,1.46,1.29,2.34C59.08,30.89,47.3,10,33,8ZM26.54,6.81c-7.25-.95-17.86,4.73-20.9,11.36,3.8,4.42,8.88,6.8,14.13,8.65,8.6-4.35,11.72-13.84,6.77-20Zm11.55,49-.15-.68-7.26-3.88c-2,2.45-2,3.14.3,6ZM50.26,5.88C46.56,4.41,43.6,3.48,40,5.7l4.8,2.71Z"/><path id="Path_190" data-name="Path 190" class="cls-1" d="M20.47,13.05c-1.67,2.74-2.73,2.7-4.22,0C17.81,10.56,18.52,10.53,20.47,13.05Z"/></g></g></g></svg>