<svg id="圖層_1" data-name="圖層 1" xmlns="http://www.w3.org/2000/svg" viewBox="0 0 1366.4 330.2"><defs><style>.cls-1{fill:none;}.cls-2{fill:#0b427b;}</style></defs><rect class="cls-1" width="1366" height="284.5"/><path id="Path_142" data-name="Path 142" class="cls-2" d="M0,67.2c0-2.3,56.8-1.1,59.5-1,46.1,1.5,94.3,6.6,141.2,7.3,48,.7,94.7-5.8,142.1-13.2C427.7,47,514,45.6,599.6,50.7c58,3.4,115.1,15.4,173.2,17,78.3,2.1,152.6-23.2,229.8-27.5,47.7-2.6,95.4,3.8,141.7,15.2,42.8,10.6,83.4,29.6,127.8,32.3,38.5,2.4,93.8-23.7,93.8-23.7V330.7H0Z" transform="translate(0.5 -0.5)"/></svg>