<?xml version="1.0" encoding="utf-8"?>
<!-- Generator: Adobe Illustrator 25.0.0, SVG Export Plug-In . SVG Version: 6.00 Build 0)  -->
<svg version="1.1" id="圖層_1" xmlns="http://www.w3.org/2000/svg" xmlns:xlink="http://www.w3.org/1999/xlink" x="0px" y="0px"
	 viewBox="0 0 56.4 48.3" style="enable-background:new 0 0 56.4 48.3;" xml:space="preserve">
<style type="text/css">
	.st0{fill:#BEBEBE;}
</style>
<g>
	<path class="st0" d="M1.2,40.2c-0.2,0-0.3,0-0.5-0.1C0.3,39.9,0,39.5,0,39V4.4C0,2,2,0,4.4,0h35.6c2.4,0,4.3,2,4.3,4.3v24.8
		c0,2.4-2,4.4-4.4,4.4H9.3l-7.2,6.4C1.8,40.1,1.6,40.2,1.2,40.2z M39.9,2.5H4.4c-1,0-1.9,0.8-1.9,1.9v31.9L8,31.3
		C8.2,31.1,8.5,31,8.8,31h31.1c1,0,1.9-0.8,1.9-1.9V4.4C41.7,3.3,40.9,2.5,39.9,2.5z"/>
	<path class="st0" d="M55.2,48.3c-0.3,0-0.6-0.1-0.8-0.3l-7.1-6.4H23.2c-2.4,0-4.4-2-4.4-4.3v-0.9c0-0.7,0.6-1.2,1.2-1.2
		s1.2,0.6,1.2,1.2v0.9c0,1,0.8,1.8,1.9,1.8h24.5c0.3,0,0.6,0.1,0.8,0.3l5.3,4.8V12.4c0-1-0.8-1.9-1.8-1.9h-5c-0.7,0-1.2-0.6-1.2-1.2
		s0.6-1.2,1.2-1.2h5c2.4,0,4.3,2,4.3,4.4v34.6c0,0.5-0.3,0.9-0.7,1.1C55.5,48.3,55.3,48.3,55.2,48.3z"/>
	<path class="st0" d="M25.5,11.9H8c-0.7,0-1.2-0.6-1.2-1.2S7.3,9.4,8,9.4h17.5c0.7,0,1.2,0.6,1.2,1.2S26.2,11.9,25.5,11.9z"/>
	<path class="st0" d="M25.5,17.3H8c-0.7,0-1.2-0.6-1.2-1.2s0.6-1.2,1.2-1.2h17.5c0.7,0,1.2,0.6,1.2,1.2S26.2,17.3,25.5,17.3z"/>
	<path class="st0" d="M17.4,22.7H8c-0.7,0-1.2-0.6-1.2-1.2s0.6-1.2,1.2-1.2h9.4c0.7,0,1.2,0.6,1.2,1.2S18.1,22.7,17.4,22.7z"/>
	<path class="st0" d="M32.7,21.1c-0.7,0-1.2-0.6-1.2-1.2c0-0.2,0-0.4,0-0.6c-0.1-0.8-0.1-1.8,0.7-2.7c0.6-0.6,1.3-0.9,2-1.2
		c0.4-0.2,0.8-0.3,1-0.5c1-0.9,1.2-2.4,0.4-3.5c-0.6-0.8-1.6-1.3-2.5-1.3h0c-0.8,0-1.5,0.4-2,1.1c-0.4,0.5-1.2,0.6-1.8,0.2
		c-0.5-0.4-0.6-1.2-0.2-1.8c1-1.3,2.4-2.1,4-2.1c0,0,0,0,0,0c1.7,0,3.4,0.9,4.5,2.3c1.6,2.1,1.3,5.1-0.7,6.9
		c-0.5,0.5-1.2,0.7-1.8,0.9c-0.4,0.1-0.9,0.3-1,0.5c-0.1,0.2-0.2,0.2-0.1,0.9c0,0.2,0,0.5,0,0.8C34,20.6,33.4,21.1,32.7,21.1z"/>
	<path class="st0" d="M34.7,24.6c0-1.1-0.8-2-1.8-2.1c-0.5-0.1-1,0.1-1.5,0.4c-0.4,0.3-0.7,0.8-0.8,1.3c-0.2,1.1,0.6,2.1,1.7,2.3
		c0.1,0,0.2,0,0.2,0c0.1,0,0.1,0,0.2,0c0.5,0,0.9-0.2,1.3-0.5c0.4-0.3,0.7-0.8,0.7-1.4l0,0C34.7,24.7,34.7,24.6,34.7,24.6z"/>
</g>
</svg>
