<svg xmlns="http://www.w3.org/2000/svg" viewBox="0 0 56.42 48.33"><defs><style>.cls-1{fill:none;}.cls-1,.cls-2{stroke:#bebebe;stroke-linecap:round;stroke-linejoin:round;stroke-width:2.5px;}.cls-2{fill:#bebebe;}</style></defs><g id="圖層_2" data-name="圖層 2"><g id="FAQ"><g id="Group_90" data-name="Group 90"><path id="Path_107" data-name="Path 107" class="cls-1" d="M4.35,1.25H39.93A3.11,3.11,0,0,1,43,4.35h0v24.8a3.12,3.12,0,0,1-3.11,3.11H8.79L1.25,39V4.35a3.1,3.1,0,0,1,3.1-3.1Z"/><path id="Path_108" data-name="Path 108" class="cls-1" d="M20.12,36.3v.94a3.1,3.1,0,0,0,3.1,3.1H47.76l7.41,6.74V12.44a3.1,3.1,0,0,0-3.1-3.1h-5"/><line id="Line_23" data-name="Line 23" class="cls-1" x1="7.99" y1="10.69" x2="25.52" y2="10.69"/><line id="Line_24" data-name="Line 24" class="cls-1" x1="7.99" y1="16.08" x2="25.52" y2="16.08"/><line id="Line_25" data-name="Line 25" class="cls-1" x1="7.99" y1="21.47" x2="17.43" y2="21.47"/><path id="Path_109" data-name="Path 109" class="cls-1" d="M30,10.4c2-2.57,5.08-1.63,6.54.25A3.77,3.77,0,0,1,36,15.79c-.78.7-2.24.8-2.91,1.56s-.39,1.5-.39,2.52"/><path id="Path_110" data-name="Path 110" class="cls-2" d="M32.72,23.74a.78.78,0,1,0-.14,1.55.77.77,0,0,0,.84-.7s0-.05,0-.07A.75.75,0,0,0,32.72,23.74Z"/></g></g></g></svg>