<?xml version="1.0" encoding="utf-8"?>
<!-- Generator: Adobe Illustrator 25.0.0, SVG Export Plug-In . SVG Version: 6.00 Build 0)  -->
<svg version="1.1" id="圖層_1" xmlns="http://www.w3.org/2000/svg" xmlns:xlink="http://www.w3.org/1999/xlink" x="0px" y="0px"
	 viewBox="0 0 56.4 48.3" style="enable-background:new 0 0 56.4 48.3;" xml:space="preserve">
<style type="text/css">
	.st0{fill:none;stroke:#1152A0;stroke-width:2.5;stroke-linecap:round;stroke-linejoin:round;}
	.st1{fill:#1152A0;stroke:#1152A0;stroke-width:2.5;stroke-linecap:round;stroke-linejoin:round;}
</style>
<path id="Path_107" class="st0" d="M4.3,1.2h35.6c1.7,0,3.1,1.4,3.1,3.1l0,0v24.8c0,1.7-1.4,3.1-3.1,3.1H8.8L1.2,39V4.3
	C1.2,2.6,2.6,1.3,4.3,1.2z"/>
<path id="Path_108" class="st0" d="M20.1,36.3v0.9c0,1.7,1.4,3.1,3.1,3.1h24.5l7.4,6.7V12.4c0-1.7-1.4-3.1-3.1-3.1h-5"/>
<line id="Line_23" class="st0" x1="8" y1="10.7" x2="25.5" y2="10.7"/>
<line id="Line_24" class="st0" x1="8" y1="16.1" x2="25.5" y2="16.1"/>
<line id="Line_25" class="st0" x1="8" y1="21.5" x2="17.4" y2="21.5"/>
<path id="Path_109" class="st0" d="M30,10.4c2-2.6,5.1-1.6,6.5,0.2c1.2,1.6,1,3.8-0.5,5.1c-0.8,0.7-2.2,0.8-2.9,1.6
	s-0.4,1.5-0.4,2.5"/>
<path id="Path_110" class="st1" d="M32.7,23.7c-0.4-0.1-0.8,0.2-0.9,0.6c-0.1,0.4,0.2,0.8,0.6,0.9c0,0,0.1,0,0.1,0
	c0.4,0,0.8-0.3,0.8-0.7c0,0,0,0,0,0c0,0,0,0,0-0.1C33.4,24.1,33.1,23.8,32.7,23.7z"/>
</svg>
