<?xml version="1.0" encoding="utf-8"?>
<!-- Generator: Adobe Illustrator 25.0.0, SVG Export Plug-In . SVG Version: 6.00 Build 0)  -->
<svg version="1.1" id="圖層_1" xmlns="http://www.w3.org/2000/svg" xmlns:xlink="http://www.w3.org/1999/xlink" x="0px" y="0px"
	 viewBox="0 0 56.4 48.3" style="enable-background:new 0 0 56.4 48.3;" xml:space="preserve">
<style type="text/css">
	.st0{fill:#1152A0;}
</style>
<g>
	<path class="st0" d="M1.2,40.2c-0.2,0-0.3,0-0.5-0.1C0.2,39.9,0,39.5,0,39V4.3C0,2,1.8,0.1,4.2,0c0,0,0,0,0.1,0h35.6
		c2.4,0,4.3,2,4.3,4.3v24.8c0,2.4-2,4.4-4.3,4.4H9.3L2,39.9C1.8,40.1,1.5,40.2,1.2,40.2z M4.3,2.5C3.3,2.5,2.5,3.3,2.5,4.3v31.9
		L8,31.3C8.2,31.1,8.5,31,8.8,31h31.1c1,0,1.8-0.8,1.8-1.9V4.3c0-1-0.8-1.8-1.8-1.8H4.3z"/>
	<path class="st0" d="M55.1,48.2c-0.3,0-0.6-0.1-0.8-0.3l-7-6.4h-24c-2.4,0-4.4-2-4.4-4.3v-0.9c0-0.7,0.6-1.2,1.2-1.2
		s1.2,0.6,1.2,1.2v0.9c0,1,0.8,1.8,1.9,1.8h24.5c0.3,0,0.6,0.1,0.8,0.3l5.3,4.8V12.4c0-1-0.8-1.9-1.8-1.9h-5c-0.7,0-1.2-0.6-1.2-1.2
		S46.3,8,47,8h5c2.4,0,4.3,2,4.3,4.4V47c0,0.5-0.3,0.9-0.7,1.1C55.4,48.2,55.3,48.2,55.1,48.2z"/>
	<path class="st0" d="M25.5,12H8c-0.7,0-1.2-0.6-1.2-1.2S7.3,9.5,8,9.5h17.5c0.7,0,1.2,0.6,1.2,1.2S26.2,12,25.5,12z"/>
	<path class="st0" d="M25.5,17.4H8c-0.7,0-1.2-0.6-1.2-1.2s0.6-1.2,1.2-1.2h17.5c0.7,0,1.2,0.6,1.2,1.2S26.2,17.4,25.5,17.4z"/>
	<path class="st0" d="M17.4,22.8H8c-0.7,0-1.2-0.6-1.2-1.2s0.6-1.2,1.2-1.2h9.4c0.7,0,1.2,0.6,1.2,1.2S18.1,22.8,17.4,22.8z"/>
	<path class="st0" d="M32.7,21c-0.7,0-1.2-0.6-1.2-1.2c0-0.2,0-0.4,0-0.6c-0.1-0.7-0.1-1.7,0.7-2.7c0.6-0.7,1.3-1,2-1.2
		c0.4-0.2,0.8-0.3,1-0.5c1-0.9,1.1-2.3,0.3-3.4c-0.6-0.8-1.6-1.3-2.5-1.3c-0.8,0-1.4,0.4-2,1.1c-0.4,0.5-1.2,0.6-1.8,0.2
		c-0.5-0.4-0.7-1.2-0.2-1.8c1-1.3,2.4-2.1,4-2.1c0,0,0,0,0,0c1.7,0,3.4,0.9,4.5,2.3c1.6,2.2,1.3,5.1-0.7,6.8
		c-0.5,0.5-1.2,0.7-1.7,0.9c-0.4,0.2-0.9,0.3-1.1,0.5c-0.2,0.2-0.2,0.2-0.1,0.9c0,0.2,0,0.5,0,0.8C34,20.5,33.4,21,32.7,21z"/>
	<path class="st0" d="M34.4,23.5c-0.3-0.5-0.8-0.8-1.4-1c-1.1-0.3-2.1,0.4-2.4,1.5c-0.3,1.1,0.4,2.1,1.5,2.4c0.1,0,0.3,0,0.4,0
		c1.1,0,2-0.8,2-1.9C34.6,24.2,34.5,23.8,34.4,23.5z"/>
</g>
</svg>
