<svg xmlns="http://www.w3.org/2000/svg" viewBox="0 0 229.2 68.9"><defs><style>.cls-1{opacity:0.2;}.cls-2{fill:#166193;}</style></defs><g id="圖層_2" data-name="圖層 2"><g id="首頁"><g id="Group_46" data-name="Group 46" class="cls-1"><path id="Path_64" data-name="Path 64" class="cls-2" d="M52,33.27a12.21,12.21,0,0,0-.23-2.49c0-.17-.24-2.33-.27-2.34,1.74.25,2.47,2.79,4.21,3.19s4.15-.32,5.85-.64l.28,0a9,9,0,0,1-.42-1.24,2.45,2.45,0,0,1,1.95,1,33.33,33.33,0,0,1,3.73-.33,9.37,9.37,0,0,0-.19-.92,9.89,9.89,0,0,1-.5-1.6A4.85,4.85,0,0,1,70,30.6a21.34,21.34,0,0,1,4.66,1.23,21,21,0,0,1,3.17,1.53c.64.37,1.66.72,1.13,1.58a1.72,1.72,0,0,1-.53.51,8.64,8.64,0,0,1-2.76.92,27.27,27.27,0,0,1-7.65.54l-.2,0a3.38,3.38,0,0,1-3.08,1.47,6.27,6.27,0,0,1,.61-1,7.35,7.35,0,0,0,.34-.76,43.16,43.16,0,0,1-4.77-1c-1.28-.35-2.48-.76-3.79-1a6.66,6.66,0,0,0-3.57,0c-.61.26-1.47,1.37-2.18,1C51.38,34.76,52,34.08,52,33.27Z"/><path id="Path_65" data-name="Path 65" class="cls-2" d="M52.68,46.75a12.6,12.6,0,0,0-.2-2.67c0-.18-.21-2.51-.24-2.52,1.86.31,2.6,3,4.46,3.51s4.45-.27,6.29-.58l.3,0a10.27,10.27,0,0,1-.42-1.33,2.62,2.62,0,0,1,2.07,1.14c1.33-.16,2.67-.25,4-.28a8.05,8.05,0,0,0-.18-1,10.41,10.41,0,0,1-.51-1.73,5.2,5.2,0,0,1,3.8,3,22.65,22.65,0,0,1,5,1.41,23.75,23.75,0,0,1,3.38,1.7c.68.41,1.77.81,1.18,1.72a1.84,1.84,0,0,1-.57.54,9.56,9.56,0,0,1-3,.94,29.82,29.82,0,0,1-8.22.43l-.22,0a3.62,3.62,0,0,1-3.34,1.52,7,7,0,0,1,.68-1,7.49,7.49,0,0,0,.38-.81,47.26,47.26,0,0,1-5.1-1.22c-1.38-.4-2.65-.86-4.06-1.16a7.22,7.22,0,0,0-3.83,0c-.67.27-1.6,1.45-2.36,1C52,48.34,52.58,47.62,52.68,46.75Z"/><path id="Path_66" data-name="Path 66" class="cls-2" d="M26.58,37.26a10.27,10.27,0,0,0-.24-2.07c0-.14-.24-1.94-.26-1.94,1.45.18,2.1,2.28,3.56,2.58s3.45-.35,4.86-.64l.23,0a7.3,7.3,0,0,1-.37-1A2,2,0,0,1,36,35c1-.16,2.06-.28,3.1-.34a6.91,6.91,0,0,0-.17-.76,7.33,7.33,0,0,1-.45-1.32,4.07,4.07,0,0,1,3,2.19,17.47,17.47,0,0,1,3.9.94,17.89,17.89,0,0,1,2.68,1.21c.53.3,1.39.57,1,1.3a1.44,1.44,0,0,1-.42.43,7.31,7.31,0,0,1-2.29.82A22.66,22.66,0,0,1,40,40h-.17a2.78,2.78,0,0,1-2.54,1.28,5.93,5.93,0,0,1,.49-.84c.1-.2.19-.42.27-.63a39.08,39.08,0,0,1-4-.79c-1.08-.27-2.08-.59-3.18-.77a5.45,5.45,0,0,0-3,.1c-.5.23-1.2,1.17-1.8.87C26.07,38.52,26.53,37.94,26.58,37.26Z"/><path id="Path_67" data-name="Path 67" class="cls-2" d="M25.33,60A9.59,9.59,0,0,0,25.1,58c0-.14-.24-1.94-.27-1.94,1.45.18,2.11,2.28,3.57,2.58s3.45-.35,4.86-.64l.23,0a7.3,7.3,0,0,1-.37-1,2,2,0,0,1,1.64.82,29.38,29.38,0,0,1,3.1-.34c0-.25-.1-.51-.17-.76a7.61,7.61,0,0,1-.45-1.32,4.06,4.06,0,0,1,3,2.18,18,18,0,0,1,3.9.94,18.89,18.89,0,0,1,2.67,1.22c.54.3,1.4.57,1,1.3a1.47,1.47,0,0,1-.43.43,7.38,7.38,0,0,1-2.29.82,23,23,0,0,1-6.35.58l-.18,0A2.77,2.77,0,0,1,36,64.05a7.07,7.07,0,0,1,.49-.84,4.46,4.46,0,0,0,.28-.63,35.63,35.63,0,0,1-4-.79c-1.08-.27-2.09-.59-3.18-.77a5.49,5.49,0,0,0-3,.1c-.5.23-1.2,1.17-1.8.87C24.83,61.3,25.28,60.72,25.33,60Z"/><path id="Path_68" data-name="Path 68" class="cls-2" d="M122.25,47.14a8.32,8.32,0,0,0-.2-1.79c0-.11-.2-1.67-.23-1.68,1.25.16,1.82,2,3.08,2.24s3-.3,4.2-.56l.2,0a8.53,8.53,0,0,1-.32-.89,1.77,1.77,0,0,1,1.42.72,24.41,24.41,0,0,1,2.68-.3,5.21,5.21,0,0,0-.15-.65,7.41,7.41,0,0,1-.39-1.15,3.54,3.54,0,0,1,2.64,1.89,16.51,16.51,0,0,1,5.68,1.86c.46.26,1.2.5.83,1.13a1.09,1.09,0,0,1-.37.37,6,6,0,0,1-2,.71,19.94,19.94,0,0,1-5.5.5h-.15a2.4,2.4,0,0,1-2.19,1.11,5.2,5.2,0,0,1,.42-.72,5.38,5.38,0,0,0,.24-.55,33.92,33.92,0,0,1-3.45-.68c-.93-.24-1.8-.51-2.75-.67a4.78,4.78,0,0,0-2.57.08c-.44.2-1,1-1.55.76C121.82,48.23,122.21,47.73,122.25,47.14Z"/><path id="Path_69" data-name="Path 69" class="cls-2" d="M82.33,40.3a9.56,9.56,0,0,0-.23-2.06c0-.14-.24-1.94-.27-2,1.45.18,2.11,2.28,3.57,2.58s3.45-.34,4.86-.64l.23,0a7.3,7.3,0,0,1-.37-1,2,2,0,0,1,1.64.83,27,27,0,0,1,3.1-.34,6.43,6.43,0,0,0-.17-.76,7.71,7.71,0,0,1-.45-1.33,4.07,4.07,0,0,1,3,2.19,17.47,17.47,0,0,1,3.9.94,18.84,18.84,0,0,1,2.67,1.21c.54.3,1.4.57,1,1.3a1.47,1.47,0,0,1-.43.43,7.13,7.13,0,0,1-2.29.82,23,23,0,0,1-6.35.59l-.18,0A2.78,2.78,0,0,1,93,44.31a4.64,4.64,0,0,1,.49-.83c.1-.21.19-.42.27-.64a36.08,36.08,0,0,1-4-.79c-1.08-.27-2.09-.58-3.18-.77a5.55,5.55,0,0,0-3,.1c-.51.23-1.2,1.17-1.8.87C81.83,41.56,82.28,41,82.33,40.3Z"/><path id="Path_70" data-name="Path 70" class="cls-2" d="M89.46,54.73a11,11,0,0,0-.23-2.07c0-.14-.24-1.94-.27-1.94,1.45.18,2.11,2.28,3.57,2.57S96,53,97.39,52.65l.23,0a6.33,6.33,0,0,1-.37-1,2.06,2.06,0,0,1,1.64.83,29.09,29.09,0,0,1,3.1-.34c0-.26-.11-.51-.18-.76a7.9,7.9,0,0,1-.45-1.32,4,4,0,0,1,3,2.18,17.9,17.9,0,0,1,3.9.94A19,19,0,0,1,111,54.33c.54.3,1.4.58,1,1.3a1.33,1.33,0,0,1-.42.43,7.22,7.22,0,0,1-2.29.82,23,23,0,0,1-6.36.59l-.17,0a2.81,2.81,0,0,1-2.54,1.29,5,5,0,0,1,.49-.84,4,4,0,0,0,.27-.64,35.91,35.91,0,0,1-4-.79c-1.08-.27-2.09-.59-3.18-.77a5.58,5.58,0,0,0-3,.1c-.5.23-1.2,1.17-1.8.87C89,56,89.41,55.4,89.46,54.73Z"/><path id="Path_71" data-name="Path 71" class="cls-2" d="M.5,49.87A9.66,9.66,0,0,0,.27,47.8c0-.14-.24-1.94-.27-1.94,1.45.18,2.11,2.28,3.57,2.58S7,48.09,8.43,47.8l.23,0a7.3,7.3,0,0,1-.37-1,2.05,2.05,0,0,1,1.64.82c1-.16,2.06-.28,3.1-.34,0-.25-.11-.51-.18-.76a8.18,8.18,0,0,1-.44-1.32,4.07,4.07,0,0,1,3,2.19,18,18,0,0,1,3.9.93A20.09,20.09,0,0,1,22,49.48c.54.3,1.4.57,1,1.3a1.47,1.47,0,0,1-.43.43,7.13,7.13,0,0,1-2.29.82,22.62,22.62,0,0,1-6.35.58h-.18a2.78,2.78,0,0,1-2.54,1.28,5.32,5.32,0,0,1,.49-.83,4,4,0,0,0,.27-.64,39.08,39.08,0,0,1-4-.79c-1.08-.27-2.08-.59-3.17-.77a5.48,5.48,0,0,0-3,.1c-.5.23-1.2,1.17-1.8.87C0,51.13.45,50.55.5,49.87Z"/><path id="Path_72" data-name="Path 72" class="cls-2" d="M61.75,64.88a9.66,9.66,0,0,0-.23-2.07c0-.14-.24-1.94-.27-1.94,1.46.18,2.11,2.28,3.57,2.58s3.45-.35,4.86-.64l.23,0a7.3,7.3,0,0,1-.37-1,2,2,0,0,1,1.64.82c1-.16,2.06-.28,3.1-.34a6.91,6.91,0,0,0-.17-.76,7.33,7.33,0,0,1-.45-1.32,4.07,4.07,0,0,1,3,2.19,17.47,17.47,0,0,1,3.9.94,18.34,18.34,0,0,1,2.67,1.21c.54.3,1.4.57,1,1.3a1.44,1.44,0,0,1-.42.43,7.57,7.57,0,0,1-2.29.82,22.69,22.69,0,0,1-6.36.58H75a2.8,2.8,0,0,1-2.54,1.28,5.93,5.93,0,0,1,.49-.84,4.42,4.42,0,0,0,.27-.63,39.08,39.08,0,0,1-4-.79c-1.08-.27-2.08-.59-3.18-.78a5.65,5.65,0,0,0-3,.1c-.5.23-1.2,1.18-1.8.88C61.25,66.14,61.71,65.56,61.75,64.88Z"/></g><g id="Group_47" data-name="Group 47" class="cls-1"><path id="Path_73" data-name="Path 73" class="cls-2" d="M139.44,5.37a12.21,12.21,0,0,0-.23-2.49c0-.17-.23-2.33-.27-2.34,1.74.25,2.47,2.79,4.22,3.19s4.14-.32,5.85-.64l.27,0a9,9,0,0,1-.42-1.24,2.45,2.45,0,0,1,1.95,1,33.33,33.33,0,0,1,3.73-.33,9.37,9.37,0,0,0-.19-.92,9.89,9.89,0,0,1-.5-1.6,4.89,4.89,0,0,1,3.6,2.7,21.41,21.41,0,0,1,4.65,1.23,21,21,0,0,1,3.17,1.53c.64.37,1.66.72,1.13,1.59a1.77,1.77,0,0,1-.52.5,8.78,8.78,0,0,1-2.77.92,27.23,27.23,0,0,1-7.64.54l-.21,0a3.37,3.37,0,0,1-3.09,1.48,7.85,7.85,0,0,1,.61-1,6.41,6.41,0,0,0,.35-.75,48.27,48.27,0,0,1-4.77-1.05c-1.29-.36-2.48-.76-3.79-1a6.69,6.69,0,0,0-3.58,0c-.61.26-1.47,1.37-2.17,1C138.8,6.86,139.36,6.18,139.44,5.37Z"/><path id="Path_74" data-name="Path 74" class="cls-2" d="M140.09,18.85a12.6,12.6,0,0,0-.2-2.67c0-.18-.21-2.51-.24-2.52,1.86.3,2.59,3.05,4.46,3.5s4.45-.26,6.29-.57l.3,0a11.64,11.64,0,0,1-.43-1.34,2.66,2.66,0,0,1,2.08,1.15,38.4,38.4,0,0,1,4-.28c-.05-.35-.11-.69-.18-1a10,10,0,0,1-.51-1.72,5.22,5.22,0,0,1,3.8,3,23.6,23.6,0,0,1,8.36,3.11c.68.41,1.77.81,1.18,1.73a1.92,1.92,0,0,1-.57.53,9.29,9.29,0,0,1-3,.93,29.08,29.08,0,0,1-8.22.43l-.22,0a3.62,3.62,0,0,1-3.34,1.52,6.5,6.5,0,0,1,.68-1.05,7.49,7.49,0,0,0,.38-.81,46.7,46.7,0,0,1-5.1-1.22c-1.38-.4-2.65-.86-4.06-1.16a7.36,7.36,0,0,0-3.84,0c-.66.28-1.6,1.45-2.36,1C139.37,20.45,140,19.72,140.09,18.85Z"/><path id="Path_75" data-name="Path 75" class="cls-2" d="M114,9.36a10.35,10.35,0,0,0-.24-2.07c0-.14-.24-1.94-.26-1.94,1.45.18,2.1,2.28,3.56,2.58s3.45-.35,4.86-.64l.23,0a8.84,8.84,0,0,1-.37-1,2,2,0,0,1,1.64.82,29.38,29.38,0,0,1,3.1-.34,7.15,7.15,0,0,0-.17-.76,7.61,7.61,0,0,1-.45-1.32,4,4,0,0,1,3,2.18,17.9,17.9,0,0,1,3.9.94A20.16,20.16,0,0,1,135.51,9c.53.3,1.39.58,1,1.3a1.47,1.47,0,0,1-.42.44,7.55,7.55,0,0,1-2.29.81,23,23,0,0,1-6.36.59l-.17,0a2.81,2.81,0,0,1-2.54,1.29,5,5,0,0,1,.49-.84,5.11,5.11,0,0,0,.27-.64,36.54,36.54,0,0,1-4-.79c-1.08-.27-2.08-.58-3.17-.77a5.58,5.58,0,0,0-3,.1c-.5.23-1.2,1.17-1.8.87C113.48,10.61,113.94,10,114,9.36Z"/><path id="Path_76" data-name="Path 76" class="cls-2" d="M112.74,32.14a9.59,9.59,0,0,0-.23-2.07c0-.14-.24-1.94-.27-1.94,1.46.18,2.11,2.28,3.57,2.58s3.45-.35,4.86-.64l.23,0a7.3,7.3,0,0,1-.37-1,2,2,0,0,1,1.64.83,29.4,29.4,0,0,1,3.1-.35c0-.26-.11-.53-.17-.75a7.71,7.71,0,0,1-.45-1.33,4.07,4.07,0,0,1,3,2.19,17.47,17.47,0,0,1,3.9.94,18.84,18.84,0,0,1,2.67,1.21c.54.3,1.4.57,1,1.3a1.47,1.47,0,0,1-.43.43,7.16,7.16,0,0,1-2.28.82,22.73,22.73,0,0,1-6.36.58H126a2.78,2.78,0,0,1-2.53,1.28,5.1,5.1,0,0,1,.49-.84,6,6,0,0,0,.27-.63,38,38,0,0,1-4-.79c-1.08-.27-2.08-.59-3.18-.77a5.49,5.49,0,0,0-3,.1c-.5.23-1.2,1.17-1.8.87C112.24,33.4,112.69,32.82,112.74,32.14Z"/><path id="Path_77" data-name="Path 77" class="cls-2" d="M209.66,19.24a8.32,8.32,0,0,0-.2-1.79c0-.12-.2-1.67-.23-1.67,1.26.15,1.82,2,3.09,2.23s3-.3,4.2-.56l.2,0a5.55,5.55,0,0,1-.32-.89,1.78,1.78,0,0,1,1.42.72,26.46,26.46,0,0,1,2.68-.3c0-.22-.09-.44-.15-.65a7.66,7.66,0,0,1-.39-1.14A3.5,3.5,0,0,1,222.59,17a15.64,15.64,0,0,1,3.37.82,17.15,17.15,0,0,1,2.31,1c.46.26,1.2.5.83,1.13a1.16,1.16,0,0,1-.36.37,6.19,6.19,0,0,1-2,.71,20,20,0,0,1-5.5.5h-.15a2.43,2.43,0,0,1-2.2,1.11,5.3,5.3,0,0,1,.42-.73,2.87,2.87,0,0,0,.24-.54,33.23,33.23,0,0,1-3.44-.69c-.94-.23-1.8-.51-2.75-.67a4.91,4.91,0,0,0-2.58.09c-.43.2-1,1-1.55.75C209.23,20.33,209.62,19.83,209.66,19.24Z"/><path id="Path_78" data-name="Path 78" class="cls-2" d="M169.75,12.4a10.17,10.17,0,0,0-.24-2.06c0-.14-.24-1.94-.26-1.95,1.45.18,2.1,2.28,3.56,2.58s3.45-.34,4.86-.64l.23,0a7.3,7.3,0,0,1-.37-1,2,2,0,0,1,1.64.83,29.4,29.4,0,0,1,3.1-.35A6.74,6.74,0,0,0,182.1,9a7.71,7.71,0,0,1-.45-1.33,4.05,4.05,0,0,1,3,2.19,17.34,17.34,0,0,1,3.9.94A18.34,18.34,0,0,1,191.26,12c.54.3,1.4.58,1,1.3a1.44,1.44,0,0,1-.42.43,7.47,7.47,0,0,1-2.29.82,22.66,22.66,0,0,1-6.36.58H183a2.78,2.78,0,0,1-2.54,1.28,5.93,5.93,0,0,1,.49-.84,3.52,3.52,0,0,0,.27-.63,35.91,35.91,0,0,1-4-.79c-1.08-.27-2.09-.59-3.18-.77a5.48,5.48,0,0,0-3,.1c-.5.23-1.2,1.17-1.8.87C169.24,13.66,169.69,13.08,169.75,12.4Z"/><path id="Path_79" data-name="Path 79" class="cls-2" d="M176.87,26.83a10.26,10.26,0,0,0-.23-2.07c0-.14-.24-1.94-.27-2,1.45.18,2.11,2.29,3.57,2.59s3.44-.35,4.85-.65l.24,0a7.43,7.43,0,0,1-.37-1,2.06,2.06,0,0,1,1.64.83,29.09,29.09,0,0,1,3.1-.34c-.05-.26-.11-.51-.18-.76a7.9,7.9,0,0,1-.45-1.32,4.07,4.07,0,0,1,3,2.18,18,18,0,0,1,3.9.94,18.84,18.84,0,0,1,2.67,1.21c.54.3,1.39.58,1,1.3a1.39,1.39,0,0,1-.43.44,7.2,7.2,0,0,1-2.29.81,22.67,22.67,0,0,1-6.36.59l-.17,0a2.81,2.81,0,0,1-2.54,1.29,5.77,5.77,0,0,1,.49-.84,4,4,0,0,0,.27-.64,39,39,0,0,1-4-.78c-1.07-.28-2.08-.59-3.17-.78a5.69,5.69,0,0,0-3,.1c-.5.23-1.2,1.17-1.8.88C176.36,28.08,176.82,27.5,176.87,26.83Z"/><path id="Path_80" data-name="Path 80" class="cls-2" d="M87.91,22a9.66,9.66,0,0,0-.23-2.07c0-.13-.24-1.94-.27-1.94,1.45.18,2.11,2.28,3.57,2.58s3.45-.35,4.86-.64l.23,0a7.3,7.3,0,0,1-.37-1,2,2,0,0,1,1.64.83,29.4,29.4,0,0,1,3.1-.35c0-.25-.1-.51-.17-.76a7.33,7.33,0,0,1-.45-1.32,4.07,4.07,0,0,1,3,2.19,17.47,17.47,0,0,1,3.9.94,18.84,18.84,0,0,1,2.67,1.21c.54.3,1.39.57,1,1.3a1.47,1.47,0,0,1-.43.43,7.38,7.38,0,0,1-2.29.82,23,23,0,0,1-6.35.58h-.18A2.8,2.8,0,0,1,98.61,26a7.07,7.07,0,0,1,.49-.84,5,5,0,0,0,.28-.63c-1.35-.2-2.68-.46-4-.79-1.08-.27-2.09-.59-3.18-.78a5.69,5.69,0,0,0-3,.1c-.5.23-1.2,1.18-1.8.88C87.41,23.23,87.86,22.65,87.91,22Z"/><path id="Path_81" data-name="Path 81" class="cls-2" d="M149.17,37a10.35,10.35,0,0,0-.24-2.07c0-.13-.24-1.94-.26-1.94,1.45.18,2.1,2.28,3.56,2.58s3.45-.35,4.86-.64l.23,0a8.84,8.84,0,0,1-.37-1,2,2,0,0,1,1.64.82c1-.16,2.06-.28,3.1-.34a6.91,6.91,0,0,0-.17-.76,7.33,7.33,0,0,1-.45-1.32,4.09,4.09,0,0,1,3.05,2.19,17.47,17.47,0,0,1,3.9.94,18.84,18.84,0,0,1,2.67,1.21c.53.3,1.4.57,1,1.3a1.44,1.44,0,0,1-.42.43,7.47,7.47,0,0,1-2.29.82,22.66,22.66,0,0,1-6.36.58h-.17A2.78,2.78,0,0,1,159.87,41a5.93,5.93,0,0,1,.49-.84,3.85,3.85,0,0,0,.27-.63,39.08,39.08,0,0,1-4-.79c-1.08-.27-2.08-.59-3.17-.77a5.49,5.49,0,0,0-3,.1c-.51.23-1.2,1.17-1.8.87C148.66,38.24,149.12,37.66,149.17,37Z"/></g></g></g></svg>