<svg xmlns="http://www.w3.org/2000/svg" viewBox="0 0 73.16 26.75"><defs><style>.cls-1{fill:#0f8ab5;}</style></defs><g id="圖層_2" data-name="圖層 2"><g id="首頁"><g id="Group_45" data-name="Group 45"><path id="Path_60" data-name="Path 60" class="cls-1" d="M50.68,5A10.06,10.06,0,0,1,51,3c0-.13.3-1.9.33-1.9-1.44.13-2.15,2.18-3.6,2.43s-3.39-.45-4.77-.79l-.23,0a7.72,7.72,0,0,0,.4-1,2,2,0,0,0-1.64.76,28.72,28.72,0,0,0-3-.44c.06-.25.12-.5.2-.74A7.72,7.72,0,0,0,39.1,0,4,4,0,0,0,36,2.05a17.51,17.51,0,0,0-3.87.8A18.33,18.33,0,0,0,29.5,4c-.54.28-1.39.52-1,1.25a1.24,1.24,0,0,0,.41.44,7,7,0,0,0,2.22.88,22.75,22.75,0,0,0,6.25.79h.17A2.75,2.75,0,0,0,40,8.65a5.73,5.73,0,0,0-.46-.84c-.09-.21-.18-.42-.25-.63,1.33-.15,2.65-.37,4-.65,1.07-.23,2.07-.51,3.16-.66a5.48,5.48,0,0,1,2.92.19c.49.24,1.14,1.19,1.74.92C51.14,6.3,50.71,5.71,50.68,5Z"/><path id="Path_61" data-name="Path 61" class="cls-1" d="M22.28,17.88a9.9,9.9,0,0,1,.26-2c0-.14.26-1.91.29-1.91-1.43.15-2.11,2.21-3.55,2.49s-3.39-.39-4.78-.7l-.23,0a7.59,7.59,0,0,0,.38-1,2,2,0,0,0-1.63.79,28.55,28.55,0,0,0-3-.38,6.33,6.33,0,0,1,.19-.75,8.35,8.35,0,0,0,.46-1.3,4,4,0,0,0-3,2.11A17,17,0,0,0,3.73,16a18.29,18.29,0,0,0-2.65,1.15c-.53.29-1.38.55-1,1.27a1.33,1.33,0,0,0,.41.44,7.3,7.3,0,0,0,2.24.83A22.39,22.39,0,0,0,9,20.39h.17a2.76,2.76,0,0,0,2.48,1.3,5.21,5.21,0,0,0-.47-.83c-.1-.21-.18-.42-.26-.63a37.58,37.58,0,0,0,4-.72C16,19.25,17,19,18,18.78a5.51,5.51,0,0,1,2.93.14c.49.24,1.16,1.18,1.76.89C22.76,19.13,22.32,18.55,22.28,17.88Z"/><path id="Path_62" data-name="Path 62" class="cls-1" d="M63.24,21.25a12.52,12.52,0,0,1,.27-2.73c0-.18.27-2.55.31-2.56-1.91.27-2.72,3-4.64,3.47s-4.54-.39-6.4-.75l-.31,0a9.1,9.1,0,0,0,.47-1.36A2.7,2.7,0,0,0,50.8,18.4,40.13,40.13,0,0,0,46.71,18c.06-.33.13-.67.22-1a9.8,9.8,0,0,0,.56-1.74,5.35,5.35,0,0,0-4,2.93,23,23,0,0,0-5.1,1.31,24.73,24.73,0,0,0-3.49,1.65c-.7.4-1.82.78-1.25,1.73a1.79,1.79,0,0,0,.57.56,9.62,9.62,0,0,0,3,1,29.77,29.77,0,0,0,8.37.64l.23,0a3.65,3.65,0,0,0,3.36,1.64,7.53,7.53,0,0,0-.66-1.09,5.54,5.54,0,0,1-.37-.83,51.56,51.56,0,0,0,5.22-1.12c1.42-.38,2.73-.81,4.17-1.08a7.31,7.31,0,0,1,3.91.07c.67.29,1.6,1.51,2.39,1.11C63.93,22.89,63.32,22.14,63.24,21.25Z"/><path id="Path_63" data-name="Path 63" class="cls-1" d="M72.7,10a6.06,6.06,0,0,1,.22-1.33c0-.08.22-1.24.24-1.24-.94.07-1.44,1.4-2.39,1.54a8.66,8.66,0,0,1-3.1-.59l-.15,0a5.17,5.17,0,0,0,.28-.64,1.3,1.3,0,0,0-1.09.47q-1-.21-2-.33a4.34,4.34,0,0,1,.14-.48,4.48,4.48,0,0,0,.33-.83,2.6,2.6,0,0,0-2,1.3,11.59,11.59,0,0,0-2.54.46A12.59,12.59,0,0,0,58.87,9c-.36.17-.92.32-.67.8a.89.89,0,0,0,.26.29,4.7,4.7,0,0,0,1.44.61,14.74,14.74,0,0,0,4.07.6h.11a1.83,1.83,0,0,0,1.59.92,2.7,2.7,0,0,0-.29-.56,3.52,3.52,0,0,1-.15-.42,25.42,25.42,0,0,0,2.6-.37c.7-.13,1.36-.3,2.07-.38a3.55,3.55,0,0,1,1.91.16c.32.17.73.8,1.13.63C73,10.82,72.7,10.43,72.7,10Z"/></g></g></g></svg>