<?xml version="1.0" encoding="utf-8"?>
<!-- Generator: Adobe Illustrator 25.0.0, SVG Export Plug-In . SVG Version: 6.00 Build 0)  -->
<svg version="1.1" id="圖層_1" xmlns="http://www.w3.org/2000/svg" xmlns:xlink="http://www.w3.org/1999/xlink" x="0px" y="0px"
	 viewBox="0 0 52.5 54.3" style="enable-background:new 0 0 52.5 54.3;" xml:space="preserve">
<style type="text/css">
	.st0{fill:#BEBEBE;}
</style>
<path class="st0" d="M51.3,12.5L51.3,12.5l-23.1,0c0.4-0.1,0.8-0.1,1.2-0.2c2.4-0.5,5.6-1.1,7-1.5c4.1-1.1,6.3-3.8,5.6-7
	c-0.3-1.2-1-2.3-2.2-3c-1.8-1-3.9-1.1-5.8-0.4c-4.1,1.3-6.6,5.4-7.8,8c-1.2-2.5-3.7-6.7-7.8-8c-1.9-0.7-4-0.5-5.8,0.4
	c-1.1,0.6-1.9,1.7-2.2,3c-0.6,3.3,1.6,6,5.6,7c1.6,0.4,5.6,1.2,8,1.6l-23,0c-0.6,0-1.1,0.6-1.1,1.2v10.9c0,0.7,0.5,1.2,1.1,1.2h0.9
	v27.1c0,0.7,0.5,1.2,1.1,1.2l46,0c0.7,0,1.2-0.6,1.1-1.2V25.9h0.9c0.7,0,1.2-0.6,1.1-1.2V13.8C52.4,13.2,51.9,12.6,51.3,12.5z
	 M28.1,10.1c1-2.4,3.2-6.3,6.6-7.4l0,0c0.6-0.2,1.3-0.3,2-0.3c0.6,0,1.3,0.2,1.8,0.5c0.5,0.3,0.9,0.8,1,1.4c0.5,2.9-2.8,4-3.9,4.3
	C34.1,9,29.8,9.8,28.1,10.1z M13.9,2.9c0.6-0.3,1.2-0.5,1.8-0.5c0.7,0,1.3,0.1,2,0.3c3.4,1.1,5.6,5,6.6,7.4c-2-0.4-6-1.1-7.6-1.5
	l0,0c-0.8-0.2-4.5-1.3-3.9-4.3C13,3.7,13.4,3.2,13.9,2.9z M20.9,15v8.4H2.4l0-8.4H20.9z M20.9,25.9v25.9H4.5V25.9H20.9z M23.3,51.8
	V15h6v36.8H23.3z M31.6,51.8V25.9H48v25.9H31.6z M50.1,15v8.5H31.6V15H50.1z"/>
</svg>
