<svg xmlns="http://www.w3.org/2000/svg" viewBox="0 0 52.49 54.31"><defs><style>.cls-1{fill:#bebebe;stroke:#bebebe;stroke-width:0.3px;}</style></defs><g id="圖層_2" data-name="圖層 2"><g id="探索之旅"><g id="Group_233" data-name="Group 233"><path id="Path_121" data-name="Path 121" class="cls-1" d="M36.26,10.71c4-1.07,6.14-3.69,5.54-6.86A4.29,4.29,0,0,0,39.72,1,6.87,6.87,0,0,0,34.06.59C30,1.89,27.5,6,26.24,8.77,25,6,22.5,1.89,18.42.59A6.85,6.85,0,0,0,12.77,1a4.27,4.27,0,0,0-2.09,2.89c-.59,3.17,1.53,5.8,5.54,6.86,2.29.61,9.53,1.91,9.84,2a1.15,1.15,0,0,0,.37,0C26.73,12.62,34,11.32,36.26,10.71ZM34.7,2.58a6,6,0,0,1,1.93-.32,3.86,3.86,0,0,1,2,.5,2.25,2.25,0,0,1,1.1,1.48c.56,3-2.94,4.17-4,4.45-1.52.41-5.51,1.17-7.86,1.6C28.86,7.93,31.08,3.74,34.7,2.58ZM16.76,8.69c-1.09-.28-4.59-1.46-4-4.45a2.25,2.25,0,0,1,1.1-1.48,3.86,3.86,0,0,1,2-.5,6,6,0,0,1,1.93.32c3.62,1.16,5.85,5.35,6.84,7.71-2.34-.43-6.34-1.19-7.86-1.6Z"/><path id="Path_122" data-name="Path 122" class="cls-1" d="M51.29,12.69H1.19a1.08,1.08,0,0,0-1,1.09V24.7a1.06,1.06,0,0,0,1,1.09H2.24V53.07a1.06,1.06,0,0,0,1,1.09H49.21a1.06,1.06,0,0,0,1-1.09V25.79h1a1.06,1.06,0,0,0,1-1.09V13.78a1.07,1.07,0,0,0-1-1.09ZM29.37,14.88V52H23.11V14.88Zm-27.14,0H21v8.73H2.24ZM4.32,25.79H21V52H4.32ZM48.16,52H31.46V25.79h16.7Zm2.09-28.37H31.46V14.87H50.25Z"/></g></g></g></svg>