<?xml version="1.0" encoding="utf-8"?>
<!-- Generator: Adobe Illustrator 25.0.0, SVG Export Plug-In . SVG Version: 6.00 Build 0)  -->
<svg version="1.1" id="圖層_1" xmlns="http://www.w3.org/2000/svg" xmlns:xlink="http://www.w3.org/1999/xlink" x="0px" y="0px"
	 viewBox="0 0 52.5 54.3" style="enable-background:new 0 0 52.5 54.3;" xml:space="preserve">
<style type="text/css">
	.st0{fill:#1152A0;stroke:#1152A0;stroke-width:0.3;}
</style>
<g id="圖層_2_1_">
	<g id="探索之旅">
		<g id="Group_233">
			<path id="Path_121" class="st0" d="M36.3,10.7c4-1.1,6.1-3.7,5.5-6.9c-0.3-1.2-1-2.2-2.1-2.8c-1.7-0.9-3.8-1.1-5.7-0.4
				C30,1.9,27.5,6,26.2,8.8C25,6,22.5,1.9,18.4,0.6c-1.9-0.7-3.9-0.5-5.6,0.4c-1.1,0.6-1.8,1.7-2.1,2.9c-0.6,3.2,1.5,5.8,5.5,6.9
				c2.3,0.6,9.5,1.9,9.8,2c0.1,0,0.2,0,0.4,0C26.7,12.6,34,11.3,36.3,10.7z M34.7,2.6c0.6-0.2,1.3-0.3,1.9-0.3c0.7,0,1.4,0.2,2,0.5
				c0.6,0.3,1,0.9,1.1,1.5c0.6,3-2.9,4.2-4,4.4c-1.5,0.4-5.5,1.2-7.9,1.6C28.9,7.9,31.1,3.7,34.7,2.6z M16.8,8.7
				c-1.1-0.3-4.6-1.5-4-4.4c0.1-0.6,0.5-1.2,1.1-1.5c0.6-0.3,1.3-0.5,2-0.5c0.7,0,1.3,0.1,1.9,0.3c3.6,1.2,5.9,5.3,6.8,7.7
				C22.3,9.9,18.3,9.1,16.8,8.7L16.8,8.7z"/>
			<path id="Path_122" class="st0" d="M51.3,12.7H1.2c-0.6,0-1,0.5-1,1.1v10.9c0,0.6,0.4,1.1,1,1.1h1v27.3c0,0.6,0.4,1.1,1,1.1h46
				c0.6,0,1-0.5,1-1.1V25.8h1c0.6,0,1-0.5,1-1.1V13.8C52.2,13.2,51.8,12.7,51.3,12.7L51.3,12.7z M29.4,14.9V52h-6.3V14.9H29.4z
				 M2.2,14.9H21v8.7H2.2L2.2,14.9z M4.3,25.8H21V52H4.3V25.8z M48.2,52H31.5V25.8h16.7V52z M50.2,23.6H31.5v-8.8h18.8V23.6z"/>
		</g>
	</g>
</g>
</svg>
