<?xml version="1.0" encoding="utf-8"?>
<!-- Generator: Adobe Illustrator 25.0.0, SVG Export Plug-In . SVG Version: 6.00 Build 0)  -->
<svg version="1.1" id="圖層_1" xmlns="http://www.w3.org/2000/svg" xmlns:xlink="http://www.w3.org/1999/xlink" x="0px" y="0px"
	 viewBox="0 0 52.5 54.3" style="enable-background:new 0 0 52.5 54.3;" xml:space="preserve">
<style type="text/css">
	.st0{fill:#1152A0;}
</style>
<path class="st0" d="M51.3,12.6H28.1c0.7-0.1,1.6-0.3,2.5-0.5c2.2-0.4,4.6-0.9,5.8-1.2l0,0c4.1-1.1,6.2-3.8,5.6-7.1
	c-0.3-1.3-1.1-2.3-2.2-2.9c-1.8-1-3.9-1.1-5.8-0.4c-3.8,1.2-6.3,5-7.7,8c-1.1-2.5-3.6-6.6-7.8-8c-1.9-0.7-3.9-0.5-5.7,0.4
	c-1.1,0.6-1.8,1.6-2.2,3c-0.6,3.2,1.5,6,5.6,7.1c1.5,0.4,5.2,1.1,7.6,1.6c0.1,0,0.2,0,0.2,0H1.2c-0.7,0-1.1,0.5-1.1,1.2v10.9
	c0,0.7,0.5,1.2,1.1,1.2h0.9v27.1c0,0.7,0.5,1.3,1.1,1.3h46c0.7,0,1.2-0.5,1.2-1.3V25.9h0.8c0.7,0,1.2-0.5,1.2-1.2V13.8
	C52.4,13.1,51.9,12.6,51.3,12.6z M24.4,10.1c-2.4-0.4-6.1-1.2-7.5-1.6c-1.1-0.3-4.5-1.4-3.9-4.2c0.1-0.6,0.5-1.1,1-1.4
	c0.4-0.2,1.1-0.5,1.9-0.5c0.7,0,1.3,0.1,1.9,0.3C21.7,4,23.8,8.7,24.4,10.1z M28.1,10.1c2-4.2,4.1-6.6,6.7-7.4l0,0
	c0.6-0.2,1.2-0.3,1.9-0.3c0.8,0,1.5,0.3,1.9,0.5c0.5,0.3,0.9,0.8,1,1.4c0.2,0.8,0,1.5-0.4,2.2c-0.9,1.3-2.6,1.9-3.5,2
	C34.2,9,30.4,9.7,28.1,10.1z M48,25.9v25.9H31.7V25.9H48z M50.1,14.9v8.5H31.7v-8.5H50.1z M29.2,15v36.8h-6V15H29.2z M20.9,25.9
	v25.9H4.4V25.9H20.9z M20.9,15v8.4H2.4V15H20.9z"/>
</svg>
