<svg xmlns="http://www.w3.org/2000/svg" viewBox="0 0 23.13 21.23"><defs><style>.cls-1{fill:#fff;}</style></defs><g id="圖層_2" data-name="圖層 2"><g id="圖層_1-2" data-name="圖層 1"><path id="Icon_simple-instagram" data-name="Icon simple-instagram" class="cls-1" d="M15.81,0C12.67,0,8,0,6.8.06A9.28,9.28,0,0,0,4,.56,5.71,5.71,0,0,0,1.94,1.78,5.08,5.08,0,0,0,.61,3.66,7.13,7.13,0,0,0,.07,6.24C0,7.37,0,7.73,0,10.61S0,13.86.07,15a7.13,7.13,0,0,0,.54,2.58,5.08,5.08,0,0,0,1.33,1.88A5.71,5.71,0,0,0,4,20.67a9.23,9.23,0,0,0,2.81.5c1.23,0,1.62.06,4.76.06s3.54,0,4.77-.06a9.28,9.28,0,0,0,2.81-.5,5.85,5.85,0,0,0,2.05-1.22,5.2,5.2,0,0,0,1.33-1.88A7.18,7.18,0,0,0,23.06,15c.06-1.13.07-1.49.07-4.38s0-3.24-.07-4.37a7.13,7.13,0,0,0-.54-2.58,5.2,5.2,0,0,0-1.33-1.88A5.71,5.71,0,0,0,19.14.56a9.28,9.28,0,0,0-2.81-.5C15.1,0,19,0,15.81,0ZM11.56,1.91c3.09,0,3.46,0,4.68.06a7.07,7.07,0,0,1,2.14.37,3.86,3.86,0,0,1,1.34.79,3.42,3.42,0,0,1,.86,1.23,5.5,5.5,0,0,1,.4,2c.05,1.12.07,1.45.07,4.29s0,3.17-.07,4.29a5.83,5.83,0,0,1-.41,2,3.38,3.38,0,0,1-.87,1.22,3.54,3.54,0,0,1-1.33.79,6.84,6.84,0,0,1-2.15.37c-1.23,0-1.59.06-4.69.06s-3.45,0-4.68-.07a7.14,7.14,0,0,1-2.15-.37,3.62,3.62,0,0,1-1.33-.8,3.22,3.22,0,0,1-.87-1.22,5.58,5.58,0,0,1-.4-2c0-1.12-.06-1.46-.06-4.29s0-3.17.06-4.3a5.5,5.5,0,0,1,.4-2A3.07,3.07,0,0,1,3.37,3.1,3.46,3.46,0,0,1,4.7,2.31a6.78,6.78,0,0,1,2.14-.37c1.23,0,1.59-.06,4.68-.06l.05,0Zm0,3.25a5.71,5.71,0,0,0-5.93,5.45,5.71,5.71,0,0,0,5.93,5.46,5.72,5.72,0,0,0,5.94-5.46A5.71,5.71,0,0,0,11.56,5.16Zm0,9a3.7,3.7,0,0,1-3.85-3.54,3.7,3.7,0,0,1,3.85-3.53,3.71,3.71,0,0,1,3.86,3.53A3.71,3.71,0,0,1,11.56,14.15ZM19.12,5a1.39,1.39,0,0,1-2.77,0,1.39,1.39,0,0,1,2.77,0Z"/></g></g></svg>