<?xml version="1.0" encoding="utf-8"?>
<!-- Generator: Adobe Illustrator 25.0.0, SVG Export Plug-In . SVG Version: 6.00 Build 0)  -->
<svg version="1.1" id="圖層_1" xmlns="http://www.w3.org/2000/svg" xmlns:xlink="http://www.w3.org/1999/xlink" x="0px" y="0px"
	 viewBox="0 0 22.1 23.7" style="enable-background:new 0 0 22.1 23.7;" xml:space="preserve">
<style type="text/css">
	.st0{fill:#FFFFFF;}
</style>
<g id="圖層_2_1_">
	<g id="圖層_1-2">
		<path id="icon_language" class="st0" d="M11.1,1.6C4.9,1.6,0,6.5,0,12.6s5,11.1,11.1,11.1s11.1-5,11.1-11.1S17.2,1.6,11.1,1.6
			C11.1,1.6,11.1,1.6,11.1,1.6z M18.7,8.2h-3.3c-0.3-1.4-0.9-2.7-1.5-3.9C15.9,5,17.6,6.4,18.7,8.2z M11.1,3.8
			c0.9,1.3,1.6,2.8,2.1,4.4H9C9.5,6.7,10.1,5.2,11.1,3.8z M2.5,14.8c-0.4-1.4-0.4-3,0-4.4h3.7c-0.1,0.7-0.2,1.5-0.2,2.2
			c0,0.7,0.1,1.5,0.2,2.2H2.5z M3.4,17h3.3C7,18.4,7.5,19.7,8.2,21C6.2,20.3,4.5,18.9,3.4,17z M6.7,8.2H3.4C4.5,6.4,6.2,5,8.2,4.3
			C7.5,5.5,7,6.8,6.7,8.2z M11.1,21.4c-0.9-1.3-1.6-2.8-2.1-4.4h4.2C12.8,18.6,12,20.1,11.1,21.4L11.1,21.4z M13.6,14.8H8.5
			c-0.1-0.7-0.2-1.5-0.2-2.2c0-0.7,0.1-1.5,0.2-2.2h5.2c0.1,0.7,0.2,1.5,0.2,2.2C13.8,13.4,13.8,14.1,13.6,14.8z M13.9,21
			c0.7-1.2,1.2-2.6,1.5-3.9h3.3C17.6,18.9,15.9,20.3,13.9,21z M15.9,14.8c0.1-0.7,0.1-1.5,0.1-2.2c0-0.7-0.1-1.5-0.1-2.2h3.7
			c0.4,1.4,0.4,3,0,4.4H15.9z"/>
	</g>
</g>
</svg>
