<svg xmlns="http://www.w3.org/2000/svg" viewBox="0 0 22.11 22.11"><defs><style>.cls-1{fill:#fff;}</style></defs><g id="圖層_2" data-name="圖層 2"><g id="圖層_1-2" data-name="圖層 1"><path id="icon_language" data-name="icon language" class="cls-1" d="M11.05,0A11.06,11.06,0,1,0,22.11,11.06,11.06,11.06,0,0,0,11.05,0Zm7.66,6.63H15.45A17.41,17.41,0,0,0,13.92,2.7,8.86,8.86,0,0,1,18.71,6.63ZM11.06,2.26a15.42,15.42,0,0,1,2.11,4.38H9A15.42,15.42,0,0,1,11.06,2.26Zm-8.56,11a8.71,8.71,0,0,1,0-4.42H6.24a18.1,18.1,0,0,0-.16,2.21,18.25,18.25,0,0,0,.16,2.21Zm.91,2.21H6.67a17.46,17.46,0,0,0,1.52,3.94,8.78,8.78,0,0,1-4.78-3.94ZM6.67,6.63H3.41A8.8,8.8,0,0,1,8.19,2.7,17.38,17.38,0,0,0,6.67,6.63Zm4.39,13.23A15.55,15.55,0,0,1,9,15.48h4.22a15.55,15.55,0,0,1-2.11,4.38Zm2.58-6.59H8.47a16.33,16.33,0,0,1-.18-2.21,16.33,16.33,0,0,1,.18-2.21h5.18a18.11,18.11,0,0,1,.17,2.21,16.33,16.33,0,0,1-.18,2.21Zm.28,6.15a17.49,17.49,0,0,0,1.53-3.94h3.26A8.92,8.92,0,0,1,13.92,19.42Zm2-6.15A18.23,18.23,0,0,0,16,11.06a18.09,18.09,0,0,0-.15-2.21h3.73a8.5,8.5,0,0,1,0,4.42Z"/></g></g></svg>