<svg xmlns="http://www.w3.org/2000/svg" viewBox="0 0 29.4 28"><defs><style>.cls-1{fill:#00b900;}</style></defs><g id="圖層_2" data-name="圖層 2"><g id="首頁"><path id="Icon_simple-line" data-name="Icon simple-line" class="cls-1" d="M23.72,11.38a.78.78,0,1,1,0,1.55H21.57v1.38h2.15a.76.76,0,0,1,.77.77.77.77,0,0,1-.77.77H20.8a.78.78,0,0,1-.77-.77V9.23a.78.78,0,0,1,.77-.77h2.93a.77.77,0,0,1,0,1.54H21.58v1.38ZM19,15.08a.77.77,0,0,1-.53.73,1,1,0,0,1-.24,0,.78.78,0,0,1-.63-.31l-3-4.06v3.6a.77.77,0,1,1-1.54,0h0V9.23a.77.77,0,0,1,.53-.73.86.86,0,0,1,.24,0,.79.79,0,0,1,.6.31l3,4.08V9.23a.77.77,0,0,1,1.54,0v5.85Zm-7,0a.79.79,0,0,1-.75.8.77.77,0,0,1-.79-.75V9.23a.77.77,0,0,1,.74-.8.79.79,0,0,1,.8.75v5.9Zm-3,.77H6a.78.78,0,0,1-.77-.77V9.23a.78.78,0,0,1,1.55,0v5.08H9a.77.77,0,0,1,0,1.54M29.4,11.93C29.4,5.35,22.8,0,14.7,0S0,5.35,0,11.93c0,5.9,5.23,10.84,12.29,11.77.48.1,1.13.32,1.3.73a2.94,2.94,0,0,1,.05,1.32L13.44,27c0,.37-.29,1.45,1.29.79s8.47-5,11.55-8.54a10.61,10.61,0,0,0,3.12-7.32"/></g></g></svg>