<?xml version="1.0" encoding="utf-8"?>
<!-- Generator: Adobe Illustrator 25.0.0, SVG Export Plug-In . SVG Version: 6.00 Build 0)  -->
<svg version="1.1" id="圖層_1" xmlns="http://www.w3.org/2000/svg" xmlns:xlink="http://www.w3.org/1999/xlink" x="0px" y="0px"
	 viewBox="0 0 108 41" style="enable-background:new 0 0 108 41;" xml:space="preserve">
<style type="text/css">
	.st0{fill:#00B900;}
	.st1{fill:#FFFFFF;}
</style>
<rect class="st0" width="108" height="41"/>
<g id="圖層_2_1_">
	<g id="首頁">
		<path id="Icon_simple-line" class="st1" d="M63,17.9c0.4,0,0.8,0.3,0.9,0.7c0,0.4-0.3,0.8-0.7,0.9c-0.1,0-0.1,0-0.2,0h-2.2v1.4H63
			c0.4,0,0.8,0.3,0.8,0.7c0,0,0,0,0,0c0,0.4-0.3,0.8-0.8,0.8l0,0h-2.9c-0.4,0-0.8-0.3-0.8-0.8v-5.9c0-0.4,0.3-0.8,0.8-0.8H63
			c0.4,0,0.8,0.3,0.8,0.8c0,0.4-0.3,0.8-0.8,0.8h-2.1v1.4H63z M58.3,21.6c0,0.3-0.2,0.6-0.5,0.7c-0.1,0-0.2,0-0.2,0
			c-0.2,0-0.5-0.1-0.6-0.3l-3-4.1v3.6c0,0.4-0.3,0.8-0.8,0.8c-0.4,0-0.8-0.3-0.8-0.8c0,0,0,0,0,0l0,0v-5.8c0-0.3,0.2-0.6,0.5-0.7
			c0.1,0,0.2,0,0.2,0c0.2,0,0.5,0.1,0.6,0.3l3,4.1v-3.7c0-0.4,0.3-0.8,0.8-0.8s0.8,0.3,0.8,0.8L58.3,21.6L58.3,21.6z M51.3,21.6
			c0,0.4-0.3,0.8-0.8,0.8c-0.4,0-0.8-0.3-0.8-0.7c0,0,0,0,0,0v-5.9c0-0.4,0.3-0.8,0.7-0.8c0,0,0,0,0,0c0.4,0,0.8,0.3,0.8,0.8V21.6z
			 M48.3,22.4h-3c-0.4,0-0.8-0.3-0.8-0.8v-5.9c0-0.4,0.4-0.7,0.9-0.7c0.4,0,0.6,0.3,0.7,0.7v5.1h2.2c0.4,0,0.8,0.3,0.8,0.8
			C49.1,22,48.7,22.4,48.3,22.4 M68.7,18.4c0-6.6-6.6-11.9-14.7-11.9s-14.7,5.3-14.7,11.9c0,5.9,5.2,10.8,12.3,11.8
			c0.5,0.1,1.1,0.3,1.3,0.7c0.1,0.4,0.1,0.9,0.1,1.3l-0.2,1.2c0,0.4-0.3,1.5,1.3,0.8c1.6-0.7,8.5-5,11.6-8.5
			C67.5,23.8,68.6,21.2,68.7,18.4"/>
	</g>
</g>
</svg>
