<?xml version="1.0" encoding="utf-8"?>
<!-- Generator: Adobe Illustrator 25.0.0, SVG Export Plug-In . SVG Version: 6.00 Build 0)  -->
<svg version="1.1" id="圖層_1" xmlns="http://www.w3.org/2000/svg" xmlns:xlink="http://www.w3.org/1999/xlink" x="0px" y="0px"
	 viewBox="0 0 26 26" style="enable-background:new 0 0 26 26;" xml:space="preserve">
<style type="text/css">
	.st0{fill:#989898;}
</style>
<g id="圖層_2_1_">
	<g id="首頁">
		<path id="Icon_awesome-link" class="st0" d="M16.6,9.4c3,3,3,7.9,0,10.9l0,0l-3.4,3.4c-3.1,2.9-8,2.7-10.9-0.4
			c-2.7-3-2.8-7.5,0-10.5l1.9-1.9c0.3-0.3,0.8-0.3,1.1,0c0.1,0.1,0.2,0.3,0.2,0.5c0,0.9,0.2,1.8,0.5,2.7c0.1,0.3,0,0.6-0.2,0.8
			l-0.7,0.7c-1.5,1.3-1.7,3.6-0.4,5.1s3.6,1.7,5.1,0.4c0.1-0.1,0.2-0.1,0.2-0.2l0.1-0.1l3.4-3.4c1.4-1.4,1.4-3.7,0-5.2c0,0,0,0,0,0
			l0,0c-0.2-0.2-0.3-0.3-0.5-0.4c-0.2-0.1-0.3-0.4-0.4-0.6c0-0.6,0.2-1.1,0.6-1.5l1.1-1.1c0.3-0.3,0.7-0.3,1.1-0.1
			C15.9,8.8,16.2,9.1,16.6,9.4L16.6,9.4z M23.8,2.3c-3-3-7.9-3-10.9,0L9.4,5.7l0,0c-3,3-3,7.9,0,10.9c0.3,0.3,0.6,0.6,1,0.9
			c0.3,0.2,0.7,0.2,1-0.1l1.1-1.1c0.4-0.4,0.6-0.9,0.6-1.5c0-0.3-0.1-0.5-0.4-0.6c-0.2-0.1-0.4-0.3-0.5-0.4c-1.4-1.4-1.4-3.7,0-5.2
			c0,0,0,0,0,0l0,0l3.5-3.4c1.4-1.5,3.7-1.5,5.2-0.1s1.5,3.7,0.1,5.2l-0.1,0.1L20.2,11c-0.2,0.2-0.3,0.5-0.2,0.8
			c0.3,0.9,0.5,1.8,0.5,2.7c0,0.4,0.4,0.8,0.8,0.8c0,0,0,0,0,0c0.2,0,0.4-0.1,0.5-0.2l1.9-1.9C26.8,10.2,26.8,5.3,23.8,2.3L23.8,2.3
			z"/>
	</g>
</g>
</svg>
