<?xml version="1.0" encoding="utf-8"?>
<!-- Generator: Adobe Illustrator 25.0.0, SVG Export Plug-In . SVG Version: 6.00 Build 0)  -->
<svg version="1.1" id="圖層_1" xmlns="http://www.w3.org/2000/svg" xmlns:xlink="http://www.w3.org/1999/xlink" x="0px" y="0px"
	 viewBox="0 0 108 41" style="enable-background:new 0 0 108 41;" xml:space="preserve">
<style type="text/css">
	.st0{fill:#7A7A7A;}
	.st1{fill:#FFFFFF;}
</style>
<rect class="st0" width="108" height="41"/>
<g id="圖層_2_1_">
	<g id="首頁">
		<path id="Icon_awesome-link" class="st1" d="M57.5,17c3,3,3,7.9,0,10.9l0,0l-3.4,3.4c-3.1,2.9-8,2.7-10.9-0.4
			c-2.7-3-2.8-7.5,0-10.5l1.9-1.9c0.3-0.3,0.8-0.3,1.1,0c0.1,0.1,0.2,0.3,0.2,0.5c0,0.9,0.2,1.8,0.5,2.7c0.1,0.3,0,0.6-0.2,0.8
			L46,23.2c-1.5,1.3-1.7,3.6-0.4,5.1c1.3,1.5,3.6,1.7,5.1,0.4c0.1-0.1,0.2-0.1,0.2-0.2l0.1-0.1l3.4-3.4c1.4-1.4,1.4-3.7,0-5.2l0,0
			l0,0c-0.2-0.2-0.3-0.3-0.5-0.4c-0.2-0.1-0.3-0.4-0.4-0.6c0-0.6,0.2-1.1,0.6-1.5l1.1-1.1c0.3-0.3,0.7-0.3,1.1-0.1
			C56.8,16.4,57.1,16.7,57.5,17L57.5,17z M64.7,9.9c-3-3-7.9-3-10.9,0l-3.5,3.4l0,0c-3,3-3,7.9,0,10.9c0.3,0.3,0.6,0.6,1,0.9
			c0.3,0.2,0.7,0.2,1-0.1l1.1-1.1c0.4-0.4,0.6-0.9,0.6-1.5c0-0.3-0.1-0.5-0.4-0.6c-0.2-0.1-0.4-0.3-0.5-0.4c-1.4-1.4-1.4-3.7,0-5.2
			l0,0l0,0l3.5-3.4c1.4-1.5,3.7-1.5,5.2-0.1s1.5,3.7,0.1,5.2L61.8,18l-0.7,0.6c-0.2,0.2-0.3,0.5-0.2,0.8c0.3,0.9,0.5,1.8,0.5,2.7
			c0,0.4,0.4,0.8,0.8,0.8l0,0c0.2,0,0.4-0.1,0.5-0.2l1.9-1.9C67.7,17.8,67.7,12.9,64.7,9.9L64.7,9.9z"/>
	</g>
</g>
</svg>
