<?xml version="1.0" encoding="utf-8"?>
<!-- Generator: Adobe Illustrator 25.0.0, SVG Export Plug-In . SVG Version: 6.00 Build 0)  -->
<svg version="1.1" id="圖層_1" xmlns="http://www.w3.org/2000/svg" xmlns:xlink="http://www.w3.org/1999/xlink" x="0px" y="0px"
	 viewBox="0 0 172.3 45" style="enable-background:new 0 0 172.3 45;" xml:space="preserve">
<style type="text/css">
	.st0{fill:#FFFFFF;}
</style>
<g id="Group_176_1_" transform="translate(-133 -11)">
	<g id="Group_16_1_" transform="translate(182.129 26.942)">
		<path id="Path_43_2_" class="st0" d="M12.4,15.9c-2.3,2.9-6.5,3.3-9.4,1c-0.4-0.3-0.7-0.6-1-1c-1.4-2-2.1-4.4-2-6.8
			c-0.1-2.4,0.6-4.8,2-6.7c2.4-2.9,6.8-3.3,9.7-0.8c0.3,0.3,0.6,0.5,0.8,0.8c1.4,1.9,2.1,4.3,2,6.7C14.6,11.5,13.9,13.9,12.4,15.9z
			 M4.4,13.7c0.9,1.6,2.9,2.2,4.5,1.3c0.5-0.3,1-0.7,1.3-1.3c0.8-1.4,1.1-2.9,1.1-4.5c0.1-1.6-0.3-3.1-1.1-4.5
			c-0.9-1.6-3-2.1-4.6-1.2C5,3.8,4.6,4.2,4.3,4.7C3.6,6,3.2,7.6,3.3,9.1C3.2,10.7,3.6,12.3,4.4,13.7L4.4,13.7z"/>
		<path id="Path_44_2_" class="st0" d="M24.2,18.4c-2,0-3.9-0.8-5.2-2.3c-0.7-0.8-1.3-1.8-1.6-2.9c-0.4-1.3-0.6-2.6-0.6-3.9
			s0.2-2.6,0.6-3.9c0.3-1.1,0.9-2.1,1.6-2.9s1.5-1.4,2.4-1.8C22.3,0.2,23.3,0,24.3,0c1.4,0,2.7,0.5,3.8,1.4c0.3,0.2,0.5,0.6,0.5,1
			c0,0.3-0.1,0.7-0.3,0.9l-0.1,0.1c-0.2,0.3-0.5,0.4-0.9,0.5h-0.1c-0.3,0-0.6-0.1-0.8-0.3c-0.6-0.4-1.3-0.6-2-0.6
			c-1.2,0-2.4,0.6-3.1,1.7C20.4,6,20,7.6,20.1,9.2c-0.1,1.6,0.3,3.2,1.1,4.5c0.7,1.1,1.8,1.7,3.1,1.7c0.9,0,1.7-0.3,2.4-0.8
			c0.2-0.2,0.5-0.3,0.8-0.3h0.1c0.3,0,0.6,0.2,0.8,0.4l0.1,0.1c0.2,0.3,0.3,0.6,0.3,1s-0.1,0.8-0.4,1C27.3,17.8,25.7,18.4,24.2,18.4
			z"/>
		<path id="Path_45_2_" class="st0" d="M33.1,18.1c-0.3,0-0.7-0.1-0.9-0.4s-0.4-0.6-0.4-1v-15c0-0.4,0.1-0.7,0.4-1
			c0.2-0.3,0.5-0.4,0.9-0.4h7.4c0.3,0,0.7,0.1,0.9,0.4s0.4,0.6,0.4,1v0.2c0,0.4-0.1,0.7-0.4,1c-0.2,0.3-0.6,0.4-0.9,0.4h-5.3
			c-0.1,0-0.1,0.1-0.1,0.2v3.7c0,0.1,0,0.2,0.1,0.2h4.3c0.3,0,0.7,0.1,0.9,0.4c0.2,0.3,0.4,0.6,0.4,1V9c0,0.4-0.1,0.7-0.4,1
			c-0.2,0.3-0.5,0.4-0.9,0.4h-4.3c-0.1,0-0.1,0.1-0.1,0.2V15c0,0.1,0,0.2,0.1,0.2h5.5c0.3,0,0.7,0.1,0.9,0.4c0.2,0.3,0.4,0.6,0.4,1
			v0.2c0,0.4-0.1,0.7-0.4,1c-0.2,0.3-0.5,0.4-0.9,0.4L33.1,18.1z"/>
		<path id="Path_46_2_" class="st0" d="M60.5,18.1c-0.3,0-0.7-0.1-0.9-0.4s-0.4-0.6-0.4-1v-15c0-0.4,0.1-0.7,0.4-1
			c0.2-0.3,0.5-0.4,0.9-0.4h0.8c0.4,0,0.8,0.1,1.1,0.3s0.6,0.5,0.8,0.9l4.1,8.2l1.6,3.8c0,0,0,0.1,0.1,0.1s0.1,0,0.1-0.1
			c-0.3-2.9-0.4-4.9-0.4-6.2V1.7c0-0.4,0.1-0.7,0.4-1c0.2-0.3,0.5-0.4,0.9-0.4h0.6c0.3,0,0.7,0.1,0.9,0.4c0.2,0.3,0.4,0.6,0.4,1v15
			c0,0.4-0.1,0.7-0.4,1c-0.2,0.3-0.5,0.4-0.9,0.4h-0.8c-0.4,0-0.8-0.1-1.1-0.3c-0.3-0.2-0.6-0.5-0.8-0.9l-4.1-8.3l-1.6-3.7
			c0,0,0,0-0.1,0H62c0,0.2,0.1,0.7,0.1,1.4C62.2,7,62.2,7.6,62.2,8c0,0.4,0.1,0.9,0.1,1.5s0.1,1.1,0.1,1.6v5.7c0,0.4-0.1,0.7-0.4,1
			c-0.2,0.3-0.5,0.4-0.9,0.4L60.5,18.1z"/>
		<path id="Path_47_2_" class="st0" d="M81.8,18.1c-0.3,0-0.7-0.1-0.9-0.4c-0.2-0.3-0.4-0.6-0.4-1v-15c0-0.4,0.1-0.7,0.4-1
			c0.2-0.3,0.5-0.4,0.9-0.4h0.7c0.3,0,0.7,0.1,0.9,0.4c0.2,0.3,0.4,0.6,0.4,1v13.2c0,0.1,0,0.2,0.1,0.2H89c0.3,0,0.7,0.1,0.9,0.4
			c0.2,0.3,0.4,0.6,0.4,1v0.2c0,0.4-0.1,0.7-0.4,1c-0.2,0.3-0.5,0.4-0.9,0.4H81.8z"/>
		<path id="Path_48_2_" class="st0" d="M94.3,18.1c-0.3,0-0.7-0.1-0.9-0.4c-0.2-0.3-0.4-0.6-0.4-1v-15c0-0.4,0.1-0.7,0.4-1
			c0.2-0.3,0.5-0.4,0.9-0.4H95c0.3,0,0.7,0.1,0.9,0.4c0.2,0.3,0.4,0.6,0.4,1v15c0,0.4-0.1,0.7-0.4,1c-0.2,0.3-0.5,0.4-0.9,0.4H94.3z
			"/>
		<path id="Path_49_2_" class="st0" d="M101.5,18.1c-0.3,0-0.7-0.1-0.9-0.4c-0.2-0.3-0.4-0.6-0.4-1v-15c0-0.4,0.1-0.7,0.4-1
			c0.2-0.3,0.5-0.4,0.9-0.4h7.4c0.3,0,0.7,0.1,0.9,0.4c0.2,0.3,0.4,0.6,0.4,1v0.2c0,0.4-0.1,0.7-0.4,1c-0.2,0.3-0.6,0.4-0.9,0.4
			h-5.3c-0.1,0-0.1,0.1-0.1,0.2v4.3c0,0.1,0,0.2,0.1,0.2h4.3c0.3,0,0.7,0.1,0.9,0.4c0.2,0.3,0.4,0.6,0.4,1v0.2c0,0.4-0.1,0.7-0.4,1
			c-0.2,0.3-0.5,0.4-0.9,0.4h-4.3c-0.1,0-0.1,0.1-0.1,0.2v5.6c0,0.4-0.1,0.7-0.4,1c-0.2,0.3-0.5,0.4-0.9,0.4L101.5,18.1z"/>
		<path id="Path_50_2_" class="st0" d="M114.3,18.1c-0.3,0-0.7-0.1-0.9-0.4c-0.2-0.3-0.4-0.6-0.4-1v-15c0-0.4,0.1-0.7,0.4-1
			c0.2-0.3,0.5-0.4,0.9-0.4h7.4c0.3,0,0.7,0.1,0.9,0.4c0.2,0.3,0.4,0.6,0.4,1v0.2c0,0.4-0.1,0.7-0.4,1c-0.2,0.3-0.6,0.4-0.9,0.4
			h-5.3c-0.1,0-0.1,0.1-0.1,0.2v3.7c0,0.1,0,0.2,0.1,0.2h4.3c0.3,0,0.7,0.2,0.9,0.4c0.2,0.3,0.4,0.6,0.4,1V9c0,0.4-0.1,0.7-0.4,1
			c-0.2,0.3-0.5,0.4-0.9,0.4h-4.3c-0.1,0-0.1,0.1-0.1,0.2V15c0,0.1,0,0.2,0.1,0.2h5.5c0.3,0,0.7,0.1,0.9,0.4c0.2,0.3,0.4,0.6,0.4,1
			v0.2c0,0.4-0.1,0.7-0.4,1c-0.2,0.3-0.6,0.4-0.9,0.4L114.3,18.1z"/>
		<path id="Path_51_2_" class="st0" d="M57,16.8L52.6,1.6c-0.1-0.4-0.3-0.7-0.6-0.9s-0.6-0.4-1-0.4h-1.3c-0.4,0-0.7,0.1-1,0.4
			c-0.3,0.2-0.5,0.6-0.6,0.9l-4.4,15.1c0,0.1,0,0.2,0,0.3c0,0.2,0.1,0.4,0.2,0.6c0.2,0.3,0.4,0.4,0.7,0.4h0.8c0.4,0,0.7-0.1,1-0.4
			s0.5-0.6,0.6-1c0,0,2.9-11.8,3.3-13.7c0,0,0,0,0.1,0l0,0c0.1,0.4,3.4,13.7,3.4,13.7c0.1,0.4,0.3,0.7,0.6,1c0.3,0.2,0.6,0.4,1,0.4
			h0.9c0.3,0,0.6-0.2,0.7-0.4c0.1-0.2,0.2-0.4,0.2-0.6C57,17,57,16.9,57,16.8z"/>
	</g>
	<g id="Group_13_1_" transform="translate(163.629 11)">
		<path id="Path_52_1_" class="st0" d="M2.8,5.6L2.8,5.6C1.2,5.6,0,4.3,0,2.8C0,1.2,1.3,0,2.8,0l0,0c0.7,0,1.5,0.3,2,0.8
			s0.8,1.2,0.8,2C5.6,4.3,4.3,5.6,2.8,5.6L2.8,5.6z M2.8,1.2c-0.4,0-0.9,0.1-1.2,0.4C1,2.3,1,3.4,1.7,4c0.3,0.3,0.7,0.4,1,0.4l0,0
			c0.9,0,1.6-0.7,1.6-1.6c0,0,0,0,0-0.1c0-0.4-0.1-0.8-0.4-1.1C3.7,1.3,3.2,1.2,2.8,1.2L2.8,1.2z"/>
	</g>
	<path id="Path_53_1_" class="st0" d="M168.4,21.4c0-2.2,1.8-3.9,4-3.9s3.9,1.8,3.9,4s-1.8,3.9-3.9,3.9c-2.2,0-3.9-1.7-4-3.9
		C168.4,21.5,168.4,21.5,168.4,21.4z"/>
	<g id="Group_14_1_" transform="translate(133 23.713)">
		<path id="Path_54_1_" class="st0" d="M6.1,11.1L10.2,7C8.6,5.3,7.1,3.7,5.6,2.1c-1.1-1.3-3-1.4-4.2-0.3l0,0
			c-1.2,1.1-1.3,2.9-0.2,4l0.1,0.1C2.9,7.7,4.5,9.4,6.1,11.1z"/>
		<path id="Path_55_1_" class="st0" d="M34,3.6c-1.1-0.9-2.4-1.7-3.7-2.4c-3.3-1.6-7.2-1.6-10.5,0C16.6,2.7,0.5,19.6,0.5,19.6
			c-0.9,1.4-0.5,3.2,0.9,4c0.3,0.2,0.7,0.3,1,0.4c1,0.2,2-0.1,2.7-0.9c1.7-1.7,6.2-6.2,6.4-6.4c0.1,0.2,3.4,3.5,5.1,4.8
			c2.7,2.3,6.1,3.4,9.6,3.2c2.5-0.2,4.9-1.3,6.8-2.9C38.8,16.8,40.4,8.8,34,3.6z M31,15.9c-1.1,1.3-2.7,2.3-4.3,2.7l0,0
			c-0.1,0-0.2,0-0.2,0.1c-0.1,0-0.2,0-0.3,0.1l0,0c-0.8,0.1-1.5,0.1-2.3-0.1c-0.9-0.2-1.8-0.6-2.7-1.1c-0.6-0.4-1.2-0.8-1.7-1.3l0,0
			l-3.8-2.9c-0.3-0.2-0.4-0.7-0.1-1c0,0,0-0.1,0.1-0.1c0.1-0.1,0.5-0.5,0.8-0.8C18,9.7,19.7,8.2,21.6,7c0.6-0.4,1.2-0.6,1.9-0.8
			c0.6-0.2,1.2-0.3,1.8-0.3l0,0c0.1,0,0.3,0,0.4,0s0.1,0,0.2,0H26C30.5,6.4,34.5,11.7,31,15.9z"/>
	</g>
</g>
</svg>
