<?xml version="1.0" encoding="utf-8"?>
<!-- Generator: Adobe Illustrator 25.0.0, SVG Export Plug-In . SVG Version: 6.00 Build 0)  -->
<svg version="1.1" id="圖層_1" xmlns="http://www.w3.org/2000/svg" xmlns:xlink="http://www.w3.org/1999/xlink" x="0px" y="0px"
	 viewBox="0 0 227.3 147.5" style="enable-background:new 0 0 227.3 147.5;" xml:space="preserve">
<style type="text/css">
	.st0{fill:#FFFFFF;}
</style>
<g id="圖層_2_1_">
	<g id="首頁">
		<path class="st0" d="M23,143.3c-2.4,2.8-6,4.3-9.7,4.2c-3.7,0.1-7.2-1.4-9.6-4.2c-2.5-2.8-3.7-6.6-3.7-11.4
			c0-4.8,1.2-8.5,3.7-11.2c2.4-2.7,6-4.2,9.7-4.1c3.7-0.1,7.2,1.4,9.7,4.1c2.4,2.7,3.6,6.5,3.6,11.2C26.7,136.7,25.4,140.5,23,143.3
			z M8.1,139.5c1.1,1.8,3.1,2.9,5.3,2.8c2.1,0,4.1-1,5.3-2.8c1.4-2.3,2.1-4.9,2-7.6c0.1-2.6-0.6-5.3-2-7.5c-1.2-1.8-3.2-2.8-5.3-2.7
			c-2.1-0.1-4.1,1-5.3,2.7c-1.4,2.2-2.1,4.9-1.9,7.5C5.9,134.6,6.6,137.2,8.1,139.5z"/>
		<path class="st0" d="M44.6,147.5c-1.8,0-3.6-0.3-5.3-1c-1.6-0.7-3.1-1.7-4.3-2.9c-1.3-1.4-2.3-3-2.9-4.8c-1.5-4.3-1.5-8.9,0-13.1
			c0.6-1.8,1.7-3.5,3-4.9c1.3-1.3,2.8-2.3,4.4-3c1.7-0.7,3.5-1.1,5.3-1.1c2.5,0,5,0.8,7,2.3c0.6,0.4,0.9,1,0.9,1.7
			c0,0.6-0.2,1.1-0.6,1.6l-0.2,0.2c-0.4,0.5-1,0.8-1.6,0.8h-0.2c-0.5,0-1.1-0.1-1.5-0.4c-1.1-0.7-2.3-1.1-3.6-1.1
			c-2.2,0-4.3,1-5.7,2.8c-1.6,2.2-2.4,4.8-2.2,7.5c-0.2,2.7,0.6,5.4,2.1,7.6c1.3,1.8,3.4,2.9,5.7,2.8c1.6,0,3.1-0.5,4.4-1.4
			c0.5-0.3,1-0.5,1.5-0.5h0.2c0.6,0,1.2,0.3,1.5,0.8l0.2,0.1c0.4,0.4,0.6,1,0.6,1.6c0,0.7-0.3,1.3-0.8,1.7
			C50.3,146.6,47.5,147.5,44.6,147.5z"/>
		<path class="st0" d="M61.2,146.9c-0.6,0-1.2-0.2-1.6-0.7c-0.4-0.4-0.7-1-0.7-1.6v-25.2c0-1.3,1-2.3,2.3-2.3h13.6
			c0.6,0,1.2,0.2,1.7,0.7c0.4,0.4,0.7,1,0.7,1.6v0.3c0,1.3-1,2.3-2.3,2.3c0,0,0,0-0.1,0h-9.7c-0.2,0-0.3,0.1-0.3,0.3v6.3
			c0,0.1,0.1,0.3,0.2,0.3c0,0,0,0,0.1,0H73c1.3,0,2.3,1,2.3,2.3v0.4c0,0.6-0.2,1.2-0.7,1.6c-0.4,0.5-1,0.7-1.6,0.7h-7.9
			c-0.2,0-0.3,0.1-0.3,0.3v7.4c0,0.1,0.1,0.3,0.2,0.3c0,0,0,0,0.1,0h10.1c0.6,0,1.2,0.2,1.7,0.7c0.4,0.4,0.7,1,0.7,1.6v0.4
			c0,0.6-0.2,1.2-0.7,1.6c-0.4,0.5-1,0.7-1.7,0.7L61.2,146.9z"/>
		<path class="st0" d="M111.7,146.9c-0.6,0-1.2-0.2-1.6-0.7c-0.4-0.4-0.7-1-0.7-1.6v-25.2c0-1.3,1-2.3,2.3-2.3h1.5
			c0.7,0,1.4,0.2,2,0.6c0.6,0.4,1.1,0.9,1.4,1.5l7.5,13.8l3,6.3c0,0.1,0.1,0.1,0.1,0.1s0.1,0,0.1-0.1c-0.5-4.8-0.8-8.3-0.8-10.3
			v-9.6c0-1.3,1-2.3,2.3-2.3h1c1.3,0,2.3,1,2.3,2.3v25.2c0,0.6-0.2,1.2-0.7,1.6c-0.4,0.4-1,0.7-1.6,0.7h-1.4c-1.4,0-2.7-0.8-3.4-2
			l-7.5-13.9l-3-6.3c0-0.1-0.1-0.1-0.1-0.1s-0.1,0-0.1,0.1c0,0.4,0.1,1.2,0.2,2.4c0.1,1.2,0.2,2.1,0.2,2.8s0.1,1.5,0.2,2.4
			s0.1,1.9,0.1,2.7v9.6c0,0.6-0.2,1.2-0.7,1.6c-0.4,0.4-1,0.7-1.6,0.7L111.7,146.9z"/>
		<path class="st0" d="M150.9,146.9c-0.6,0-1.2-0.2-1.6-0.7c-0.4-0.4-0.7-1-0.7-1.6v-25.2c0-1.3,1-2.3,2.3-2.3h1.3
			c1.3,0,2.3,1,2.3,2.3v22.2c0,0.1,0.1,0.3,0.2,0.3c0,0,0,0,0.1,0h9.5c1.3,0,2.3,1,2.3,2.3v0.4c0,0.6-0.2,1.2-0.7,1.6
			c-0.4,0.4-1,0.7-1.6,0.7L150.9,146.9z"/>
		<path class="st0" d="M174.1,146.9c-1.3,0-2.3-1-2.3-2.3v-25.2c0-0.6,0.2-1.2,0.7-1.6c0.4-0.4,1-0.7,1.6-0.7h1.3
			c1.3,0,2.3,1,2.3,2.3v25.2c0,0.6-0.2,1.2-0.7,1.6c-0.4,0.4-1,0.7-1.6,0.7H174.1z"/>
		<path class="st0" d="M187.4,146.9c-0.6,0-1.2-0.2-1.6-0.7c-0.4-0.4-0.7-1-0.7-1.6v-25.2c0-1.3,1-2.3,2.3-2.3h13.7
			c0.6,0,1.2,0.2,1.6,0.7c0.4,0.4,0.7,1,0.7,1.6v0.3c0,0.6-0.2,1.2-0.7,1.7c-0.4,0.4-1,0.7-1.6,0.7h-9.8c-0.2,0-0.3,0.1-0.3,0.3v7.1
			c0,0.2,0.1,0.3,0.3,0.3h8c0.6,0,1.2,0.2,1.6,0.7c0.5,0.4,0.7,1,0.7,1.6v0.4c0,1.3-1,2.3-2.3,2.3h-8c-0.1,0-0.3,0.1-0.3,0.2
			c0,0,0,0,0,0.1v9.5c0,0.6-0.2,1.2-0.7,1.6c-0.4,0.4-1,0.7-1.6,0.7L187.4,146.9z"/>
		<path class="st0" d="M210.9,146.9c-0.6,0-1.2-0.2-1.6-0.7c-0.4-0.4-0.7-1-0.7-1.6v-25.2c0-1.3,1-2.3,2.3-2.3h13.6
			c0.6,0,1.2,0.2,1.6,0.7c0.4,0.4,0.7,1,0.7,1.6v0.3c0,1.3-1,2.3-2.3,2.3c0,0,0,0-0.1,0h-9.7c-0.2,0-0.3,0.1-0.3,0.3v6.3
			c0,0.2,0.1,0.3,0.3,0.3h7.9c1.3,0,2.3,1,2.3,2.3v0.4c0,0.6-0.2,1.2-0.7,1.6c-0.4,0.4-1,0.7-1.6,0.7h-7.9c-0.2,0-0.3,0.1-0.3,0.3
			v7.4c0,0.2,0.1,0.3,0.3,0.3H225c0.6,0,1.2,0.2,1.6,0.7c0.4,0.4,0.7,1,0.7,1.6v0.4c0,0.6-0.2,1.2-0.7,1.6c-0.4,0.4-1,0.7-1.6,0.7
			L210.9,146.9z"/>
		<path class="st0" d="M105.2,144.7l-8.2-25.4c-0.4-1.3-1.6-2.2-3-2.2h-2.4c-1.4,0-2.6,0.9-3,2.2l-8.2,25.4
			c-0.1,0.2-0.1,0.4-0.1,0.6c0,0.9,0.8,1.7,1.7,1.6h1.4c0.7,0,1.3-0.2,1.8-0.6c0.5-0.4,0.9-1,1.1-1.6l0,0c0,0,5.4-19.8,6.2-23
			c0,0,0.1-0.1,0.1-0.1c0,0,0.1,0,0.1,0.1c0,0,0,0,0,0c0.2,0.6,6.4,23.3,6.4,23.3c0.5,1.1,1.6,1.9,2.8,1.9h1.6c0.5,0,1-0.3,1.3-0.7
			c0.2-0.3,0.4-0.6,0.4-0.9C105.3,145.1,105.3,144.9,105.2,144.7z"/>
		<path class="st0" d="M67,51.6l13-13.3c-4.9-5.2-9.8-10.4-14.7-15.6c-3.7-4-9.6-4.4-13.5-0.8c-3.7,3.4-4,9.2-0.6,12.9
			c0.1,0.1,0.2,0.2,0.3,0.4C56.7,40.6,61.8,46.1,67,51.6z"/>
		<path class="st0" d="M172.8,17.9L172.8,17.9c-5-0.1-8.9-4.1-8.9-9c0-2.4,0.9-4.7,2.5-6.4c1.8-1.7,4.1-2.6,6.6-2.5l0,0
			c2.4,0,4.7,0.9,6.4,2.6c1.6,1.7,2.5,4,2.5,6.3C181.9,13.9,177.9,17.9,172.8,17.9C172.9,17.9,172.8,17.9,172.8,17.9z M172.9,3.8
			c-1.4-0.1-2.8,0.4-3.8,1.4c-0.9,1-1.5,2.3-1.4,3.7c-0.1,2.8,2.2,5.2,5,5.3c0,0,0.1,0,0.1,0l0,0c2.9,0.1,5.2-2.2,5.3-5.1
			c0-0.1,0-0.1,0-0.2c0-1.4-0.5-2.7-1.4-3.6C175.6,4.3,174.3,3.7,172.9,3.8z"/>
		<path class="st0" d="M179.3,33.4c0-7,5.7-12.6,12.7-12.6s12.6,5.7,12.6,12.7l0,0c0,7-5.6,12.7-12.6,12.7c0,0,0,0,0,0
			c-6.9,0.1-12.6-5.4-12.7-12.3C179.3,33.7,179.3,33.5,179.3,33.4z"/>
		<path class="st0" d="M156.3,27.5c-3.7-3-7.6-5.6-11.9-7.7c-10.8-5.4-22.9-4.8-33.7,0.1C100.6,24.6,49,78.6,49,78.6
			c-2.8,4.4-1.5,10.2,2.8,13c1,0.6,2.1,1.1,3.3,1.3c3.2,0.6,6.5-0.5,8.7-2.9l18.2-18.3c1.2-1.2,3.3-1.2,4.5,0c0,0,0,0,0,0
			c3.4,3.5,10.1,10,14,13.1c8.9,7.1,19,11.1,30.8,10.1c8.1-0.8,15.7-4.1,21.8-9.4C171.6,69.8,176.8,44.2,156.3,27.5z M146.6,66.9
			c-3.7,4.2-8.5,7.2-13.9,8.7h-0.1c-0.2,0.1-0.5,0.1-0.8,0.2s-0.7,0.1-1,0.2l0,0c-1.1,0.2-2.1,0.3-3.2,0.3c-1.4,0-2.7-0.2-4.1-0.4
			c-3-0.7-5.9-1.9-8.5-3.6c-1.9-1.2-3.8-2.5-5.6-4l-0.1-0.1l-12.1-9.3c-1-0.8-1.2-2.2-0.4-3.2c0.1-0.1,0.1-0.2,0.2-0.3
			c0.3-0.3,1.4-1.7,2.4-2.7c4.8-5.5,10-10.7,16.5-14.5c1.9-1.1,3.9-2.1,6-2.7c1.9-0.6,3.8-0.8,5.7-0.8l0,0c0.4,0,0.8,0,1.3,0.1h0.6
			h0.4C145.1,36.4,158,53.3,146.6,66.9L146.6,66.9z"/>
	</g>
</g>
</svg>
