<?xml version="1.0" encoding="utf-8"?>
<!-- Generator: Adobe Illustrator 25.0.0, SVG Export Plug-In . SVG Version: 6.00 Build 0)  -->
<svg version="1.1" id="圖層_1" xmlns="http://www.w3.org/2000/svg" xmlns:xlink="http://www.w3.org/1999/xlink" x="0px" y="0px"
	 viewBox="0 0 31.2 24" style="enable-background:new 0 0 31.2 24;" xml:space="preserve">
<style type="text/css">
	.st0{fill:#1152A0;}
</style>
<path class="st0" d="M14.6,23.1L14.6,23.1c1.3-1.3,1.3-3.4,0-4.8l-2.9-2.9h18.4c0.6,0,1.1-0.5,1.1-1.1V9.7c0-0.6-0.5-1.1-1.1-1.1
	H11.8l2.9-2.9C16,4.5,16,2.3,14.6,1l0,0c-1.3-1.3-3.4-1.3-4.8,0l-9.1,9.1c-1.1,1.1-1.1,2.8,0,3.9l9.1,9.1
	C11.2,24.4,13.3,24.4,14.6,23.1z"/>
</svg>
