<?xml version="1.0" encoding="utf-8"?>
<!-- Generator: Adobe Illustrator 25.0.0, SVG Export Plug-In . SVG Version: 6.00 Build 0)  -->
<svg version="1.1" id="圖層_1" xmlns="http://www.w3.org/2000/svg" xmlns:xlink="http://www.w3.org/1999/xlink" x="0px" y="0px"
	 viewBox="0 0 31.2 24" style="enable-background:new 0 0 31.2 24;" xml:space="preserve">
<style type="text/css">
	.st0{fill:#1152A0;}
</style>
<path class="st0" d="M16.5,1L16.5,1c-1.3,1.3-1.3,3.4,0,4.8l2.9,2.9H1.1C0.5,8.7,0,9.1,0,9.7v4.6c0,0.6,0.5,1.1,1.1,1.1h18.4
	l-2.9,2.9c-1.3,1.3-1.3,3.4,0,4.8l0,0c1.3,1.3,3.4,1.3,4.8,0l9.1-9.1c1.1-1.1,1.1-2.8,0-3.9L21.3,1C20-0.3,17.8-0.3,16.5,1z"/>
</svg>
