<svg xmlns="http://www.w3.org/2000/svg" viewBox="0 0 118.26 43.25"><defs><style>.cls-1{fill:#fff;}</style></defs><g id="圖層_2" data-name="圖層 2"><g id="館內導覽"><g id="Group_45" data-name="Group 45"><path id="Path_60" data-name="Path 60" class="cls-1" d="M81.93,8.16a15.93,15.93,0,0,1,.48-3.29c0-.21.48-3.07.53-3.07-2.33.2-3.48,3.52-5.82,3.92S71.66,5,69.42,4.44l-.37-.07a13.21,13.21,0,0,0,.65-1.61A3.24,3.24,0,0,0,67,4a48.17,48.17,0,0,0-4.92-.71,10.65,10.65,0,0,1,.32-1.2A12.69,12.69,0,0,0,63.22,0a6.45,6.45,0,0,0-5,3.32A29,29,0,0,0,47.69,6.41c-.88.44-2.25.84-1.61,2a2.32,2.32,0,0,0,.65.71,11.77,11.77,0,0,0,3.6,1.42,36.34,36.34,0,0,0,10.1,1.26h.28a4.47,4.47,0,0,0,4,2.18A8.55,8.55,0,0,0,64,12.62a7.44,7.44,0,0,1-.4-1,62.56,62.56,0,0,0,6.39-1c1.73-.37,3.35-.83,5.1-1.06,1.42-.2,3.41-.36,4.73.3.79.4,1.85,1.93,2.82,1.49C82.66,10.18,82,9.24,81.93,8.16Z"/><path id="Path_61" data-name="Path 61" class="cls-1" d="M36,28.91a15.85,15.85,0,0,1,.42-3.29c0-.22.43-3.08.47-3.09-2.32.26-3.41,3.59-5.74,4s-5.48-.63-7.73-1.14l-.37-.06a12.27,12.27,0,0,0,.62-1.62A3.25,3.25,0,0,0,21.05,25a48.11,48.11,0,0,0-4.93-.62q.12-.6.3-1.2a11.9,11.9,0,0,0,.74-2.1,6.47,6.47,0,0,0-4.9,3.41A28.38,28.38,0,0,0,6,25.9a30.14,30.14,0,0,0-4.28,1.87c-.87.46-2.24.88-1.57,2.05a2.21,2.21,0,0,0,.66.7,11.8,11.8,0,0,0,3.63,1.36A36.63,36.63,0,0,0,14.58,33l.28,0a4.48,4.48,0,0,0,4,2.11,8.09,8.09,0,0,0-.76-1.35,9.1,9.1,0,0,1-.42-1,60.09,60.09,0,0,0,6.38-1.16c1.72-.41,3.33-.89,5.08-1.16a8.92,8.92,0,0,1,4.73.22c.8.38,1.89,1.9,2.85,1.44C36.79,30.93,36.08,30,36,28.91Z"/><path id="Path_62" data-name="Path 62" class="cls-1" d="M102.23,34.35a20.91,20.91,0,0,1,.43-4.4c0-.3.44-4.13.5-4.14-3.08.43-4.4,4.92-7.5,5.6s-7.33-.62-10.34-1.21l-.5-.07a16.63,16.63,0,0,0,.75-2.19c-1.22-.18-2.6.79-3.46,1.82a60.89,60.89,0,0,0-6.6-.63,14.58,14.58,0,0,1,.35-1.62,17.49,17.49,0,0,0,.91-2.82,8.61,8.61,0,0,0-6.4,4.74,37.56,37.56,0,0,0-8.26,2.12,40.31,40.31,0,0,0-5.64,2.66c-1.13.65-2.94,1.27-2,2.8a3,3,0,0,0,.92.91,15.64,15.64,0,0,0,4.89,1.66,48.42,48.42,0,0,0,13.53,1l.37,0a5.94,5.94,0,0,0,5.43,2.65,11.41,11.41,0,0,0-1.07-1.77,10.73,10.73,0,0,1-.6-1.34,81.57,81.57,0,0,0,8.46-1.8c2.28-.61,4.41-1.32,6.73-1.75,1.87-.35,4.53-.68,6.33.11,1.08.48,2.58,2.46,3.85,1.8C103.34,37,102.36,35.79,102.23,34.35Z"/><path id="Path_63" data-name="Path 63" class="cls-1" d="M117.52,16.16a9.77,9.77,0,0,1,.36-2.14c0-.14.35-2,.38-2-1.52.1-2.32,2.25-3.86,2.48s-3.56-.55-5-.94l-.24-.05a9.75,9.75,0,0,0,.45-1,2.12,2.12,0,0,0-1.76.77,29.24,29.24,0,0,0-3.2-.53,6.39,6.39,0,0,1,.22-.78,8.64,8.64,0,0,0,.54-1.35,4.22,4.22,0,0,0-3.29,2.1,18.4,18.4,0,0,0-4.1.75,20.51,20.51,0,0,0-2.85,1.11c-.58.28-1.48.52-1.08,1.3a1.49,1.49,0,0,0,.42.48,7.85,7.85,0,0,0,2.33,1,24,24,0,0,0,6.58,1h.18a2.93,2.93,0,0,0,2.57,1.48,5.91,5.91,0,0,0-.47-.9,5.49,5.49,0,0,1-.24-.68,39.83,39.83,0,0,0,4.19-.59c1.14-.22,2.2-.49,3.35-.63a5.82,5.82,0,0,1,3.09.27c.51.27,1.18,1.29,1.82,1C118,17.5,117.53,16.87,117.52,16.16Z"/></g></g></g></svg>