<svg xmlns="http://www.w3.org/2000/svg" viewBox="0 0 296.74 89.2"><defs><style>.cls-1{fill:#fff;}</style></defs><g id="圖層_2" data-name="圖層 2"><g id="館內導覽"><g id="Group_113" data-name="Group 113"><g id="Group_46" data-name="Group 46"><path id="Path_64" data-name="Path 64" class="cls-1" d="M67.36,43.06a15.81,15.81,0,0,0-.29-3.22c0-.21-.31-3-.35-3,2.25.32,3.19,3.61,5.45,4.12s5.36-.41,7.57-.83l.36,0a11.15,11.15,0,0,1-.54-1.6,3.16,3.16,0,0,1,2.52,1.35,43.53,43.53,0,0,1,4.83-.43,9.68,9.68,0,0,0-.25-1.19A13.44,13.44,0,0,1,86,36.12a6.3,6.3,0,0,1,4.65,3.5,27.77,27.77,0,0,1,6,1.59,28.76,28.76,0,0,1,4.11,2c.83.48,2.15.94,1.46,2.05a2.25,2.25,0,0,1-.68.66A11.36,11.36,0,0,1,98,47.09a35.38,35.38,0,0,1-9.9.7l-.26,0a4.36,4.36,0,0,1-4,1.91,9.48,9.48,0,0,1,.79-1.29,7,7,0,0,0,.44-1,62.94,62.94,0,0,1-6.17-1.36c-1.66-.46-3.21-1-4.91-1.31a8.53,8.53,0,0,0-4.62,0c-.79.34-1.9,1.78-2.82,1.3C66.53,45,67.26,44.11,67.36,43.06Z"/><path id="Path_65" data-name="Path 65" class="cls-1" d="M68.2,60.52a16.71,16.71,0,0,0-.26-3.46c0-.23-.27-3.25-.31-3.26,2.41.4,3.36,4,5.78,4.54s5.76-.35,8.15-.74l.38-.05a15.11,15.11,0,0,1-.55-1.73,3.42,3.42,0,0,1,2.69,1.48,49.89,49.89,0,0,1,5.19-.36c-.06-.43-.14-.86-.24-1.28a12.41,12.41,0,0,1-.66-2.23,6.77,6.77,0,0,1,4.93,3.84,30.79,30.79,0,0,1,10.82,4c.88.53,2.28,1.05,1.53,2.23a2.6,2.6,0,0,1-.74.7A12.63,12.63,0,0,1,101,65.44,38,38,0,0,1,90.39,66l-.28,0a4.68,4.68,0,0,1-4.32,2c-.11,0,.8-1.25.87-1.36a8.4,8.4,0,0,0,.5-1,62.11,62.11,0,0,1-6.6-1.58c-1.78-.52-3.43-1.12-5.25-1.5-1.46-.31-3.54-.62-5,0-.86.35-2.08,1.87-3.06,1.33C67.27,62.59,68.07,61.65,68.2,60.52Z"/><path id="Path_66" data-name="Path 66" class="cls-1" d="M34.4,48.23a12,12,0,0,0-.3-2.67c0-.18-.31-2.52-.34-2.52,1.88.23,2.73,3,4.62,3.34s4.46-.45,6.29-.83l.3,0a9.07,9.07,0,0,1-.48-1.32,2.63,2.63,0,0,1,2.12,1.07,36.06,36.06,0,0,1,4-.44c-.06-.34-.14-.66-.23-1a10.13,10.13,0,0,1-.58-1.71,5.23,5.23,0,0,1,3.94,2.83,22.69,22.69,0,0,1,5.05,1.22,24.41,24.41,0,0,1,3.46,1.56c.7.39,1.8.75,1.25,1.69A1.73,1.73,0,0,1,63,50,9.6,9.6,0,0,1,60,51a29.94,29.94,0,0,1-8.23.76l-.22,0a3.64,3.64,0,0,1-3.29,1.66,8,8,0,0,1,.64-1.09,7.48,7.48,0,0,0,.35-.82,50.06,50.06,0,0,1-5.16-1c-1.4-.35-2.7-.76-4.12-1a7.19,7.19,0,0,0-3.85.13c-.65.3-1.55,1.52-2.33,1.13C33.75,49.86,34.34,49.11,34.4,48.23Z"/><path id="Path_67" data-name="Path 67" class="cls-1" d="M32.79,77.73a12,12,0,0,0-.3-2.68c0-.18-.3-2.51-.34-2.52,1.88.23,2.73,3,4.62,3.34s4.46-.44,6.29-.83l.3-.05a9.07,9.07,0,0,1-.48-1.32A2.63,2.63,0,0,1,45,74.74a36.06,36.06,0,0,1,4-.44c-.06-.33-.14-.66-.23-1a10.13,10.13,0,0,1-.58-1.71,5.25,5.25,0,0,1,3.94,2.83,22.69,22.69,0,0,1,5.05,1.22,23.87,23.87,0,0,1,3.46,1.57c.7.38,1.8.74,1.25,1.68a1.67,1.67,0,0,1-.56.56,9.21,9.21,0,0,1-3,1.06,29.56,29.56,0,0,1-8.23.76l-.22,0a3.62,3.62,0,0,1-3.29,1.66,6.53,6.53,0,0,1,.64-1.08,8.58,8.58,0,0,0,.35-.83,50.06,50.06,0,0,1-5.16-1c-1.4-.35-2.7-.76-4.12-1a7.3,7.3,0,0,0-3.85.13c-.66.3-1.55,1.52-2.33,1.13C32.14,79.35,32.73,78.6,32.79,77.73Z"/><path id="Path_68" data-name="Path 68" class="cls-1" d="M158.27,61a10.65,10.65,0,0,0-.26-2.32c0-.15-.26-2.17-.29-2.17,1.62.2,2.35,2.55,4,2.89s3.85-.39,5.43-.72l.26,0a9.24,9.24,0,0,1-.41-1.15,2.26,2.26,0,0,1,1.83.93,33.67,33.67,0,0,1,3.48-.39c-.06-.3-.13-.6-.2-.85a8.49,8.49,0,0,1-.5-1.47,4.5,4.5,0,0,1,3.4,2.44,19.89,19.89,0,0,1,4.37,1,20.63,20.63,0,0,1,3,1.36c.6.33,1.56.64,1.08,1.45a1.6,1.6,0,0,1-.48.49,8.24,8.24,0,0,1-2.56.91,25.81,25.81,0,0,1-7.12.66l-.19,0a3.13,3.13,0,0,1-2.84,1.44,6.79,6.79,0,0,1,.55-.94,4.87,4.87,0,0,0,.3-.71,45.06,45.06,0,0,1-4.46-.88c-1.21-.31-2.33-.66-3.56-.87a6.18,6.18,0,0,0-3.33.11c-.56.26-1.34,1.31-2,1C157.71,62.44,158.22,61.79,158.27,61Z"/><path id="Path_69" data-name="Path 69" class="cls-1" d="M106.59,52.17a12,12,0,0,0-.3-2.67c0-.18-.31-2.51-.34-2.52,1.88.23,2.72,3,4.62,3.34s4.46-.45,6.29-.83l.29-.05a10.41,10.41,0,0,1-.48-1.32,2.63,2.63,0,0,1,2.13,1.07,36.06,36.06,0,0,1,4-.44c-.06-.34-.14-.66-.23-1a9.31,9.31,0,0,1-.58-1.71A5.29,5.29,0,0,1,126,48.88a22.47,22.47,0,0,1,5,1.22,23.92,23.92,0,0,1,3.46,1.56c.7.39,1.8.75,1.26,1.69a1.87,1.87,0,0,1-.56.56,9.45,9.45,0,0,1-3,1.06,30,30,0,0,1-8.23.76l-.23,0a3.61,3.61,0,0,1-3.28,1.66,7.06,7.06,0,0,1,.64-1.09,7.48,7.48,0,0,0,.35-.82,50.78,50.78,0,0,1-5.17-1c-1.4-.35-2.7-.76-4.11-1a7.19,7.19,0,0,0-3.85.13c-.66.3-1.55,1.51-2.33,1.13C105.94,53.8,106.53,53.05,106.59,52.17Z"/><path id="Path_70" data-name="Path 70" class="cls-1" d="M115.82,70.85a13.42,13.42,0,0,0-.3-2.68c0-.18-.31-2.51-.35-2.52,1.88.24,2.73,3,4.62,3.34s4.46-.44,6.29-.83l.3,0a10.55,10.55,0,0,1-.48-1.33A2.63,2.63,0,0,1,128,67.86a36.06,36.06,0,0,1,4-.44,8.84,8.84,0,0,0-.23-1,11.1,11.1,0,0,1-.58-1.71,5.25,5.25,0,0,1,3.94,2.83,23.09,23.09,0,0,1,5.05,1.21,24.52,24.52,0,0,1,3.46,1.58c.7.38,1.8.74,1.25,1.68a1.73,1.73,0,0,1-.55.56,9.21,9.21,0,0,1-3,1.06,29.63,29.63,0,0,1-8.23.76l-.23,0A3.61,3.61,0,0,1,129.68,76a7.25,7.25,0,0,1,.63-1.08,5,5,0,0,0,.35-.83,50.59,50.59,0,0,1-5.16-1c-1.4-.35-2.7-.76-4.12-1a7.19,7.19,0,0,0-3.85.13c-.65.3-1.55,1.51-2.33,1.13C115.16,72.48,115.75,71.72,115.82,70.85Z"/><path id="Path_71" data-name="Path 71" class="cls-1" d="M.65,64.56a13.42,13.42,0,0,0-.3-2.68c0-.18-.31-2.51-.35-2.51,1.88.23,2.73,3,4.62,3.34s4.46-.45,6.29-.83l.3-.05a10.41,10.41,0,0,1-.48-1.32,2.59,2.59,0,0,1,2.12,1.06,38.89,38.89,0,0,1,4-.44,8.2,8.2,0,0,0-.23-1,11.47,11.47,0,0,1-.58-1.71A5.23,5.23,0,0,1,20,61.27a23,23,0,0,1,5.05,1.21,24.47,24.47,0,0,1,3.46,1.57c.7.39,1.8.74,1.25,1.69a2,2,0,0,1-.55.56,9.71,9.71,0,0,1-3,1.06,29.62,29.62,0,0,1-8.23.75l-.23,0a3.64,3.64,0,0,1-3.28,1.67,7.36,7.36,0,0,1,.63-1.09,4.93,4.93,0,0,0,.35-.82,50.59,50.59,0,0,1-5.16-1c-1.4-.36-2.7-.76-4.11-1A7.23,7.23,0,0,0,2.36,66c-.65.3-1.55,1.52-2.33,1.13C0,66.19.58,65.44.65,64.56Z"/><path id="Path_72" data-name="Path 72" class="cls-1" d="M80,84a13.42,13.42,0,0,0-.3-2.68c0-.17-.31-2.51-.35-2.51,1.89.23,2.73,3,4.62,3.34s4.46-.45,6.29-.83l.3,0A10.41,10.41,0,0,1,90,79.94,2.61,2.61,0,0,1,92.16,81a38.73,38.73,0,0,1,4-.45c-.06-.33-.13-.66-.22-1a9.31,9.31,0,0,1-.58-1.71,5.26,5.26,0,0,1,3.94,2.83,23,23,0,0,1,5,1.21,24.47,24.47,0,0,1,3.46,1.57c.7.39,1.8.75,1.25,1.69a2,2,0,0,1-.55.56,9.71,9.71,0,0,1-3,1.06,29.62,29.62,0,0,1-8.23.75l-.23,0a3.62,3.62,0,0,1-3.28,1.67,7.9,7.9,0,0,1,.63-1.09,6,6,0,0,0,.36-.82,50.25,50.25,0,0,1-5.17-1c-1.4-.35-2.7-.76-4.11-1a7.13,7.13,0,0,0-3.86.13c-.65.3-1.55,1.51-2.32,1.13C79.3,85.62,79.89,84.87,80,84Z"/></g><g id="Group_47" data-name="Group 47"><path id="Path_73" data-name="Path 73" class="cls-1" d="M180.52,7a15.17,15.17,0,0,0-.29-3.23c0-.21-.3-3-.35-3,2.25.32,3.2,3.61,5.46,4.12s5.36-.41,7.57-.83l.36-.05a12.58,12.58,0,0,1-.55-1.6,3.18,3.18,0,0,1,2.53,1.34,45.84,45.84,0,0,1,4.83-.43,9.92,9.92,0,0,0-.25-1.18A12.43,12.43,0,0,1,199.18,0a6.28,6.28,0,0,1,4.65,3.5,27.27,27.27,0,0,1,6,1.59,29.39,29.39,0,0,1,4.12,2c.83.48,2.14.94,1.46,2.06a2.38,2.38,0,0,1-.68.66A11.62,11.62,0,0,1,211.17,11a35.76,35.76,0,0,1-9.9.7l-.27,0a4.37,4.37,0,0,1-4,1.91,8.58,8.58,0,0,1,.79-1.29c.16-.32.31-.64.44-1a59,59,0,0,1-6.17-1.35c-1.67-.46-3.21-1-4.91-1.32a8.77,8.77,0,0,0-4.63.05c-.79.35-1.9,1.78-2.82,1.3C179.7,8.88,180.43,8,180.52,7Z"/><path id="Path_74" data-name="Path 74" class="cls-1" d="M181.37,24.41a16.75,16.75,0,0,0-.26-3.47c0-.23-.26-3.25-.31-3.25,2.41.39,3.36,3.94,5.78,4.53s5.77-.34,8.14-.74l.39-.05a14.51,14.51,0,0,1-.55-1.73,3.4,3.4,0,0,1,2.69,1.49,47.48,47.48,0,0,1,5.2-.37c-.07-.45-.15-.9-.25-1.28a14.28,14.28,0,0,1-.66-2.23,6.73,6.73,0,0,1,4.93,3.84,30.58,30.58,0,0,1,10.82,4c.88.53,2.29,1.05,1.53,2.23a2.47,2.47,0,0,1-.74.7,12.55,12.55,0,0,1-3.87,1.21,38,38,0,0,1-10.64.55l-.29,0a4.67,4.67,0,0,1-4.32,2,8.73,8.73,0,0,1,.87-1.36,8.4,8.4,0,0,0,.5-1.05,64.6,64.6,0,0,1-6.6-1.57c-1.78-.53-3.44-1.12-5.25-1.5-1.47-.32-3.54-.63-5,0-.86.35-2.08,1.88-3.06,1.34C180.44,26.47,181.24,25.53,181.37,24.41Z"/><path id="Path_75" data-name="Path 75" class="cls-1" d="M147.57,12.12a12.65,12.65,0,0,0-.3-2.68c0-.18-.31-2.51-.34-2.52,1.88.23,2.72,3,4.61,3.34s4.46-.45,6.29-.83l.3,0a10.41,10.41,0,0,1-.48-1.32,2.63,2.63,0,0,1,2.13,1.07,36.14,36.14,0,0,1,4-.44c-.06-.35-.14-.69-.22-1A9.31,9.31,0,0,1,163,6a5.29,5.29,0,0,1,3.94,2.83A23,23,0,0,1,172,10a23.92,23.92,0,0,1,3.46,1.56c.7.39,1.81.75,1.25,1.69a1.64,1.64,0,0,1-.55.56,9.45,9.45,0,0,1-3,1.06,29.6,29.6,0,0,1-8.23.76l-.23,0a3.6,3.6,0,0,1-3.28,1.66,6.53,6.53,0,0,1,.64-1.08,8.58,8.58,0,0,0,.35-.83,50.25,50.25,0,0,1-5.17-1c-1.4-.35-2.7-.76-4.11-1a7.19,7.19,0,0,0-3.85.13c-.66.3-1.56,1.52-2.33,1.13C146.92,13.74,147.51,13,147.57,12.12Z"/><path id="Path_76" data-name="Path 76" class="cls-1" d="M146,41.61a12.72,12.72,0,0,0-.3-2.68c0-.18-.31-2.51-.34-2.52,1.88.24,2.72,3,4.62,3.34s4.46-.44,6.28-.83l.3,0a10.55,10.55,0,0,1-.48-1.33,2.66,2.66,0,0,1,2.13,1.07,36.14,36.14,0,0,1,4-.44c-.06-.35-.14-.69-.22-1a9.67,9.67,0,0,1-.58-1.72,5.26,5.26,0,0,1,3.93,2.83,22.42,22.42,0,0,1,5.05,1.22,22.93,22.93,0,0,1,3.46,1.57c.7.38,1.8.74,1.26,1.68a2,2,0,0,1-.56.57,9.43,9.43,0,0,1-3,1,29.6,29.6,0,0,1-8.23.76l-.22,0a3.63,3.63,0,0,1-3.29,1.66,6.53,6.53,0,0,1,.64-1.08,7.64,7.64,0,0,0,.35-.83,47.71,47.71,0,0,1-5.17-1c-1.4-.35-2.7-.76-4.11-1a7.23,7.23,0,0,0-3.86.13c-.65.3-1.55,1.52-2.32,1.13C145.31,43.23,145.89,42.48,146,41.61Z"/><path id="Path_77" data-name="Path 77" class="cls-1" d="M271.44,24.91a11.3,11.3,0,0,0-.26-2.32c0-.15-.26-2.17-.3-2.17,1.63.2,2.36,2.55,4,2.89s3.86-.39,5.44-.72l.25,0a9.24,9.24,0,0,1-.41-1.15,2.28,2.28,0,0,1,1.84.93,33.79,33.79,0,0,1,3.47-.39,8.71,8.71,0,0,0-.2-.85,9.43,9.43,0,0,1-.5-1.47,4.54,4.54,0,0,1,3.41,2.44,20.39,20.39,0,0,1,4.36,1.05,21.76,21.76,0,0,1,3,1.36c.6.33,1.56.64,1.08,1.46a1.65,1.65,0,0,1-.47.48,8.39,8.39,0,0,1-2.57.91,25.77,25.77,0,0,1-7.11.66l-.19,0a3.16,3.16,0,0,1-2.85,1.44,8,8,0,0,1,.55-.94,6.36,6.36,0,0,0,.31-.71,42.35,42.35,0,0,1-4.46-.88c-1.21-.3-2.34-.66-3.56-.87a6.18,6.18,0,0,0-3.33.11c-.56.26-1.34,1.31-2,1C270.88,26.32,271.38,25.67,271.44,24.91Z"/><path id="Path_78" data-name="Path 78" class="cls-1" d="M219.76,16.05a12,12,0,0,0-.3-2.67c0-.18-.3-2.51-.34-2.52,1.88.23,2.73,3,4.62,3.34s4.46-.45,6.29-.83l.3,0a10.41,10.41,0,0,1-.48-1.32A2.6,2.6,0,0,1,232,13.07a36.06,36.06,0,0,1,4-.44c-.06-.34-.14-.66-.23-1a10.13,10.13,0,0,1-.58-1.71,5.25,5.25,0,0,1,3.94,2.83,22.42,22.42,0,0,1,5,1.22,24.41,24.41,0,0,1,3.46,1.56c.7.39,1.8.75,1.25,1.69a1.73,1.73,0,0,1-.55.56,9.26,9.26,0,0,1-3,1.06,29.56,29.56,0,0,1-8.23.76l-.22,0a3.62,3.62,0,0,1-3.29,1.66,7.31,7.31,0,0,1,.64-1.08,8.41,8.41,0,0,0,.35-.82,47.57,47.57,0,0,1-5.16-1c-1.4-.35-2.7-.76-4.12-1a7.3,7.3,0,0,0-3.85.13c-.66.3-1.55,1.52-2.33,1.13C219.11,17.68,219.7,16.93,219.76,16.05Z"/><path id="Path_79" data-name="Path 79" class="cls-1" d="M229,34.73a13.42,13.42,0,0,0-.3-2.68c0-.18-.31-2.51-.35-2.52,1.88.24,2.73,3,4.62,3.34s4.46-.44,6.29-.83l.3,0a10.61,10.61,0,0,1-.49-1.33,2.66,2.66,0,0,1,2.13,1.07,36.06,36.06,0,0,1,4-.44c-.06-.33-.14-.66-.23-1a10.55,10.55,0,0,1-.58-1.72,5.25,5.25,0,0,1,3.94,2.83,23.87,23.87,0,0,1,8.5,2.79c.7.38,1.8.74,1.26,1.68a1.9,1.9,0,0,1-.56.57,9.43,9.43,0,0,1-3,1.05,29.56,29.56,0,0,1-8.23.76l-.22,0a3.62,3.62,0,0,1-3.29,1.66,6.53,6.53,0,0,1,.64-1.08,8.41,8.41,0,0,0,.35-.82,48.23,48.23,0,0,1-5.17-1c-1.4-.35-2.7-.75-4.11-1a7.3,7.3,0,0,0-3.85.13c-.66.3-1.55,1.52-2.33,1.13C228.33,36.36,228.92,35.6,229,34.73Z"/><path id="Path_80" data-name="Path 80" class="cls-1" d="M113.82,28.44a13.42,13.42,0,0,0-.3-2.68c0-.17-.31-2.51-.35-2.51,1.88.23,2.73,2.95,4.62,3.34s4.46-.45,6.29-.83l.3-.05a10.41,10.41,0,0,1-.48-1.32A2.61,2.61,0,0,1,126,25.46a38.73,38.73,0,0,1,4-.45c-.06-.33-.13-.66-.22-1a9.57,9.57,0,0,1-.58-1.71,5.26,5.26,0,0,1,3.94,2.83,23,23,0,0,1,5,1.21,24.47,24.47,0,0,1,3.46,1.57c.7.39,1.8.74,1.25,1.69a2,2,0,0,1-.55.56,9.71,9.71,0,0,1-3,1.06,29.62,29.62,0,0,1-8.23.75L131,32a3.62,3.62,0,0,1-3.28,1.67,7.36,7.36,0,0,1,.63-1.09,6,6,0,0,0,.36-.82,50.25,50.25,0,0,1-5.17-1c-1.4-.35-2.7-.76-4.11-1a7.23,7.23,0,0,0-3.86.12c-.65.3-1.55,1.52-2.32,1.14C113.16,30.07,113.75,29.32,113.82,28.44Z"/><path id="Path_81" data-name="Path 81" class="cls-1" d="M193.12,47.87a13.32,13.32,0,0,0-.3-2.67c0-.18-.31-2.52-.35-2.52,1.88.23,2.73,3,4.62,3.34s4.46-.45,6.29-.83l.3,0a10.41,10.41,0,0,1-.48-1.32,2.6,2.6,0,0,1,2.12,1.07,38.61,38.61,0,0,1,4-.45c-.06-.33-.13-.66-.22-1a9.31,9.31,0,0,1-.58-1.71,5.26,5.26,0,0,1,3.94,2.83,23,23,0,0,1,5,1.21A25.65,25.65,0,0,1,221,47.36c.7.39,1.8.75,1.25,1.69a1.84,1.84,0,0,1-.55.56,9.71,9.71,0,0,1-3,1.06,30,30,0,0,1-8.23.76,1.6,1.6,0,0,1-.23,0A3.62,3.62,0,0,1,207,53.07a7.9,7.9,0,0,1,.63-1.09,6,6,0,0,0,.36-.82,50.25,50.25,0,0,1-5.17-1c-1.4-.36-2.7-.77-4.12-1a7.19,7.19,0,0,0-3.85.12c-.65.3-1.55,1.52-2.33,1.13C192.46,49.5,193.06,48.75,193.12,47.87Z"/></g></g></g></g></svg>