<svg xmlns="http://www.w3.org/2000/svg" viewBox="0 0 38.29 50.21"><defs><style>.cls-1{fill:#fff;}</style></defs><g id="圖層_2" data-name="圖層 2"><g id="館內導覽"><g id="Group_264" data-name="Group 264"><path id="Path_223" data-name="Path 223" class="cls-1" d="M23,5.74c-.3-1.7-.66-3.6-1.1-5.74-.45,2.14-.8,4-1.11,5.74A22.26,22.26,0,0,1,5.56,23.07,22.29,22.29,0,0,1,20.82,40.4c.3,1.7.66,3.61,1.11,5.74.44-2.14.8-4,1.1-5.74A22.32,22.32,0,0,1,38.29,23.07,22.31,22.31,0,0,1,23,5.74Z"/><path id="Path_224" data-name="Path 224" class="cls-1" d="M5.94,38c-.1-.51-.23-1.09-.38-1.73-.15.64-.27,1.22-.38,1.73A7,7,0,0,1,0,43.22a7,7,0,0,1,5.18,5.25c.1.51.23,1.09.38,1.74.15-.65.27-1.23.38-1.74a7,7,0,0,1,5.18-5.25A7,7,0,0,1,5.94,38Z"/></g></g></g></svg>