<svg xmlns="http://www.w3.org/2000/svg" viewBox="0 0 44.68 53.25"><defs><style>.cls-1{fill:#fff;}</style></defs><g id="圖層_2" data-name="圖層 2"><g id="館內導覽"><g id="Group_263" data-name="Group 263"><path id="Path_218" data-name="Path 218" class="cls-1" d="M41.52,26.63a25.72,25.72,0,0,1-17.61-20c-.35-2-.77-4.16-1.28-6.63-.51,2.47-.93,4.67-1.28,6.63a25.72,25.72,0,0,1-17.61,20,25.71,25.71,0,0,1,17.61,20c.35,1.95.77,4.15,1.28,6.62.51-2.47.93-4.67,1.28-6.62A25.71,25.71,0,0,1,41.26,26.71Z"/><path id="Path_219" data-name="Path 219" class="cls-1" d="M36.14,11.08c.09.46.2,1,.34,1.57.13-.58.25-1.11.34-1.57a6.38,6.38,0,0,1,4.7-4.75,6.4,6.4,0,0,1-4.7-4.76c-.09-.46-.2-1-.34-1.57-.14.59-.25,1.11-.34,1.57a6.4,6.4,0,0,1-4.7,4.76l.07,0A6.38,6.38,0,0,1,36.14,11.08Z"/><path id="Path_220" data-name="Path 220" class="cls-1" d="M6.55,39c-.11-.57-.25-1.2-.41-1.92-.17.71-.3,1.35-.42,1.92A7.77,7.77,0,0,1,0,44.8a7.77,7.77,0,0,1,5.72,5.79c.11.57.25,1.2.42,1.92.16-.72.3-1.35.41-1.92a7.79,7.79,0,0,1,5.72-5.79A7.8,7.8,0,0,1,6.55,39Z"/><path id="Path_221" data-name="Path 221" class="cls-1" d="M6.69,7.82c.06.32.13.7.22,1.11l.21-1.11a4.31,4.31,0,0,1,3-3.36A4.32,4.32,0,0,1,7.12,1.11Q7,.62,6.91,0c-.09.42-.16.78-.22,1.11A4.3,4.3,0,0,1,3.74,4.46,4.33,4.33,0,0,1,6.69,7.82Z"/><path id="Path_222" data-name="Path 222" class="cls-1" d="M41.73,33.73c-.06-.32-.13-.7-.21-1.11-.09.42-.16.79-.22,1.11a4.31,4.31,0,0,1-2.95,3.36,4.3,4.3,0,0,1,2.95,3.35c.06.33.13.7.22,1.11q.12-.61.21-1.11a4.32,4.32,0,0,1,2.91-3.34h0A4.31,4.31,0,0,1,41.73,33.73Z"/></g></g></g></svg>