<svg xmlns="http://www.w3.org/2000/svg" viewBox="0 0 30 20"><defs><style>.cls-1{fill:#fff;}</style></defs><g id="圖層_2" data-name="圖層 2"><g id="圖層_1-2" data-name="圖層 1"><path id="Icon_awesome-ticket-alt" data-name="Icon awesome-ticket-alt" class="cls-1" d="M6.67,5H23.33V15H6.67ZM27.5,10A2.5,2.5,0,0,0,30,12.5v5A2.5,2.5,0,0,1,27.5,20H2.5A2.5,2.5,0,0,1,0,17.5v-5A2.5,2.5,0,0,0,2.5,10,2.5,2.5,0,0,0,0,7.5v-5A2.5,2.5,0,0,1,2.5,0h25A2.5,2.5,0,0,1,30,2.5v5A2.5,2.5,0,0,0,27.5,10ZM25,4.58a1.25,1.25,0,0,0-1.25-1.25H6.25A1.25,1.25,0,0,0,5,4.58V15.42a1.25,1.25,0,0,0,1.25,1.25h17.5A1.25,1.25,0,0,0,25,15.42Z"/></g></g></svg>