<?xml version="1.0" encoding="utf-8"?>
<!-- Generator: Adobe Illustrator 25.0.0, SVG Export Plug-In . SVG Version: 6.00 Build 0)  -->
<svg version="1.1" id="圖層_1" xmlns="http://www.w3.org/2000/svg" xmlns:xlink="http://www.w3.org/1999/xlink" x="0px" y="0px"
	 viewBox="0 0 69.4 69.4" style="enable-background:new 0 0 69.4 69.4;" xml:space="preserve">
<style type="text/css">
	.st0{fill:#FFFFFF;}
	.st1{fill:#08448F;stroke:#08448F;stroke-width:0.6;stroke-linecap:round;stroke-linejoin:round;}
	.st2{fill:#08448F;}
</style>
<circle id="Ellipse_18" class="st0" cx="34.7" cy="34.7" r="34.7"/>
<path id="Path_196" class="st1" d="M25.4,41.7L24.7,41c0.1-0.1,0.2-0.2,0.3-0.3c0.5-0.4,1-0.8,1.4-1.2c1.5-1.3,1.7-3.6,0.4-5.1
	c-0.1-0.1-0.2-0.2-0.3-0.3l-0.6-0.5c-1.8-1.6-2-4.4-0.4-6.2l0.1-0.1c0.3-0.4,0.8-0.7,1.1-1.1l0.5-0.5l-0.6-0.4
	c-1.3-0.6-2.1-1.9-2.2-3.4c-0.2-5,4.8-9.3,10.6-9c5.5,0.3,9.2,3.3,9.9,8.2c0.3,1.9-0.7,3.7-2.5,4.4l-0.3,0.2l1,0.9
	c0.8,0.6,1.4,1.5,1.7,2.5c0.4,1.6-0.1,3.3-1.4,4.5c-0.2,0.2-0.4,0.4-0.6,0.6c-1.4,1.4-1.5,3.6-0.1,5c0.1,0.1,0.1,0.1,0.2,0.2
	c0.6,0.5,1.3,1,2,1.6l-0.8,0.7c-1.8-1.4-3.5-2.8-3.4-5.1c0.1-1.3,0.7-2.5,1.7-3.3c1-0.7,1.5-1.9,1.6-3.1c0-0.9-0.3-1.8-1-2.4
	c-0.6-0.6-1.4-1.1-2-1.6l0.1-0.1h-0.8c0,0.9,0,1.9-1.1,2.5c0.2,0.2,0.3,0.4,0.5,0.6c1.3,1,1.5,2.8,0.5,4.1c0,0-0.1,0.1-0.1,0.1
	c-0.1,0.2-0.3,0.3-0.5,0.5c-0.2,0.1-0.3,0.3-0.5,0.4c-1.5,1.3-1.5,2.5,0,3.8c0.5,0.4,0.9,0.8,1.4,1.2l-0.8,0.7
	c-0.9-0.7-1.8-1.5-2.5-2.5c-0.7-1.2-0.4-2.7,0.7-3.6c0.3-0.3,0.6-0.5,0.9-0.8c0.9-0.8,1-2.2,0.2-3.1c0,0,0,0,0,0
	c-0.1-0.1-0.3-0.3-0.4-0.4c-0.7-0.5-1.4-0.9-2.2-1.2c-0.7,0-1.2,0.5-1.4,1.1c-0.3,0.9-0.9,1.6-1.7,2.1l-0.4,0.3
	c0.5,0.4,1,0.8,1.5,1.2c1.5,1.1,1.9,3.3,0.8,4.8c-0.2,0.3-0.5,0.6-0.8,0.8c-0.7,0.6-1.4,1.2-2.1,1.8c-0.1,0.1-0.2,0.2-0.4,0.3
	l-0.7-0.6l0.8-0.7c0.6-0.6,1.3-1.1,1.9-1.7c1-0.9,1.2-2.4,0.3-3.5c0,0,0,0,0,0c-0.1-0.1-0.2-0.2-0.2-0.3c-0.5-0.5-1.1-0.9-1.7-1.3
	c-1.2,0.9-1,2.7,0.6,4.2l-0.7,0.6c-1-0.6-1.6-1.6-1.8-2.8c-0.1-1.1,0.3-2.2,1.1-2.9c-0.4-0.8-0.6-1.6-0.5-2.5c0-0.3-0.2-0.6-0.5-0.7
	c-0.8-0.3-1.3-1-1.2-1.9V26l-0.9-0.1c-0.8,0.6-1.5,1.3-2.2,2.1c-1.2,1.5-1,3.6,0.4,4.8l0.1,0.1c0.8,0.6,1.4,1.5,1.7,2.5
	c0.5,1.6,0,3.4-1.3,4.6C26.7,40.6,26,41.1,25.4,41.7z M34.7,25h5.2c0.3,0,0.7,0,1-0.1c1.8-0.2,3.2-1.9,2.9-3.7c0,0,0,0,0,0l0,0
	c-0.6-5-5.9-8.3-11.6-7c-3.9,0.9-6.9,4.2-6.8,7.6c0.1,2,1.6,3.3,3.9,3.3L34.7,25L34.7,25z M36.8,26.9c0.1,0.2,0.2,0.3,0.3,0.5
	c0.2,0.3,0.6,0.5,1,0.4c0.4,0,0.8-0.2,0.8-0.5c0.1-0.4,0.1-0.8,0.2-1.2h-8.7c0,0.7-0.2,1.4,0.6,1.8c0.6,0.2,1.3-0.2,1.6-0.8h1
	c0.5,1.1,1.7,1.2,2.3,0L36.8,26.9z M32.3,31c0.8-0.7,1.7-1.3,1.7-2.3l-1-0.5L32,28.7C31.9,29.5,32,30.3,32.3,31L32.3,31z"/>
<g>
	<path class="st2" d="M26.3,56.4h-2.1v-8h-2.6v-1.8H29v1.7h-2.7V56.4z"/>
	<path class="st2" d="M39,51.5c0,0.9-0.1,1.8-0.5,2.6c-0.3,0.7-0.8,1.3-1.5,1.8c-0.8,0.4-1.7,0.7-2.6,0.6c-0.9,0-1.8-0.2-2.6-0.6
		c-0.7-0.4-1.2-1-1.5-1.8c-0.7-1.7-0.7-3.6,0-5.3c0.3-0.7,0.8-1.3,1.5-1.7c0.8-0.4,1.7-0.7,2.6-0.6c0.9,0,1.8,0.2,2.6,0.6
		c0.7,0.4,1.2,1,1.5,1.8C38.9,49.7,39,50.6,39,51.5z M31.9,51.5c0,0.8,0.2,1.7,0.6,2.4c0.4,0.6,1.1,0.9,1.9,0.9
		c0.7,0.1,1.5-0.3,1.9-0.9c0.8-1.5,0.8-3.3,0-4.8c-0.4-0.6-1.1-0.9-1.9-0.9c-0.7-0.1-1.5,0.3-1.9,0.9C32.1,49.8,31.9,50.6,31.9,51.5
		L31.9,51.5z"/>
	<path class="st2" d="M44.2,46.6c1-0.1,2,0.2,2.8,0.8c0.6,0.6,0.9,1.4,0.9,2.2c0,0.6-0.1,1.1-0.4,1.6c-0.3,0.5-0.7,0.9-1.2,1.2
		c-0.7,0.3-1.5,0.5-2.2,0.5h-0.9v3.5h-2.1v-9.8H44.2z M44.1,48.3h-0.9v2.9h0.7c0.5,0,1-0.1,1.4-0.3c0.4-0.3,0.6-0.7,0.5-1.1
		C45.7,48.8,45.2,48.3,44.1,48.3z"/>
</g>
</svg>
