<svg xmlns="http://www.w3.org/2000/svg" viewBox="0 0 69.4 69.4"><defs><style>.cls-1{fill:#fff;}.cls-2,.cls-4{fill:#08448f;}.cls-2{stroke:#08448f;stroke-linecap:round;stroke-linejoin:round;stroke-width:0.6px;}.cls-3{isolation:isolate;}</style></defs><g id="圖層_2" data-name="圖層 2"><g id="首頁"><circle id="Ellipse_18" data-name="Ellipse 18" class="cls-1" cx="34.7" cy="34.7" r="34.7"/><path id="Path_196" data-name="Path 196" class="cls-2" d="M25.36,41.68,24.67,41c.11-.12.2-.23.31-.33.48-.42,1-.82,1.43-1.25a3.61,3.61,0,0,0,.4-5.08c-.09-.11-.19-.21-.29-.31l-.6-.54a4.44,4.44,0,0,1-.4-6.25l.1-.11c.34-.38.75-.71,1.13-1.06l.5-.45-.64-.37a3.93,3.93,0,0,1-2.17-3.35c-.2-5,4.82-9.32,10.58-9,5.46.29,9.23,3.28,9.92,8.16a4,4,0,0,1-2.48,4.36l-.32.21,1,.87a4.7,4.7,0,0,1,1.68,2.55,4.46,4.46,0,0,1-1.36,4.45c-.21.19-.43.38-.63.58a3.57,3.57,0,0,0-.13,5,1.45,1.45,0,0,0,.22.21c.57.55,1.26,1,1.95,1.56l-.81.73c-1.84-1.39-3.55-2.79-3.41-5.11a4.53,4.53,0,0,1,1.68-3.34,3.94,3.94,0,0,0,1.56-3.07,3.26,3.26,0,0,0-1-2.44c-.62-.58-1.36-1.08-2-1.62l.09-.12-.78,0c0,.94,0,1.9-1.08,2.5a4.23,4.23,0,0,0,.51.61A2.93,2.93,0,0,1,40,33.24a2.45,2.45,0,0,1-.46.45c-.17.13-.32.28-.48.42-1.45,1.26-1.45,2.54,0,3.8.46.4.93.79,1.43,1.21l-.83.68a11.21,11.21,0,0,1-2.45-2.46,2.86,2.86,0,0,1,.68-3.56c.3-.29.63-.55.94-.84A2.19,2.19,0,0,0,39,29.83a1.93,1.93,0,0,0-.4-.35,9.31,9.31,0,0,0-2.21-1.21A1.45,1.45,0,0,0,35,29.4a4.22,4.22,0,0,1-1.73,2.15l-.42.29c.53.41,1,.76,1.5,1.17a3.44,3.44,0,0,1,.77,4.8,3.2,3.2,0,0,1-.81.79c-.7.63-1.42,1.24-2.13,1.85-.12.1-.25.18-.39.29l-.7-.64.81-.73c.64-.56,1.3-1.1,1.9-1.68a2.46,2.46,0,0,0,.33-3.47,2.11,2.11,0,0,0-.25-.27,16.48,16.48,0,0,0-1.66-1.34c-1.24.92-1,2.66.62,4.22l-.7.63a3.7,3.7,0,0,1-1.78-2.76,3.61,3.61,0,0,1,1.14-2.94A4.51,4.51,0,0,1,31,29.29a.72.72,0,0,0-.5-.73,1.76,1.76,0,0,1-1.2-1.88V26l-.87-.07A22.21,22.21,0,0,0,26.27,28a3.45,3.45,0,0,0,.42,4.85l.14.11a5.22,5.22,0,0,1,1.73,2.48A4.31,4.31,0,0,1,27.27,40C26.69,40.58,26,41.09,25.36,41.68ZM34.65,25H39.9a5.21,5.21,0,0,0,1-.08,3.36,3.36,0,0,0,2.93-3.75v0c-.57-5-5.92-8.31-11.57-7-3.94.89-6.93,4.2-6.79,7.59.08,2,1.62,3.28,3.9,3.3h5.24Zm2.13,1.91a3.72,3.72,0,0,0,.27.48,1.09,1.09,0,0,0,1,.4c.41,0,.75-.19.84-.54A10.33,10.33,0,0,0,39.06,26H30.41c0,.7-.2,1.39.63,1.79A1.25,1.25,0,0,0,32.59,27h.95c.49,1.14,1.71,1.24,2.33,0Zm-4.44,4.14c.84-.73,1.66-1.32,1.74-2.33l-1-.52L32,28.74a4.19,4.19,0,0,0,.32,2.34Z"/><g class="cls-3"><path class="cls-4" d="M26.32,56.36H24.26v-8H21.61V46.61H29v1.72H26.32Z"/><path class="cls-4" d="M39,51.47a6.51,6.51,0,0,1-.49,2.64A3.92,3.92,0,0,1,37,55.87a5,5,0,0,1-2.62.62,4.92,4.92,0,0,1-2.61-.62,3.78,3.78,0,0,1-1.53-1.77,7.22,7.22,0,0,1,0-5.28,3.76,3.76,0,0,1,1.53-1.74,5,5,0,0,1,2.62-.62,5,5,0,0,1,2.61.62,3.79,3.79,0,0,1,1.53,1.75A6.51,6.51,0,0,1,39,51.47Zm-7.11,0a4.32,4.32,0,0,0,.59,2.41,2.09,2.09,0,0,0,1.88.88,2.09,2.09,0,0,0,1.9-.88,5.38,5.38,0,0,0,0-4.82,2.07,2.07,0,0,0-1.89-.88,2.1,2.1,0,0,0-1.89.88A4.32,4.32,0,0,0,31.93,51.47Z"/><path class="cls-4" d="M44.18,46.61a4,4,0,0,1,2.75.81,2.91,2.91,0,0,1,.87,2.23,3.58,3.58,0,0,1-.36,1.6,2.71,2.71,0,0,1-1.18,1.19,4.73,4.73,0,0,1-2.25.45h-.88v3.47H41.06V46.61Zm-.11,1.69h-.94v2.9h.68a2.43,2.43,0,0,0,1.38-.35,1.25,1.25,0,0,0,.52-1.13C45.71,48.78,45.16,48.3,44.07,48.3Z"/></g></g></g></svg>