<svg id="圖層_1" data-name="圖層 1" xmlns="http://www.w3.org/2000/svg" viewBox="0 0 26.19 44.48"><defs><style>.cls-1,.cls-2{fill:#08448f;}.cls-1{stroke:#08448f;stroke-linecap:round;stroke-linejoin:round;stroke-width:0.6px;}</style></defs><path id="Path_196" data-name="Path 196" class="cls-1" d="M3.75,29.66,3.06,29c.11-.12.2-.23.31-.33.48-.42,1-.82,1.43-1.25a3.61,3.61,0,0,0,.4-5.08c-.09-.11-.19-.21-.29-.31l-.6-.54a4.44,4.44,0,0,1-.4-6.25l.1-.11c.34-.38.75-.71,1.13-1.06l.5-.45L5,13.23A3.93,3.93,0,0,1,2.83,9.88c-.2-5,4.82-9.32,10.58-9,5.46.29,9.23,3.28,9.92,8.16a4,4,0,0,1-2.48,4.36l-.32.21,1,.87A4.7,4.7,0,0,1,23.21,17a4.46,4.46,0,0,1-1.36,4.45c-.21.19-.43.38-.63.58a3.57,3.57,0,0,0-.13,5,1.45,1.45,0,0,0,.22.21c.57.55,1.26,1,2,1.56l-.81.73c-1.84-1.39-3.55-2.79-3.41-5.11a4.54,4.54,0,0,1,1.68-3.34A3.94,3.94,0,0,0,22.28,18a3.25,3.25,0,0,0-1-2.44c-.62-.58-1.36-1.08-2-1.62l.09-.12h-.78c0,.94,0,1.9-1.08,2.5A4.23,4.23,0,0,0,18,17a2.93,2.93,0,0,1,.48,4.12l-.11.13a2.45,2.45,0,0,1-.46.45c-.17.13-.32.28-.48.42-1.45,1.26-1.45,2.54,0,3.8.46.4.93.79,1.43,1.21l-.83.68a11.21,11.21,0,0,1-2.45-2.46,2.85,2.85,0,0,1,.68-3.56c.3-.29.63-.55.94-.84a2.19,2.19,0,0,0,.19-3.09l0,0a2.23,2.23,0,0,0-.4-.35,9.31,9.31,0,0,0-2.21-1.21,1.45,1.45,0,0,0-1.39,1.13,4.22,4.22,0,0,1-1.73,2.15l-.42.29c.53.41,1,.76,1.5,1.17a3.44,3.44,0,0,1,.77,4.8,3.2,3.2,0,0,1-.81.79c-.7.63-1.42,1.24-2.13,1.85-.12.1-.25.18-.39.29l-.7-.64.81-.73c.64-.56,1.3-1.1,1.9-1.68a2.46,2.46,0,0,0,.34-3.46h0a2.16,2.16,0,0,0-.25-.27,16.48,16.48,0,0,0-1.66-1.34c-1.24.92-1,2.66.62,4.22l-.7.63a3.7,3.7,0,0,1-1.78-2.76,3.61,3.61,0,0,1,1.14-2.94,4.5,4.5,0,0,1-.5-2.47.72.72,0,0,0-.5-.73,1.76,1.76,0,0,1-1.2-1.88V14l-.87-.07A21.13,21.13,0,0,0,4.66,16a3.45,3.45,0,0,0,.42,4.85l.14.11A5.22,5.22,0,0,1,7,23.42,4.31,4.31,0,0,1,5.66,28C5.08,28.56,4.39,29.07,3.75,29.66ZM13,13h5.25a4.77,4.77,0,0,0,1-.08,3.36,3.36,0,0,0,2.93-3.74h0c-.57-5-5.92-8.31-11.57-7C6.71,3,3.72,6.35,3.86,9.74c.08,2,1.62,3.28,3.9,3.3H13Zm2.13,1.91a3.72,3.72,0,0,0,.27.48,1.1,1.1,0,0,0,1,.4.8.8,0,0,0,.84-.54A10.43,10.43,0,0,0,17.45,14H8.8c0,.7-.2,1.39.63,1.79A1.25,1.25,0,0,0,11,15h.95c.49,1.14,1.71,1.24,2.33,0ZM10.73,19c.84-.73,1.66-1.32,1.74-2.33l-1-.52-1.08.54a4.17,4.17,0,0,0,.32,2.34Z"/><path class="cls-2" d="M4.71,44.34H2.65v-8H0V34.59H7.39v1.72H4.71Z"/><path class="cls-2" d="M17.39,39.45a6.45,6.45,0,0,1-.49,2.64,3.86,3.86,0,0,1-1.51,1.76,5,5,0,0,1-2.62.62,4.87,4.87,0,0,1-2.61-.62,3.77,3.77,0,0,1-1.53-1.77,7.19,7.19,0,0,1,0-5.28,3.75,3.75,0,0,1,1.53-1.74,5,5,0,0,1,2.62-.62,5.06,5.06,0,0,1,2.61.62,3.77,3.77,0,0,1,1.53,1.75A6.47,6.47,0,0,1,17.39,39.45Zm-7.11,0a4.34,4.34,0,0,0,.59,2.41,2.08,2.08,0,0,0,1.88.88,2.09,2.09,0,0,0,1.9-.88,5.38,5.38,0,0,0,0-4.82,2.08,2.08,0,0,0-1.89-.88,2.1,2.1,0,0,0-1.89.88,4.31,4.31,0,0,0-.55,2.41Z"/><path class="cls-2" d="M22.57,34.59a4,4,0,0,1,2.75.81,2.92,2.92,0,0,1,.87,2.23,3.57,3.57,0,0,1-.36,1.6,2.71,2.71,0,0,1-1.18,1.19,4.71,4.71,0,0,1-2.25.45h-.88v3.47H19.45V34.59Zm-.11,1.69h-.94v2.9h.68a2.47,2.47,0,0,0,1.38-.35,1.26,1.26,0,0,0,.52-1.13C24.1,36.76,23.55,36.28,22.46,36.28Z"/></svg>