<svg xmlns="http://www.w3.org/2000/svg" viewBox="0 0 84.96 85.23"><defs><style>.cls-1{fill:#fff;}</style></defs><g id="圖層_2" data-name="圖層 2"><g id="館內導覽"><g id="Group_127" data-name="Group 127"><path id="Path_171" data-name="Path 171" class="cls-1" d="M34,70.16A26,26,0,0,1,21.56,63a28.07,28.07,0,0,1-6.3-10.91c-.42-1.25.07-1.78,1.15-2.22,5.07-2.05,10.11-4.19,15.2-6.2a2.23,2.23,0,0,1,1.9.41q3.85,3.75,7.5,7.71a2.21,2.21,0,0,1,.29,1.93c-2,5.1-4,10.18-6.15,15.23C34.92,69.5,34.28,69.85,34,70.16Z"/><path id="Path_172" data-name="Path 172" class="cls-1" d="M60.39,6.65C62.25,7.49,64,8.15,65.55,9A26.3,26.3,0,0,1,77.86,23.41c.51,1.4.23,2.1-1.16,2.71q-7,3-13.92,6.29a2.53,2.53,0,0,1-3.42-.65c-2-2.2-4.18-4.32-6.33-6.41a2,2,0,0,1-.49-2.61c2.22-4.87,4.38-9.76,6.61-14.63A7.55,7.55,0,0,1,60.39,6.65Z"/><path id="Path_173" data-name="Path 173" class="cls-1" d="M79.58,33.44A38.54,38.54,0,0,1,71,56.3c-.93,1.17-1.61,1.47-2.76.26-2.75-2.88-5.57-5.68-8.41-8.46a2.17,2.17,0,0,1-.59-2.94,2.28,2.28,0,0,0,.15-.36c1.17-5.21,4.27-8.45,9.47-9.94a67.07,67.07,0,0,0,7.9-3.39C79.48,30.28,79.71,30.44,79.58,33.44Z"/><path id="Path_174" data-name="Path 174" class="cls-1" d="M50.16,5.68c4.74-.31,4.78-.25,3,3.65s-3.47,7.87-5.27,11.79a4,4,0,0,1-1.49,1.93A75.79,75.79,0,0,1,39,26a2.32,2.32,0,0,1-1.85-.66c-2.93-2.88-5.76-5.86-8.67-8.76-1.11-1.1-.55-1.77.38-2.52C35.18,9,42.31,5.9,50.16,5.68Z"/><path id="Path_175" data-name="Path 175" class="cls-1" d="M42.49,71.14h-.73c-2.07,0-2.27-.25-1.54-2.1q2.79-7,5.63-14c.19-.47.43-1.11.82-1.28,2.68-1.16,5.39-2.28,8.15-3.23.43-.15,1.27.53,1.75,1,2.81,2.72,5.52,5.54,8.36,8.24,1.16,1.1,1.1,1.84-.14,2.78C58.33,67.56,51.18,70.74,42.49,71.14Z"/><path id="Path_176" data-name="Path 176" class="cls-1" d="M14.21,45.17A25.76,25.76,0,0,1,14,42.4a37.36,37.36,0,0,1,8.69-22.19c.75-.93,1.33-1,2.21-.18,3,3,6.12,5.87,9.11,8.87a2.2,2.2,0,0,1,.45,1.88c-.87,2.46-1.88,4.86-2.91,7.26a2.21,2.21,0,0,1-1.11,1q-7.34,3-14.73,5.83A10.09,10.09,0,0,1,14.21,45.17Z"/><path id="Path_177" data-name="Path 177" class="cls-1" d="M48.05,27.58a13.85,13.85,0,0,1,1.5,1.11c2.29,2.23,4.62,4.42,6.77,6.78.52.56.44,1.68.6,2.55,0,.16-.12.36-.19.54-2.74,7.26-2.75,7.23-10,9.9a2.48,2.48,0,0,1-3-.55c-2.26-2.26-4.63-4.41-6.8-6.75a3,3,0,0,1-.48-2.55c.65-2.1,1.61-4.12,2.46-6.16.15-.36.3-.85.59-1C42.31,30.15,45.15,28.89,48.05,27.58Z"/><path id="Path_178" data-name="Path 178" class="cls-1" d="M45.35,76.08c-1.36,4.81-7,8.91-12.5,9.14s-10.13-2.08-13.91-6a2.49,2.49,0,0,1-.06-3.52,2.41,2.41,0,0,1,.84-.57c1.72-.91,3.47-1.78,5.24-2.57a2.19,2.19,0,0,1,1.65,0,36.34,36.34,0,0,0,17.7,3.33A4.29,4.29,0,0,1,45.35,76.08Z"/><path id="Path_179" data-name="Path 179" class="cls-1" d="M9,39.75c.14,3,0,5.54.46,8a84.81,84.81,0,0,0,2.85,10.11,3.22,3.22,0,0,1-.21,3.08,32.42,32.42,0,0,0-1.9,4c-.86,1.92-2.75,2.52-4.29,1.19-6.85-5.92-9.11-19,1-25.42A21.45,21.45,0,0,1,9,39.75Z"/><path id="Path_180" data-name="Path 180" class="cls-1" d="M83.37,44.39a25.41,25.41,0,0,1,.95,2.83c1.66,8-.4,15.12-5,21.62a3.66,3.66,0,0,1-2.9,1.35C74.67,70,73.6,66.44,73.13,65c-.84-2.53.35-4.68,2.07-6.52a34.49,34.49,0,0,0,7-12.55c.18-.52.43-1,.65-1.52Z"/><path id="Path_181" data-name="Path 181" class="cls-1" d="M40.93,2c-.83.39-1.32.68-1.85.86a44.66,44.66,0,0,0-15.24,8.9,2.41,2.41,0,0,1-1.87.56,53.49,53.49,0,0,1-5.34-1.85,2.51,2.51,0,0,1-.92-4.37,13.3,13.3,0,0,1,2.87-2C24.76.76,31.21-1.14,38.28.75a14.08,14.08,0,0,1,1.66.56A7.54,7.54,0,0,1,40.93,2Z"/><path id="Path_182" data-name="Path 182" class="cls-1" d="M68.09,4.6a8.85,8.85,0,0,1,12-3.42A9,9,0,0,1,84,13.25c-.14.29-.31.57-.48.85-2.15,3.56-2.58,3.53-5,.21s-5.13-6.58-8.9-8.64A15.71,15.71,0,0,1,68.09,4.6Z"/></g></g></g></svg>