<svg xmlns="http://www.w3.org/2000/svg" viewBox="0 0 47.09 60.29"><defs><style>.cls-1{fill:#1152a0;}</style></defs><g id="圖層_2" data-name="圖層 2"><g id="首頁"><g id="Group_95" data-name="Group 95"><path id="Path_115" data-name="Path 115" class="cls-1" d="M23.54,0C7.7,0,0,3.17,0,9.7v31a9,9,0,0,0,8.94,8.95H13.5L6.85,58a1.4,1.4,0,1,0,2.2,1.74l2.78-3.51a1.34,1.34,0,0,0,.35,0H35a1.75,1.75,0,0,0,.32,0l2.77,3.49A1.4,1.4,0,1,0,40.25,58l-6.66-8.4h4.56a9,9,0,0,0,8.94-8.95V9.7C47.09,3.17,39.39,0,23.54,0Zm0,2.8C33,2.8,44.25,4,44.29,9.67H2.8C2.84,4,14.09,2.8,23.54,2.8ZM2.8,12.47H22.14V28.53H2.8Zm11.2,41,3.08-3.88H30l3.08,3.88ZM44.29,40.67a6.15,6.15,0,0,1-6.14,6.14H9a6.15,6.15,0,0,1-6.14-6.14V31.33H44.29Zm0-12.14H25V12.47H44.29Z"/><path id="Path_116" data-name="Path 116" class="cls-1" d="M10.67,43.49a4.9,4.9,0,1,0-4.9-4.9A4.9,4.9,0,0,0,10.67,43.49Zm0-7a2.1,2.1,0,1,1-2.1,2.1h0A2.1,2.1,0,0,1,10.67,36.48Z"/><path id="Path_117" data-name="Path 117" class="cls-1" d="M36.41,43.49a4.9,4.9,0,1,0-4.9-4.9A4.9,4.9,0,0,0,36.41,43.49Zm0-7a2.1,2.1,0,1,1-2.09,2.1h0A2.1,2.1,0,0,1,36.41,36.48Z"/></g></g></g></svg>