<svg xmlns="http://www.w3.org/2000/svg" viewBox="0 0 161.23 104.62"><defs><style>.cls-1{fill:#fff;}</style></defs><g id="圖層_2" data-name="圖層 2"><g id="館內導覽"><g id="Group_128" data-name="Group 128"><path id="Path_183" data-name="Path 183" class="cls-1" d="M29.17,104.62a18.41,18.41,0,0,1-3.47-.44c-6.06-1.91-12.09-4-17.63-7.4a29.12,29.12,0,0,1-5.64-4.5c-3-3.15-3.18-6.77-.71-10.45a27.35,27.35,0,0,1,7.71-7.18A110,110,0,0,1,29.46,64C44.61,57.74,59.84,51.68,75,45.49c10-4.08,20-8.21,29.46-13.66A45.18,45.18,0,0,0,115.05,24a18.14,18.14,0,0,0,2.42-3.16A7.41,7.41,0,0,0,117,12c-.51-.69-1.1-1.31-1.8-2.13A8.17,8.17,0,0,1,118.23,21l0,.05a20.55,20.55,0,0,1-5.39,5.91,85.33,85.33,0,0,1-16,9.56C84.78,42.42,72.32,47.21,59.92,52.18c-12,4.8-24,9.48-35.63,15.27-5.53,2.76-11,5.67-15.8,9.84a25.49,25.49,0,0,0-4,4.37C2,85.11,2.3,88.78,5,92A25.74,25.74,0,0,0,12.9,97.8,96.54,96.54,0,0,0,28.28,104c.32.1.63.22.94.33Z"/><path id="Path_184" data-name="Path 184" class="cls-1" d="M161.23,104.39c-2.08.41-3.84-.19-5.63-.6a216.05,216.05,0,0,1-30.42-9.06,54.88,54.88,0,0,1-13.71-7.29,24.94,24.94,0,0,1-4.09-3.93c-2.82-3.45-3.15-7.47-1.14-11.57a27.37,27.37,0,0,1,7.11-8.85c5.34-4.47,10.79-8.76,16.26-13C134.93,45.9,140.42,42,145,36.73a28.27,28.27,0,0,0,3.14-4.31c3-5.11,2.4-9.85-1.62-14a33.07,33.07,0,0,0-8.08-5.91,4.36,4.36,0,0,1-.93-.66c4.51,2.33,9,4.73,11.94,9.46a9.83,9.83,0,0,1,.84,8.92,23.92,23.92,0,0,1-5.65,8.38c-5.06,5.3-10.93,9.43-16.53,14q-7.12,5.76-14,11.9a22.86,22.86,0,0,0-5.27,7c-2.22,4.5-1.71,8.68,1.49,12.4A31.44,31.44,0,0,0,120.07,91c8.3,4.31,17.07,7,25.93,9.47,4.7,1.29,9.44,2.38,14.16,3.56C160.45,104.14,160.74,104.24,161.23,104.39Z"/><path id="Path_185" data-name="Path 185" class="cls-1" d="M151.62,104.23c-4.81-1.22-9.65-2.36-14.44-3.68a124.49,124.49,0,0,1-23.74-8.67c-3.74-1.9-7.36-4-10.16-7.49-3-3.71-3.34-7.7-1-12a29.78,29.78,0,0,1,6.17-7.56c4.91-4.61,10.4-8.34,15.72-12.31s10.78-8.15,16-12.42a25.66,25.66,0,0,0,7-8.56c1.34-2.72,1.85-5.63.44-8.42A18.48,18.48,0,0,0,144,18.28c-4-3.82-8.83-6.06-13.72-8.09-11-4.57-22.46-7.52-34-10.09a14.8,14.8,0,0,0-3.12,0,2.18,2.18,0,0,0,.85.45c4.34,1.6,8.72,3.07,13,4.82A31.48,31.48,0,0,1,117.69,12c3.44,3.44,3.75,7.33.92,11.37A16.81,16.81,0,0,1,117.36,25c-3.73,4.08-8.28,6.83-12.92,9.39-9.74,5.4-20,9.56-30.16,13.79-12.89,5.34-25.81,10.6-38.65,16.1A104.25,104.25,0,0,0,16.11,74.86a26,26,0,0,0-7,6.67c-2.41,3.61-2.16,7.1.67,10.31a23.82,23.82,0,0,0,6.28,4.87,88,88,0,0,0,18,7.27,11.77,11.77,0,0,0,3.38.5q24.86,0,49.7,0h3.34l0-.22c-2.21-.62-4.43-1.22-6.64-1.88-7.13-2.12-14.2-4.45-20.83-8.07a25.15,25.15,0,0,1-7.67-5.87c-2.9-3.49-3.25-7.27-.68-11a32.94,32.94,0,0,1,5.33-5.92c5.16-4.53,11-7.88,16.94-11,9.62-5.11,19.32-10,29-15.09a117.37,117.37,0,0,0,18.51-11.5,25.38,25.38,0,0,0,6.62-7.08c.52-.91,1.06-1.2,2-.83a16.48,16.48,0,0,1-3.38,4.88,52.17,52.17,0,0,1-12.41,9.44C106.72,46.25,96,52,85.35,57.77,78.77,61.36,72.2,65,66.2,69.67a29.12,29.12,0,0,0-6.78,6.92C56.53,81,56.91,85.1,60.54,88.85a30.05,30.05,0,0,0,8.14,5.73c7.7,4,15.86,6.4,24,8.77a32.34,32.34,0,0,0,9.07,1.2c16.33-.07,32.65,0,49,0H152A.43.43,0,0,0,151.62,104.23ZM125.83,12l-8.1-4.28.1-.25,8.16,4.1Zm6.74,11.36c.52-5.16-2.59-7.89-5.82-10.55,2.85-.61,7.8,6.79,7.06,10.55Z"/></g></g></g></svg>