<svg xmlns="http://www.w3.org/2000/svg" viewBox="0 0 111.47 82"><defs><style>.cls-1,.cls-2{fill:none;stroke:#fff;stroke-width:2.5px;}.cls-1{stroke-linecap:round;stroke-linejoin:round;}.cls-2{stroke-miterlimit:10;}.cls-3{fill:#fff;}</style></defs><g id="圖層_2" data-name="圖層 2"><g id="館內導覽"><g id="Group_257" data-name="Group 257"><path id="Path_161" data-name="Path 161" class="cls-1" d="M1.25,10.64,9,4.25l7.85,5.64"/><path id="Path_162" data-name="Path 162" class="cls-1" d="M16.84,72,9.1,78.35,1.25,72.71"/><line id="Line_44" data-name="Line 44" class="cls-1" x1="8.99" y1="4.25" x2="8.99" y2="76.29"/></g><ellipse id="Ellipse_21" data-name="Ellipse 21" class="cls-2" cx="70.94" cy="10.23" rx="38.9" ry="8.98"/><path id="Path_159" data-name="Path 159" class="cls-2" d="M32.25,11.48V71.82c0,4.93,17.45,8.93,39,8.93s39-4,39-8.93V9.92"/><path id="Path_160" data-name="Path 160" class="cls-2" d="M32.25,36.11S55.17,33,69.6,39.61s40.62-2.11,40.62-2.11"/><path id="Path_163" data-name="Path 163" class="cls-1" d="M35,63.67h2.73l-.16,4.58,4.76,2.38v7.2"/><path id="Path_164" data-name="Path 164" class="cls-1" d="M42.36,70.63l3-4.16v-6H50"/><path id="Path_165" data-name="Path 165" class="cls-1" d="M48.5,70.63v3.44l3.39.73v4.77"/><path id="Path_166" data-name="Path 166" class="cls-1" d="M52.86,74.07l2.73-4h2.55l.91,3"/><path id="Path_167" data-name="Path 167" class="cls-1" d="M68.69,74.07,71.23,76h2.56"/><path id="Path_168" data-name="Path 168" class="cls-1" d="M77.43,72.05H73.79v8.7"/><circle id="Ellipse_22" data-name="Ellipse 22" class="cls-1" cx="73.07" cy="56.81" r="3.42"/><path id="Path_169" data-name="Path 169" class="cls-1" d="M104.24,71.56l.49-15.81s-8.62,11.53-15.53,15C83.82,73.43,77,66.9,79.71,61.43s9.4-1.74,12.82.85c.57.44,1.13.9,1.67,1.39C105.33,72.47,104.24,71.56,104.24,71.56Z"/><path id="Path_169-2" data-name="Path 169" class="cls-1" d="M62.24,56.56l.49-15.81s-8.62,11.53-15.53,15C41.82,58.43,35,51.9,37.71,46.43s9.4-1.74,12.82.85c.57.44,1.13.9,1.67,1.39C63.33,57.47,62.24,56.56,62.24,56.56Z"/><circle id="Ellipse_23" data-name="Ellipse 23" class="cls-3" cx="83.84" cy="63.49" r="1.49"/><circle id="Ellipse_24" data-name="Ellipse 24" class="cls-3" cx="42.18" cy="48.61" r="1.49"/></g></g></svg>