<svg xmlns="http://www.w3.org/2000/svg" viewBox="0 0 32.57 51.45"><defs><style>.cls-1{fill:#fff;}</style></defs><g id="圖層_2" data-name="圖層 2"><g id="館內導覽"><g id="Group_114" data-name="Group 114"><path id="Path_145" data-name="Path 145" class="cls-1" d="M27,51.45H5.58a3.62,3.62,0,0,1-3.72-3.26L0,1A1,1,0,0,1,1,0H31.57a1,1,0,0,1,1,1V1L30.71,48.19A3.63,3.63,0,0,1,27,51.45ZM2,2,3.85,48.11a1.64,1.64,0,0,0,1.73,1.34H27a1.63,1.63,0,0,0,1.72-1.34L30.52,2Z"/></g><g id="Group_115" data-name="Group 115"><path id="Path_146" data-name="Path 146" class="cls-1" d="M21.75,44.72H11a9.6,9.6,0,0,1-9.6-9.6,1,1,0,0,1,2,0A7.62,7.62,0,0,0,11,42.73h10.8a7.61,7.61,0,0,0,7.6-7.61,1,1,0,0,1,2-.14v.14A9.61,9.61,0,0,1,21.75,44.72Z"/></g><g id="Group_116" data-name="Group 116"><path id="Path_147" data-name="Path 147" class="cls-1" d="M9.67,10.28A25.73,25.73,0,0,1,1.92,9.16a1,1,0,0,1,.65-1.88,25.47,25.47,0,0,0,14.09,0,22.34,22.34,0,0,1,14.18,0,1,1,0,0,1-.76,1.84,20.79,20.79,0,0,0-12.84,0A25.87,25.87,0,0,1,9.67,10.28Z"/></g></g></g></svg>