<svg xmlns="http://www.w3.org/2000/svg" viewBox="0 0 24.08 16.09"><defs><style>.cls-1{fill:#fff;}</style></defs><g id="圖層_2" data-name="圖層 2"><g id="圖層_1-2" data-name="圖層 1"><path id="icon_youtube" data-name="icon youtube" class="cls-1" d="M23.93,3.55A3.43,3.43,0,0,0,20.46.15h0C17.84,0,15.18,0,12.47,0h-.85c-2.71,0-5.37,0-8,.15A3.43,3.43,0,0,0,.17,3.56C.05,5.05,0,6.54,0,8s.05,3,.16,4.48a3.44,3.44,0,0,0,3.48,3.42q4.11.16,8.4.16c2.85,0,5.66,0,8.4-.16a3.45,3.45,0,0,0,3.48-3.41h0c.11-1.5.16-3,.16-4.48S24.05,5.05,23.93,3.55ZM9.74,12.15V3.91L16.56,8Z"/></g></g></svg>